#N canvas 58 52 1154 540 10;
#X floatatom 495 256 5 0 0 0 - - -;
#X msg 484 121 bang;
#X obj 553 256 print TWO_ITEMS;
#X obj 484 286 print RESULT;
#X msg 491 145 1;
#X msg 496 167 1 2;
#X symbolatom 964 182 15 0 0 0 - - -;
#X msg 1059 151 \$2-\$1;
#X obj 832 437 u_listreduce;
#X msg 832 410 1 2 3 4 5 6 7 8;
#X msg 927 436 \$2 \$1;
#N canvas 209 220 605 355 more-info 0;
#X msg 84 101 bang;
#X obj 123 237 print TWO_ITEMS;
#X obj 54 266 print RESULT;
#X msg 91 125 1;
#X msg 99 171 1 2 3;
#X msg 96 147 1 2;
#X text 36 42 If nothing is connected to the right inlet \, [u_listreduce]
will act like the left and right outlets of [list split 2] reversed.
;
#X obj 54 203 u_listreduce;
#X msg 342 100 bang;
#X obj 385 244 print TWO_ITEMS;
#X obj 312 265 print RESULT;
#X msg 349 124 1;
#X msg 357 170 1 2 3;
#X msg 354 146 1 2;
#X obj 312 202 list split 2;
#X text 178 202 equal to this:;
#X connect 0 0 7 0;
#X connect 3 0 7 0;
#X connect 4 0 7 0;
#X connect 5 0 7 0;
#X connect 7 0 2 0;
#X connect 7 1 1 0;
#X connect 8 0 14 0;
#X connect 11 0 14 0;
#X connect 12 0 14 0;
#X connect 13 0 14 0;
#X connect 14 0 9 0;
#X connect 14 2 10 0;
#X restore 964 223 pd more-info;
#X obj 832 465 print REVERSE?;
#X obj 964 152 u_listreduce;
#X obj 484 223 u_listreduce;
#X text 971 437 <-- two items == bad idea;
#X msg 964 125 a b c d e;
#X obj 706 205 u_listreduce;
#X obj 799 205 min;
#N canvas 0 22 450 300 randlist 0;
#X obj 254 138 random 100;
#X obj 254 116 until;
#X msg 366 138 set;
#X msg 232 61 10;
#X msg 254 160 add2 \$1;
#X obj 232 88 t b f b;
#X obj 255 236 outlet;
#X obj 232 38 inlet;
#X connect 0 0 4 0;
#X connect 1 0 0 0;
#X connect 2 0 6 0;
#X connect 3 0 5 0;
#X connect 4 0 6 0;
#X connect 5 0 6 0;
#X connect 5 1 1 0;
#X connect 5 2 2 0;
#X connect 7 0 3 0;
#X restore 706 152 pd randlist;
#X msg 706 178 55 82 19 70 97 31 45 65 20 11;
#X msg 706 132 bang;
#X obj 759 231 u_listreduce;
#X floatatom 759 265 5 0 0 3 max - -;
#X obj 853 231 max;
#X floatatom 706 266 5 0 0 3 min - -;
#X obj 573 223 +;
#X obj 488 426 u_listreduce;
#X floatatom 488 449 5 0 0 0 - - -;
#X msg 488 396 22 31 47 86;
#N canvas 0 22 701 458 compare-two 0;
#X obj 99 12 inlet;
#X obj 99 318 outlet;
#X obj 164 162 abs;
#X obj 99 161 abs;
#X obj 99 41 unpack f f;
#X obj 99 90 t a a;
#X obj 99 272 f;
#X obj 164 90 t a a;
#X obj 131 272 f;
#X obj 99 247 select 1 0;
#X text 178 276 send number with smaller distance back to reduce;
#X text 215 151 calculate distances;
#X obj 99 192 <;
#X obj 217 91 inlet;
#X obj 164 139 -;
#X obj 99 138 -;
#X connect 0 0 4 0;
#X connect 2 0 12 1;
#X connect 3 0 12 0;
#X connect 4 0 5 0;
#X connect 4 1 7 0;
#X connect 5 0 15 0;
#X connect 5 1 6 1;
#X connect 6 0 1 0;
#X connect 7 0 14 0;
#X connect 7 1 8 1;
#X connect 8 0 1 0;
#X connect 9 0 6 0;
#X connect 9 1 8 0;
#X connect 12 0 9 0;
#X connect 13 0 14 1;
#X connect 13 0 15 1;
#X connect 14 0 2 0;
#X connect 15 0 3 0;
#X restore 584 426 pd compare-two;
#X floatatom 665 403 5 0 0 0 - - -;
#X msg 665 380 45;
#X obj 665 357 loadbang;
#N canvas 22 203 476 475 REFERENCE 0;
#X text 24 31 Name: u_listreduce;
#X text 24 434 Tags: Message \, Lists;
#X text 24 104 Inlet 0: 'bang' - sends last list again.;
#X text 24 61 Summary: Utility to allow user-defined functions on lists.
;
#X text 24 179 Outlet 0: <list> - result from applied function.;
#X text 24 149 Inlet 1: <list> - return element from function.;
#X text 24 199 Outlet 1: <list> - remainder of input list to apply
to function.;
#X text 24 244 Description: Returns a single value constructed by calling
the user-defined objects connected to the right outlet on the first
two items of the sequence \, then on the result (if it comes in through
the right inlet) and the next item of the original list \, and so on.
If nothing is connected to the right inlet \, [u_listreduce] will act
like the left and right outlets of [list split 2] reversed. Only one
element can be sent back into Inlet 1;
#X text 78 118 <list> - list to apply function to. Single element lists
will pass through unchanged.;
#X text 24 364 See also: [u_listdrip] [u_listequal] [u_listfilter]
[u_listloop] [u_listmap] [u_listnth] [u_listrandom] [u_listser];
#X coords 0 -1 1 1 450 450 1 10 10;
#X restore 7 51 pd REFERENCE;
#X obj 7 22 cnv 15 450 20 empty empty empty 20 12 0 14 -261234 -66577
0;
#X text 470 55 Example:;
#X text 831 507 RjDj Library (https://github.com/rjdj/rjlib) - 2011
;
#X obj 10 24 u_listreduce;
#X text 962 102 Merging elements:;
#X text 485 354 Find the closest element:;
#X text 121 25 - Utility to allow user-defined functions on lists;
#X text 774 361 It's important that there is only one element coming
back in through the right inlet. Lists with more than one item will
be shortened automatically to avoid stack overflows.;
#X text 481 102 Sum elements of list:;
#X msg 499 191 1 2 3 4;
#X text 701 102 Find range of list:;
#X connect 1 0 14 0;
#X connect 4 0 14 0;
#X connect 5 0 14 0;
#X connect 7 0 13 1;
#X connect 8 0 12 0;
#X connect 8 1 10 0;
#X connect 9 0 8 0;
#X connect 10 0 8 1;
#X connect 13 0 6 0;
#X connect 13 1 7 0;
#X connect 14 0 0 0;
#X connect 14 0 3 0;
#X connect 14 1 2 0;
#X connect 14 1 26 0;
#X connect 16 0 13 0;
#X connect 17 0 25 0;
#X connect 17 1 18 0;
#X connect 18 0 17 1;
#X connect 19 0 20 0;
#X connect 20 0 17 0;
#X connect 20 0 22 0;
#X connect 21 0 19 0;
#X connect 22 0 23 0;
#X connect 22 1 24 0;
#X connect 24 0 22 1;
#X connect 26 0 14 1;
#X connect 27 0 28 0;
#X connect 27 1 30 0;
#X connect 29 0 27 0;
#X connect 30 0 27 1;
#X connect 31 0 30 1;
#X connect 32 0 31 0;
#X connect 33 0 32 0;
#X connect 44 0 14 0;
