#N canvas 104 204 814 287 10;
#X obj 562 140 u_loadmeter;
#N canvas 79 373 491 233 REFERENCE 0;
#X text 25 117 See also:;
#X text 24 31 Name: u_loadmeter;
#X text 24 73 Description: Graphical representation of the host machine's
CPU load in percent.;
#X text 24 51 Summary: Graphical CPU load meter.;
#X text 25 149 Tags: Metering;
#X coords 0 -1 1 1 450 200 1 10 10;
#X restore 8 37 pd REFERENCE;
#X obj 8 7 cnv 15 450 25 empty empty empty 20 12 0 14 -261234 -66577
0;
#X text 471 40 Example:;
#X text 471 239 RjDj Library (https://github.com/rjdj/rjlib) - 2011
;
#X text 176 11 - graphical CPU load meter.;
#X obj 11 10 u_loadmeter;
#X obj 562 113 tgl 15 0 empty empty empty 17 7 0 10 -262144 -1 -1 1
1;
#X obj 562 87 loadbang;
#X floatatom 562 174 5 0 0 0 - - -;
#X connect 0 0 9 0;
#X connect 7 0 0 0;
#X connect 8 0 7 0;
