#N canvas 0 0 1904 976 12;
#X obj 7 7 cnv 15 146 196 empty empty ADSR 0 20 0 14 #a8d0b4 #000000
0;
#X obj 7 193 cnv 5 18 10 empty empty OUT 0 5 0 10 #a8d0b4 #000000 0
;
#X obj 135 193 cnv 5 18 10 empty empty ENV 0 5 0 10 #a8d0b4 #000000
0;
#X obj 7 7 cnv 5 18 10 empty empty SND 0 5 0 10 #a8d0b4 #000000 0;
#X obj 135 7 cnv 5 18 10 empty empty VEL 0 5 0 10 #a8d0b4 #000000 0
;
#X obj 44 54 nbx 5 14 1000 5000 0 0 \$0-duration-send \$0-duration-recv
ENV-DURATION 0 -8 0 10 #dcdcdc #000000 #000000 1000 256 1;
#X obj 16 89 hsl 128 12 0.1 1 0 0 \$0-attack-send \$0-attack-recv ATTACK
-2 -8 0 10 #dcdcdc #000000 #000000 0 1;
#X obj 16 115 hsl 128 12 0.1 1 0 0 \$0-decay-send \$0-decay-recv DECAY
-2 -8 0 10 #dcdcdc #000000 #000000 0 1;
#X obj 16 141 hsl 128 12 0.1 1 0 0 \$0-sustain-send \$0-sustain-recv
SUSTAIN -2 -8 0 10 #dcdcdc #000000 #000000 0 1;
#X obj 16 167 hsl 128 12 0.1 1 0 0 \$0-release-send \$0-release-recv
RELEASE -2 -8 0 10 #dcdcdc #000000 #000000 0 1;
#N canvas 0 0 1920 997 ADSR 0;
#X obj 470 123 inlet VELOCITY;
#X obj 582 123 inlet ENV-DURATION;
#X obj 728 123 inlet ATTACK;
#X obj 826 123 inlet DECAY;
#X obj 919 123 inlet SUSTAIN;
#X obj 1027 123 inlet RELEASE;
#X obj 470 195 sel 0;
#X obj 521 239 t b b f;
#X msg 470 326 0;
#X obj 557 267 delay 10;
#X obj 557 291 f;
#X msg 521 326 1;
#X obj 727 221 *;
#X obj 831 220 *;
#X obj 925 222 *;
#X obj 1028 220 *;
#X obj 728 175 t b f;
#X obj 826 175 t b f;
#X obj 919 173 t b f;
#X obj 1027 173 t b f;
#X obj 557 325 / 127;
#X obj 727 425 spigot 0;
#X obj 831 426 spigot 0;
#X obj 727 465 t f b f;
#X obj 750 502 delay 10;
#X obj 831 466 f;
#X obj 632 501 pack f f;
#X obj 632 584 line~;
#X obj 831 501 pack f f;
#X obj 949 502 pack f f;
#X obj 633 667 outlet~ OUT;
#X obj 732 668 outlet~ ENV;
#X connect 0 0 6 0;
#X connect 1 0 12 0;
#X connect 1 0 13 0;
#X connect 1 0 15 0;
#X connect 2 0 16 0;
#X connect 3 0 17 0;
#X connect 4 0 18 0;
#X connect 5 0 19 0;
#X connect 6 0 8 0;
#X connect 6 1 7 0;
#X connect 7 0 11 0;
#X connect 7 1 9 0;
#X connect 7 2 10 1;
#X connect 8 0 21 1;
#X connect 8 0 22 1;
#X connect 8 0 29 0;
#X connect 9 0 10 0;
#X connect 10 0 20 0;
#X connect 11 0 21 1;
#X connect 11 0 22 1;
#X connect 12 0 21 0;
#X connect 13 0 22 0;
#X connect 14 0 25 1;
#X connect 15 0 29 1;
#X connect 16 0 12 0;
#X connect 16 1 12 1;
#X connect 17 0 13 0;
#X connect 17 1 13 1;
#X connect 18 0 14 0;
#X connect 18 1 14 1;
#X connect 19 0 15 0;
#X connect 19 1 15 1;
#X connect 20 0 14 0;
#X connect 20 0 26 0;
#X connect 21 0 23 0;
#X connect 22 0 28 1;
#X connect 23 0 26 1;
#X connect 23 1 24 0;
#X connect 23 2 24 1;
#X connect 24 0 25 0;
#X connect 25 0 28 0;
#X connect 26 0 27 0;
#X connect 27 0 30 0;
#X connect 27 0 31 0;
#X connect 28 0 27 0;
#X connect 29 0 27 0;
#X restore 623 418 pd ADSR;
#X obj 623 166 inlet VEL;
#X obj 661 273 r \$0-duration-send;
#X obj 700 300 r \$0-attack-send;
#X obj 738 325 r \$0-decay-send;
#X obj 777 350 r \$0-sustain-send;
#X obj 816 371 r \$0-release-send;
#X obj 508 166 inlet~ SND;
#X obj 604 571 *~;
#X obj 603 612 outlet~ OUT;
#X obj 816 610 outlet~ ENV;
#X msg 296 263 compatibility 0.47;
#X msg 296 302 send pd;
#X obj 296 224 loadbang;
#X connect 10 0 18 1;
#X connect 10 1 20 0;
#X connect 11 0 10 0;
#X connect 12 0 10 1;
#X connect 13 0 10 2;
#X connect 14 0 10 3;
#X connect 15 0 10 4;
#X connect 16 0 10 5;
#X connect 17 0 18 0;
#X connect 18 0 19 0;
#X connect 21 0 22 0;
#X connect 23 0 21 0;
#X coords 0 -1 1 1 150 200 2 5 5;
