#N canvas 0 0 1904 976 12;
#X obj 7 7 cnv 15 146 196 empty empty CLAP 0 20 0 14 #a8d0b4 #000000
0;
#X obj 7 7 cnv 5 18 10 empty empty CLK 0 5 0 10 #a8d0b4 #000000 0;
#X obj 7 193 cnv 5 18 10 empty empty OUT 0 5 0 10 #a8d0b4 #000000 0
;
#X obj 71 36 bng 15 250 50 0 \$0-manual-send \$0-manual-recv MANUAL
17 7 0 10 #dcdcdc #000000 #000000;
#X obj 18 67 hsl 128 12 50 5000 1 0 \$0-cutoff-send \$0-cutoff-recv
CUTOFF -2 -8 0 10 #dcdcdc #000000 #000000 0 1;
#X obj 427 137 bng 15 250 50 0 empty empty empty 17 7 0 10 #fcfcfc
#000000 #000000;
#X obj 428 462 outlet~ OUT;
#X obj 18 93 hsl 128 12 50 5000 1 0 \$0-width-send \$0-width-recv WIDTH
-2 -8 0 10 #dcdcdc #000000 #000000 0 1;
#X obj 18 119 hsl 128 12 2 40 1 0 \$0-delay-send \$0-delay-recv DELAY
-2 -8 0 10 #dcdcdc #000000 #000000 0 1;
#X obj 18 147 hsl 128 12 1 50 1 0 \$0-decay-send \$0-decay-recv DECAY
-2 -8 0 10 #dcdcdc #000000 #000000 0 1;
#X obj 395 65 inlet CLK;
#X obj 427 106 r \$0-manual-send;
#N canvas 42 87 470 441 CLAP-SYNTH 0;
#X obj 97 154 noise~;
#X obj 79 385 outlet~;
#X obj 98 222 lop~;
#X obj 98 187 hip~;
#X obj 79 353 *~;
#X obj 184 148 t b f;
#X obj 161 184 + 500;
#X obj 123 30 inlet CUTOFF;
#X obj 222 29 inlet WIDTH;
#X obj 321 31 inlet DELAY;
#X obj 413 30 inlet DECAY;
#X obj 31 31 inlet TRIG;
#N canvas 0 23 811 499 MULTI-ENV 0;
#X floatatom 429 322 5 0 0 1 Decay - -, f 5;
#X obj 197 220 del 40;
#X obj 253 277 del 40;
#X obj 328 320 del 40;
#X obj 120 417 *~ 0.25;
#X obj 125 377 *~;
#X obj 195 375 *~;
#X obj 430 349 * 5;
#X obj 524 323 t b f;
#X obj 253 378 *~;
#X obj 327 381 *~;
#X obj 372 78 * 5;
#X text 428 370 final delay is stretched out by a factor of [decay]
;
#X obj 123 101 inlet TRIG;
#X obj 372 52 inlet DELAY;
#X obj 524 287 inlet DECAY;
#X obj 120 438 outlet~ OUT;
#N canvas 108 29 450 300 ENV2 0;
#X obj 38 155 line~;
#X obj 29 204 *~;
#X msg 37 105 0;
#X obj 37 126 pack 0 200;
#X obj 37 84 del 2;
#X obj 37 63 t b b, f 14;
#X msg 121 127 1 0;
#X obj 187 61 inlet DECAY;
#X obj 37 37 inlet TRIG;
#X obj 29 225 outlet~ OUT;
#X connect 0 0 1 0;
#X connect 0 0 1 1;
#X connect 1 0 9 0;
#X connect 2 0 3 0;
#X connect 3 0 0 0;
#X connect 4 0 2 0;
#X connect 5 0 4 0;
#X connect 5 1 6 0;
#X connect 6 0 0 0;
#X connect 7 0 3 1;
#X connect 8 0 5 0;
#X restore 124 353 pd ENV2;
#N canvas 108 29 450 300 ENV2 0;
#X obj 38 155 line~;
#X obj 29 204 *~;
#X msg 37 105 0;
#X obj 37 126 pack 0 200;
#X obj 37 84 del 2;
#X obj 37 63 t b b, f 14;
#X msg 121 127 1 0;
#X obj 187 61 inlet DECAY;
#X obj 37 37 inlet TRIG;
#X obj 29 225 outlet~ OUT;
#X connect 0 0 1 0;
#X connect 0 0 1 1;
#X connect 1 0 9 0;
#X connect 2 0 3 0;
#X connect 3 0 0 0;
#X connect 4 0 2 0;
#X connect 5 0 4 0;
#X connect 5 1 6 0;
#X connect 6 0 0 0;
#X connect 7 0 3 1;
#X connect 8 0 5 0;
#X restore 197 350 pd ENV2;
#N canvas 108 29 450 300 ENV2 0;
#X obj 38 155 line~;
#X obj 29 204 *~;
#X msg 37 105 0;
#X obj 37 126 pack 0 200;
#X obj 37 84 del 2;
#X obj 37 63 t b b, f 14;
#X msg 121 127 1 0;
#X obj 187 61 inlet DECAY;
#X obj 37 37 inlet TRIG;
#X obj 29 225 outlet~ OUT;
#X connect 0 0 1 0;
#X connect 0 0 1 1;
#X connect 1 0 9 0;
#X connect 2 0 3 0;
#X connect 3 0 0 0;
#X connect 4 0 2 0;
#X connect 5 0 4 0;
#X connect 5 1 6 0;
#X connect 6 0 0 0;
#X connect 7 0 3 1;
#X connect 8 0 5 0;
#X restore 254 351 pd ENV2;
#N canvas 108 29 450 300 ENV2 0;
#X obj 38 155 line~;
#X obj 29 204 *~;
#X msg 37 105 0;
#X obj 37 126 pack 0 200;
#X obj 37 84 del 2;
#X obj 37 63 t b b, f 14;
#X msg 121 127 1 0;
#X obj 187 61 inlet DECAY;
#X obj 37 37 inlet TRIG;
#X obj 29 225 outlet~ OUT;
#X connect 0 0 1 0;
#X connect 0 0 1 1;
#X connect 1 0 9 0;
#X connect 2 0 3 0;
#X connect 3 0 0 0;
#X connect 4 0 2 0;
#X connect 5 0 4 0;
#X connect 5 1 6 0;
#X connect 6 0 0 0;
#X connect 7 0 3 1;
#X connect 8 0 5 0;
#X restore 325 351 pd ENV2;
#X connect 0 0 7 0;
#X connect 0 0 17 1;
#X connect 0 0 18 1;
#X connect 0 0 19 1;
#X connect 1 0 2 0;
#X connect 1 0 18 0;
#X connect 2 0 3 0;
#X connect 2 0 19 0;
#X connect 3 0 20 0;
#X connect 4 0 16 0;
#X connect 5 0 4 0;
#X connect 6 0 4 0;
#X connect 7 0 20 1;
#X connect 8 0 7 0;
#X connect 8 1 7 1;
#X connect 9 0 4 0;
#X connect 10 0 4 0;
#X connect 11 0 0 0;
#X connect 13 0 1 0;
#X connect 13 0 17 0;
#X connect 14 0 11 0;
#X connect 14 0 1 1;
#X connect 14 0 2 1;
#X connect 14 0 3 1;
#X connect 15 0 8 0;
#X connect 17 0 5 0;
#X connect 17 0 5 1;
#X connect 18 0 6 0;
#X connect 18 0 6 1;
#X connect 19 0 9 0;
#X connect 19 0 9 1;
#X connect 20 0 10 0;
#X restore 78 293 pd MULTI-ENV;
#X connect 0 0 3 0;
#X connect 2 0 4 1;
#X connect 3 0 2 0;
#X connect 4 0 1 0;
#X connect 5 0 6 0;
#X connect 5 1 6 1;
#X connect 6 0 2 1;
#X connect 7 0 3 1;
#X connect 7 0 6 0;
#X connect 8 0 5 0;
#X connect 9 0 12 1;
#X connect 10 0 12 2;
#X connect 11 0 12 0;
#X connect 12 0 4 0;
#X restore 427 391 pd CLAP-SYNTH;
#X obj 534 294 r \$0-cutoff-send;
#X obj 642 260 r \$0-width-send;
#X obj 750 223 r \$0-delay-send;
#X obj 858 190 r \$0-decay-send;
#X msg 238 320 compatibility 0.47;
#X msg 238 359 send pd;
#X obj 238 281 loadbang;
#X connect 5 0 12 0;
#X connect 10 0 5 0;
#X connect 11 0 5 0;
#X connect 12 0 6 0;
#X connect 13 0 12 1;
#X connect 14 0 12 2;
#X connect 15 0 12 3;
#X connect 16 0 12 4;
#X connect 17 0 18 0;
#X connect 19 0 17 0;
#X coords 0 -1 1 1 150 200 2 5 5;
