#N canvas 0 0 1904 976 12;
#X obj 7 7 cnv 15 146 196 empty empty CYMBAL 0 20 0 14 #a8d0b4 #000000
0;
#X obj 7 7 cnv 5 18 10 empty empty CLK 0 5 0 10 #a8d0b4 #000000 0;
#X obj 7 193 cnv 5 18 10 empty empty OUT 0 5 0 10 #a8d0b4 #000000 0
;
#X obj 71 36 bng 15 250 50 0 \$0-manual-send \$0-manual-recv MANUAL
17 7 0 10 #dcdcdc #000000 #000000;
#X obj 16 94 hsl 128 12 50 2000 1 0 \$0-decay-send \$0-decay-recv DECAY
-2 -8 0 10 #dcdcdc #000000 #000000 0 1;
#X obj 427 128 bng 15 250 50 0 empty empty empty 17 7 0 10 #fcfcfc
#000000 #000000;
#X obj 426 462 outlet~ OUT;
#X obj 16 120 hsl 128 12 100 1000 1 0 \$0-pitch-send \$0-pitch-recv
PITCH -2 -8 0 10 #dcdcdc #000000 #000000 0 1;
#X obj 395 65 inlet CLK;
#X obj 427 106 r \$0-manual-send;
#N canvas 831 174 645 536 CYMBAL-SYNTH 0;
#X obj 161 56 noise~;
#X obj 161 258 *~;
#X obj 121 54 bng 15 250 50 0 empty empty empty 17 7 0 10 #fcfcfc #000000
#000000;
#X obj 161 117 *~;
#X obj 193 301 delread~ \$0-del 5;
#X obj 31 296 delwrite~ \$0-del 10;
#X obj 161 343 *~ 0.5;
#X obj 413 161 *~ 1;
#X obj 461 65 loadbang;
#X msg 461 86 220;
#X obj 121 26 inlet TRIG;
#X obj 310 24 inlet DECAY;
#X obj 413 22 inlet PITCH;
#N canvas 0 0 1920 997 FILTERS 0;
#X obj 43 248 biquad~ 1.86507 -0.892661 0.894294 -1.78859 0.894294
;
#X obj 41 124 biquad~ 0.88843 -0.568945 0.614344 -1.22869 0.614344
;
#X obj 42 201 biquad~ 0.88843 -0.568945 0.614344 -1.22869 0.614344
;
#X obj 42 81 biquad~ 0.638282 -0.176456 0.134544 0.269087 0.134544
;
#X text 217 106 6800Hz resonant hipass \, Q=1.5;
#X text 210 53 7000Hz resonant lowpass \, Q=0.6;
#X text 220 182 6800Hz resonant hipass \, Q=1.5;
#X text 228 230 1200Hz resonant hipass \, Q=1.5;
#X obj 42 37 inlet~ IN;
#X obj 44 271 outlet~ OUT;
#X connect 0 0 9 0;
#X connect 1 0 2 0;
#X connect 2 0 0 0;
#X connect 3 0 1 0;
#X connect 8 0 3 0;
#X restore 161 163 pd FILTERS;
#N canvas 0 23 305 203 NOISE-ENV 0;
#X obj 72 141 line~;
#X msg 72 117 1 \, 0.6 \$1;
#X obj 72 72 f 250;
#X obj 72 93 * 0.5;
#X obj 72 43 inlet TRIG;
#X obj 159 44 inlet DECAY;
#X obj 73 171 outlet~ OUT;
#X connect 0 0 6 0;
#X connect 1 0 0 0;
#X connect 2 0 3 0;
#X connect 3 0 1 0;
#X connect 4 0 2 0;
#X connect 5 0 2 1;
#X restore 198 102 pd NOISE-ENV;
#N canvas 0 23 305 203 VOL-ENV 0;
#X obj 74 76 f 250;
#X obj 76 126 vline~;
#X msg 76 105 1 2 \, 0.4 \$1 2 \, 0 \$1 \$1;
#X obj 72 43 inlet TRIG;
#X obj 156 43 inlet DECAY;
#X obj 76 148 outlet~ OUT;
#X connect 0 0 2 0;
#X connect 1 0 5 0;
#X connect 2 0 1 0;
#X connect 3 0 0 0;
#X connect 4 0 0 1;
#X restore 179 234 pd VOL-ENV;
#N canvas 0 23 858 387 6-PULSE-OSC 0;
#X obj 26 156 phasor~;
#X obj 26 177 expr~ $v1 > 0.55;
#X obj 26 232 *~ 0.9;
#X obj 149 121 * 1.342;
#X obj 149 156 phasor~;
#X obj 149 177 expr~ $v1 > 0.55;
#X obj 274 156 phasor~;
#X obj 274 177 expr~ $v1 > 0.55;
#X obj 399 156 phasor~;
#X obj 399 177 expr~ $v1 > 0.55;
#X obj 528 156 phasor~;
#X obj 528 177 expr~ $v1 > 0.55;
#X obj 658 156 phasor~;
#X obj 658 177 expr~ $v1 > 0.55;
#X obj 274 123 * 1.2312;
#X obj 399 121 * 1.6532;
#X obj 528 122 * 1.9523;
#X obj 657 120 * 2.1523;
#X obj 26 37 inlet PITCH;
#X obj 26 253 outlet~ OUT;
#X connect 0 0 1 0;
#X connect 1 0 2 0;
#X connect 2 0 19 0;
#X connect 3 0 4 0;
#X connect 4 0 5 0;
#X connect 5 0 2 0;
#X connect 6 0 7 0;
#X connect 7 0 2 0;
#X connect 8 0 9 0;
#X connect 9 0 2 0;
#X connect 10 0 11 0;
#X connect 11 0 2 0;
#X connect 12 0 13 0;
#X connect 13 0 2 0;
#X connect 14 0 6 0;
#X connect 15 0 8 0;
#X connect 16 0 10 0;
#X connect 17 0 12 0;
#X connect 18 0 3 0;
#X connect 18 0 17 0;
#X connect 18 0 16 0;
#X connect 18 0 15 0;
#X connect 18 0 14 0;
#X connect 18 0 0 0;
#X restore 413 123 pd 6-PULSE-OSC;
#X obj 161 377 outlet~ OUT;
#X connect 0 0 3 0;
#X connect 1 0 5 0;
#X connect 1 0 6 0;
#X connect 2 0 14 0;
#X connect 2 0 15 0;
#X connect 3 0 13 0;
#X connect 4 0 6 0;
#X connect 6 0 17 0;
#X connect 7 0 13 0;
#X connect 8 0 9 0;
#X connect 9 0 16 0;
#X connect 10 0 2 0;
#X connect 11 0 14 1;
#X connect 11 0 15 1;
#X connect 12 0 16 0;
#X connect 13 0 1 0;
#X connect 14 0 3 1;
#X connect 15 0 1 1;
#X connect 16 0 7 0;
#X restore 427 346 pd CYMBAL-SYNTH;
#X obj 513 308 r \$0-decay-send;
#X obj 600 275 r \$0-pitch-send;
#X msg 254 320 compatibility 0.47;
#X msg 254 359 send pd;
#X obj 254 281 loadbang;
#X connect 5 0 10 0;
#X connect 8 0 5 0;
#X connect 9 0 5 0;
#X connect 10 0 6 0;
#X connect 11 0 10 1;
#X connect 12 0 10 2;
#X connect 13 0 14 0;
#X connect 15 0 13 0;
#X coords 0 -1 1 1 150 200 2 5 5;
