#N canvas 0 0 1904 976 12;
#X obj 7 7 cnv 15 146 196 empty empty DELAY 0 20 0 14 #a8d0b4 #000000
0;
#X obj 7 7 cnv 5 18 10 empty empty SND 0 5 0 10 #a8d0b4 #000000 0;
#X obj 7 193 cnv 5 18 10 empty empty OUT 0 5 0 10 #a8d0b4 #000000 0
;
#X obj 17 50 hsl 128 12 0 1 0 0 \$0-gain-send \$0-gain-recv GAIN -2
-8 0 10 #dcdcdc #000000 #000000 0 1;
#X obj 17 78 hsl 128 12 0 1 0 0 \$0-vol-send \$0-vol-recv VOL -2 -8
0 10 #dcdcdc #000000 #000000 0 1;
#X obj 17 106 hsl 128 12 0 5000 0 0 \$0-delaytime-send \$0-delaytime-recv
DELAY-TIME -2 -8 0 10 #dcdcdc #000000 #000000 0 1;
#X obj 17 134 hsl 128 12 0 1 0 0 \$0-delayvol-send \$0-delayvol-recv
DELAY-VOL -2 -8 0 10 #dcdcdc #000000 #000000 0 1;
#X obj 17 163 hsl 128 12 0 1 0 0 \$0-feedback-send \$0-feedback-recv
FEEDBACK -2 -8 0 10 #dcdcdc #000000 #000000 0 1;
#X obj 673 165 inlet~ SND;
#X obj 672 312 *~;
#X obj 690 261 pack f 50;
#X obj 690 285 line~;
#X obj 690 233 r \$0-gain-send;
#X obj 673 553 *~;
#X obj 692 501 pack f 50;
#X obj 692 525 line~;
#X obj 692 473 r \$0-vol-send;
#X obj 674 598 outlet~ OUT;
#X obj 820 355 delwrite~ \$0-buffer 5000;
#X obj 820 418 delread~ \$0-buffer 0;
#X obj 820 387 r \$0-delaytime-send;
#X obj 821 535 *~;
#X obj 839 484 pack f 50;
#X obj 839 508 line~;
#X obj 839 456 r \$0-delayvol-send;
#X obj 852 623 *~;
#X obj 870 572 pack f 50;
#X obj 870 596 line~;
#X obj 870 544 r \$0-feedback-send;
#X obj 820 325 r~ \$0-feedback-sig;
#X obj 853 656 s~ \$0-feedback-sig;
#X msg 452 511 compatibility 0.47;
#X msg 452 550 send pd;
#X obj 452 472 loadbang;
#X connect 8 0 9 0;
#X connect 9 0 13 0;
#X connect 9 0 18 0;
#X connect 10 0 11 0;
#X connect 11 0 9 1;
#X connect 12 0 10 0;
#X connect 13 0 17 0;
#X connect 14 0 15 0;
#X connect 15 0 13 1;
#X connect 16 0 14 0;
#X connect 19 0 21 0;
#X connect 19 0 25 0;
#X connect 20 0 19 0;
#X connect 21 0 17 0;
#X connect 22 0 23 0;
#X connect 23 0 21 1;
#X connect 24 0 22 0;
#X connect 25 0 30 0;
#X connect 26 0 27 0;
#X connect 27 0 25 1;
#X connect 28 0 26 0;
#X connect 29 0 18 0;
#X connect 31 0 32 0;
#X connect 33 0 31 0;
#X coords 0 -1 1 1 150 200 2 5 5;
