#N canvas 0 0 1920 992 12;
#X obj 7 7 cnv 15 146 196 empty empty DETUNER 0 20 0 14 #a8d0b4 #000000
0;
#X obj 7 7 cnv 5 18 10 empty empty PCH 0 5 0 10 #a8d0b4 #000000 0;
#X obj 47 193 cnv 5 18 10 empty empty DN2 0 5 0 10 #a8d0b4 #000000
0;
#X obj 7 193 cnv 5 18 10 empty empty DN1 0 5 0 10 #a8d0b4 #000000 0
;
#X obj 93 193 cnv 5 18 10 empty empty DN3 0 5 0 10 #a8d0b4 #000000
0;
#X obj 135 193 cnv 5 18 10 empty empty DN4 0 5 0 10 #a8d0b4 #000000
0;
#X obj 43 54 nbx 5 20 0.1 3.5 0 0 \$0-detunea-send \$0-detunea-recv
DETUNE-A 0 -8 0 10 #dcdcdc #000000 #000000 0.1 256 1;
#X obj 43 90 nbx 5 20 0.1 3.5 0 0 \$0-detuneb-send \$0-detuneb-recv
DETUNE-B 0 -8 0 10 #dcdcdc #000000 #000000 0.1 256 1;
#X obj 43 125 nbx 5 20 0.1 3.5 0 0 \$0-detunec-send \$0-detunec-recv
DETUNE-C 0 -8 0 10 #dcdcdc #000000 #000000 0.1 256 1;
#X obj 43 160 nbx 5 20 0.1 3.5 0 0 \$0-detuned-send \$0-detuned-recv
DETUNE-D 0 -8 0 10 #dcdcdc #000000 #000000 0.1 256 1;
#X obj 687 247 inlet PCH;
#X obj 678 387 * 0.1;
#X obj 710 352 r \$0-detunea-send;
#X obj 842 393 * 0.1;
#X obj 874 357 r \$0-detuneb-send;
#X obj 1007 397 * 0.1;
#X obj 1039 361 r \$0-detunec-send;
#X obj 1174 398 * 0.1;
#X obj 1206 362 r \$0-detuned-send;
#X obj 678 558 outlet DN1;
#X obj 842 559 outlet DN2;
#X obj 1007 559 outlet DN3;
#X obj 1174 560 outlet DN4;
#X msg 432 342 compatibility 0.47;
#X msg 432 381 send pd;
#X obj 432 303 loadbang;
#X connect 10 0 11 0;
#X connect 10 0 13 0;
#X connect 10 0 15 0;
#X connect 10 0 17 0;
#X connect 11 0 19 0;
#X connect 12 0 11 1;
#X connect 13 0 20 0;
#X connect 14 0 13 1;
#X connect 15 0 21 0;
#X connect 16 0 15 1;
#X connect 17 0 22 0;
#X connect 18 0 17 1;
#X connect 23 0 24 0;
#X connect 25 0 23 0;
#X coords 0 -1 1 1 150 200 2 5 5;
