#N canvas 0 0 1904 976 12;
#X obj 7 7 cnv 15 146 196 empty empty DUAL-FOLDER 0 20 0 14 #a8d0b4
#000000 0;
#X obj 7 7 cnv 5 18 10 empty empty CH1 0 5 0 10 #a8d0b4 #000000 0;
#X obj 7 193 cnv 5 24 10 empty empty OUT1 0 5 0 10 #a8d0b4 #000000
0;
#X obj 17 61 hsl 128 12 1 7 0 0 \$0-folddepthch1-send \$0-folddepthch1-recv
FOLD-DEPTH-CH1 -2 -8 0 10 #dcdcdc #000000 #000000 0 1;
#X obj 17 121 hsl 128 12 0 1 0 0 \$0-gainch1-send \$0-gainch1-recv
GAIN-CH1 -2 -8 0 10 #dcdcdc #000000 #000000 0 1;
#X obj 557 686 *~;
#X obj 575 632 pack f 50;
#X obj 575 660 line~;
#X obj 556 276 *~;
#X obj 135 7 cnv 5 18 10 empty empty CH2 0 5 0 10 #a8d0b4 #000000 0
;
#X obj 17 90 hsl 128 12 1 7 0 0 \$0-folddepthch2-send \$0-folddepthch2-recv
FOLD-DEPTH-CH2 -2 -8 0 10 #dcdcdc #000000 #000000 0 1;
#X obj 17 152 hsl 128 12 0 1 0 0 \$0-gainch2-send \$0-gainch2-recv
GAIN-CH2 -2 -8 0 10 #dcdcdc #000000 #000000 0 1;
#X obj 575 603 r \$0-gainch1-send;
#X obj 556 112 inlet~ CH1;
#X obj 556 731 outlet~ OUT1;
#X obj 129 193 cnv 5 24 10 empty empty OUT2 0 5 0 10 #a8d0b4 #000000
0;
#X obj 69 193 cnv 5 18 10 empty empty MIX 0 5 0 10 #a8d0b4 #000000
0;
#X obj 954 691 *~;
#X obj 972 637 pack f 50;
#X obj 972 665 line~;
#X obj 955 281 *~;
#X obj 760 733 outlet~ MIX;
#X obj 953 736 outlet~ OUT2;
#X obj 955 117 inlet~ CH2;
#X obj 972 608 r \$0-gainch2-send;
#X obj 574 228 pack f 50;
#X obj 574 252 line~;
#X obj 974 232 pack f 50;
#X obj 974 256 line~;
#X obj 557 313 expr~ if($v1 > 1 \, 2-$v1 \, $v1);
#X obj 558 341 expr~ if($v1 < -1 \, -2-$v1 \, $v1);
#X obj 557 376 expr~ if($v1 > 1 \, 2-$v1 \, $v1);
#X obj 558 404 expr~ if($v1 < -1 \, -2-$v1 \, $v1);
#X obj 954 312 expr~ if($v1 > 1 \, 2-$v1 \, $v1);
#X obj 955 340 expr~ if($v1 < -1 \, -2-$v1 \, $v1);
#X obj 954 375 expr~ if($v1 > 1 \, 2-$v1 \, $v1);
#X obj 955 403 expr~ if($v1 < -1 \, -2-$v1 \, $v1);
#X obj 574 202 r \$0-folddepthch1-send;
#X obj 974 204 r \$0-folddepthch2-send;
#X msg 297 317 compatibility 0.47;
#X msg 297 356 send pd;
#X obj 297 278 loadbang;
#X connect 5 0 14 0;
#X connect 5 0 21 0;
#X connect 6 0 7 0;
#X connect 7 0 5 1;
#X connect 8 0 29 0;
#X connect 12 0 6 0;
#X connect 13 0 8 0;
#X connect 17 0 21 0;
#X connect 17 0 22 0;
#X connect 18 0 19 0;
#X connect 19 0 17 1;
#X connect 20 0 33 0;
#X connect 23 0 20 0;
#X connect 24 0 18 0;
#X connect 25 0 26 0;
#X connect 26 0 8 1;
#X connect 27 0 28 0;
#X connect 28 0 20 1;
#X connect 29 0 30 0;
#X connect 30 0 31 0;
#X connect 31 0 32 0;
#X connect 32 0 5 0;
#X connect 33 0 34 0;
#X connect 34 0 35 0;
#X connect 35 0 36 0;
#X connect 36 0 17 0;
#X connect 37 0 25 0;
#X connect 38 0 27 0;
#X connect 39 0 40 0;
#X connect 41 0 39 0;
#X coords 0 -1 1 1 150 200 2 5 5;
