#N canvas 0 0 1904 976 12;
#X obj 7 7 cnv 15 146 196 empty empty DUAL-VCA 0 20 0 14 #a8d0b4 #000000
0;
#X obj 7 7 cnv 5 18 10 empty empty CH1 0 5 0 10 #a8d0b4 #000000 0;
#X obj 135 7 cnv 5 18 10 empty empty CV2 0 5 0 10 #a8d0b4 #000000 0
;
#X obj 7 193 cnv 5 24 10 empty empty OUT1 0 5 0 10 #a8d0b4 #000000
0;
#X obj 17 60 hsl 128 12 0 1 0 0 \$0-ampch1-send \$0-ampch1-recv AMP-CH1
-2 -8 0 10 #dcdcdc #000000 #000000 0 1;
#X obj 17 87 hsl 128 12 0 1 0 0 \$0-cv1-send \$0-cv1-recv CV1 -2 -8
0 10 #dcdcdc #000000 #000000 0 1;
#X obj 367 107 inlet~ CH1;
#X obj 368 387 *~;
#X obj 384 263 pack f 50;
#X obj 384 301 line~;
#X obj 385 347 +~;
#X obj 509 340 *~;
#X obj 528 262 pack f 50;
#X obj 528 300 line~;
#X obj 16 114 hsl 128 12 0 1 0 0 \$0-ampch2-send \$0-ampch2-recv AMP-CH2
-2 -8 0 10 #dcdcdc #000000 #000000 0 1;
#X obj 16 142 hsl 128 12 0 1 0 0 \$0-cv2-send \$0-cv2-recv CV2 -2 -8
0 10 #dcdcdc #000000 #000000 0 1;
#X obj 95 7 cnv 5 18 10 empty empty CH2 0 5 0 10 #a8d0b4 #000000 0
;
#X obj 47 7 cnv 5 18 10 empty empty CV1 0 5 0 10 #a8d0b4 #000000 0
;
#X obj 508 107 inlet~ CV1;
#X obj 528 224 r \$0-cv1-send;
#X obj 668 379 *~;
#X obj 684 255 pack f 50;
#X obj 684 293 line~;
#X obj 685 339 +~;
#X obj 815 332 *~;
#X obj 834 254 pack f 50;
#X obj 834 292 line~;
#X obj 667 99 inlet~ CH2;
#X obj 814 99 inlet~ CV2;
#X obj 834 216 r \$0-cv2-send;
#X obj 369 441 outlet~ OUT1;
#X obj 669 438 outlet~ OUT2;
#X obj 129 193 cnv 5 24 10 empty empty OUT2 1 5 0 10 #a8d0b4 #000000
0;
#X obj 684 220 r \$0-ampch2-send;
#X obj 384 228 r \$0-ampch1-send;
#X obj 69 193 cnv 5 18 10 empty empty MIX 0 5 0 10 #a8d0b4 #000000
0;
#X obj 523 442 outlet~ MIX;
#X msg 204 326 compatibility 0.47;
#X msg 204 365 send pd;
#X obj 204 287 loadbang;
#X connect 6 0 7 0;
#X connect 7 0 30 0;
#X connect 7 0 36 0;
#X connect 8 0 9 0;
#X connect 9 0 10 0;
#X connect 10 0 7 1;
#X connect 11 0 10 1;
#X connect 12 0 13 0;
#X connect 13 0 11 1;
#X connect 18 0 11 0;
#X connect 19 0 12 0;
#X connect 20 0 31 0;
#X connect 20 0 36 0;
#X connect 21 0 22 0;
#X connect 22 0 23 0;
#X connect 23 0 20 1;
#X connect 24 0 23 1;
#X connect 25 0 26 0;
#X connect 26 0 24 1;
#X connect 27 0 20 0;
#X connect 28 0 24 0;
#X connect 29 0 25 0;
#X connect 33 0 21 0;
#X connect 34 0 8 0;
#X connect 37 0 38 0;
#X connect 39 0 37 0;
#X coords 0 -1 1 1 150 200 2 5 5;
