#N canvas 0 0 1904 976 12;
#X obj 7 7 cnv 15 146 196 empty empty DUAL-CRUSHER 0 20 0 14 #a8d0b4
#000000 0;
#X obj 7 7 cnv 5 18 10 empty empty CH1 0 5 0 10 #a8d0b4 #000000 0;
#X obj 7 193 cnv 5 24 10 empty empty OUT1 0 5 0 10 #a8d0b4 #000000
0;
#X obj 17 61 hsl 128 12 1 16 0 0 \$0-bitdepthch1-send \$0-bitdepthch1-recv
BIT-DEPTH-CH1 -2 -8 0 10 #dcdcdc #000000 #000000 0 1;
#X obj 17 121 hsl 128 12 0 1 0 0 \$0-gainch1-send \$0-gainch1-recv
GAIN-CH1 -2 -8 0 10 #dcdcdc #000000 #000000 0 1;
#X obj 556 397 *~;
#X obj 574 343 pack f 50;
#X obj 574 371 line~;
#X obj 556 276 *~;
#X obj 557 245 expr~ round($v1 / $f2);
#X obj 717 107 int;
#X obj 717 142 expr pow(2 \, $f1) - 1;
#X obj 717 169 expr 1 / $f1;
#X obj 135 7 cnv 5 18 10 empty empty CH2 0 5 0 10 #a8d0b4 #000000 0
;
#X obj 17 90 hsl 128 12 1 16 0 0 \$0-bitdepthch2-send \$0-bitdepthch2-recv
BIT-DEPTH-CH2 -2 -8 0 10 #dcdcdc #000000 #000000 0 1;
#X obj 17 152 hsl 128 12 0 1 0 0 \$0-gainch2-send \$0-gainch2-recv
GAIN-CH2 -2 -8 0 10 #dcdcdc #000000 #000000 0 1;
#X obj 717 78 r \$0-bitdepthch1-send;
#X obj 574 314 r \$0-gainch1-send;
#X obj 556 112 inlet~ CH1;
#X obj 555 442 outlet~ OUT1;
#X obj 129 193 cnv 5 24 10 empty empty OUT2 0 5 0 10 #a8d0b4 #000000
0;
#X obj 69 193 cnv 5 18 10 empty empty MIX 0 5 0 10 #a8d0b4 #000000
0;
#X obj 955 402 *~;
#X obj 973 348 pack f 50;
#X obj 973 376 line~;
#X obj 955 281 *~;
#X obj 956 250 expr~ round($v1 / $f2);
#X obj 1116 112 int;
#X obj 1116 147 expr pow(2 \, $f1) - 1;
#X obj 1116 174 expr 1 / $f1;
#X obj 761 444 outlet~ MIX;
#X obj 954 447 outlet~ OUT2;
#X obj 955 117 inlet~ CH2;
#X obj 1116 83 r \$0-bitdepthch2-send;
#X obj 973 319 r \$0-gainch2-send;
#X obj 913 49 loadbang;
#X msg 913 85 1;
#X msg 275 305 compatibility 0.47;
#X msg 275 344 send pd;
#X obj 275 266 loadbang;
#X connect 5 0 19 0;
#X connect 5 0 30 0;
#X connect 6 0 7 0;
#X connect 7 0 5 1;
#X connect 8 0 5 0;
#X connect 9 0 8 0;
#X connect 10 0 11 0;
#X connect 11 0 12 0;
#X connect 12 0 9 1;
#X connect 12 0 8 1;
#X connect 16 0 10 0;
#X connect 17 0 6 0;
#X connect 18 0 9 0;
#X connect 22 0 30 0;
#X connect 22 0 31 0;
#X connect 23 0 24 0;
#X connect 24 0 22 1;
#X connect 25 0 22 0;
#X connect 26 0 25 0;
#X connect 27 0 28 0;
#X connect 28 0 29 0;
#X connect 29 0 26 1;
#X connect 29 0 25 1;
#X connect 32 0 26 0;
#X connect 33 0 27 0;
#X connect 34 0 23 0;
#X connect 35 0 36 0;
#X connect 36 0 9 1;
#X connect 36 0 26 1;
#X connect 37 0 38 0;
#X connect 39 0 37 0;
#X coords 0 -1 1 1 150 200 2 5 5;
