#N canvas 0 0 1904 976 12;
#X obj 7 7 cnv 15 146 196 empty empty FILTER 0 20 0 14 #a8d0b4 #000000
0;
#X obj 7 7 cnv 5 18 10 empty empty SND 0 5 0 10 #a8d0b4 #000000 0;
#X obj 7 193 cnv 5 18 10 empty empty BP 0 5 0 10 #a8d0b4 #000000 0
;
#X obj 17 74 hsl 128 12 1 127 0 0 \$0-cutoff-send \$0-cutoff-recv CUTOFF
-2 -8 0 10 #dcdcdc #000000 #000000 0 1;
#X obj 17 103 hsl 128 12 1 30 0 0 \$0-q-send \$0-q-recv Q -2 -8 0 10
#dcdcdc #000000 #000000 0 1;
#X obj 459 127 inlet~ SND;
#X obj 589 182 r \$0-cutoff-send;
#X obj 46 193 cnv 5 18 10 empty empty HIP 0 5 0 10 #a8d0b4 #000000
0;
#X obj 135 193 cnv 5 18 10 empty empty OUT 0 5 0 10 #a8d0b4 #000000
0;
#X obj 94 193 cnv 5 18 10 empty empty LOP 0 5 0 10 #a8d0b4 #000000
0;
#X obj 589 213 mtof;
#X obj 598 314 r \$0-q-send;
#X obj 580 346 bp~;
#X obj 579 442 outlet~ BP;
#X obj 738 184 r \$0-cutoff-send;
#X obj 738 215 mtof;
#X obj 713 348 hip~;
#X obj 712 444 outlet~ HIP;
#X obj 885 184 r \$0-cutoff-send;
#X obj 885 215 mtof;
#X obj 859 444 outlet~ LOP;
#X obj 860 348 lop~;
#X obj 991 445 outlet~ OUT;
#X msg 316 354 compatibility 0.47;
#X msg 316 393 send pd;
#X obj 316 315 loadbang;
#X connect 5 0 12 0;
#X connect 5 0 16 0;
#X connect 5 0 21 0;
#X connect 5 0 22 0;
#X connect 6 0 10 0;
#X connect 10 0 12 1;
#X connect 11 0 12 2;
#X connect 12 0 13 0;
#X connect 14 0 15 0;
#X connect 15 0 16 1;
#X connect 16 0 17 0;
#X connect 18 0 19 0;
#X connect 19 0 21 1;
#X connect 21 0 20 0;
#X connect 23 0 24 0;
#X connect 25 0 23 0;
#X coords 0 -1 1 1 150 200 2 5 5;
