#N canvas 0 0 1904 976 12;
#X obj 7 7 cnv 15 146 196 empty empty FMOD 0 20 0 14 #a8d0b4 #000000
0;
#X obj 7 7 cnv 5 18 10 empty empty CH1 0 5 0 10 #a8d0b4 #000000 0;
#X obj 7 193 cnv 5 18 10 empty empty OUT 0 5 0 10 #a8d0b4 #000000 0
;
#X obj 17 66 hsl 128 12 0 1 0 0 \$0-gainch1-send \$0-gainch1-recv GAIN-CH1
-2 -8 0 10 #dcdcdc #000000 #000000 0 1;
#X obj 17 93 hsl 128 12 10 1000 1 0 \$0-delaytime-send \$0-delaytime-recv
DELAY-TIME -2 -8 0 10 #dcdcdc #000000 #000000 0 1;
#X obj 17 120 hsl 128 12 0 2 0 0 \$0-feedbacklvl-send \$0-feedbacklvl-recv
FEEDBACK-LVL -2 -8 0 10 #dcdcdc #000000 #000000 0 1;
#X obj 17 146 hsl 128 12 0 2 0 0 \$0-vol-send \$0-vol-recv VOL -2 -8
0 10 #dcdcdc #000000 #000000 0 1;
#X obj 567 136 inlet~ CH1;
#X obj 569 650 outlet~ OUT;
#X obj 568 251 *~;
#X obj 585 192 pack f 50;
#X obj 585 225 line~;
#X obj 585 162 r \$0-gainch1-send;
#X obj 587 303 delwrite~ \$0-buffer 1000;
#X obj 660 361 delread~ \$0-buffer 10;
#X obj 660 328 r \$0-delaytime-send;
#X obj 659 495 *~;
#X obj 678 435 pack f 50;
#X obj 678 468 line~;
#X obj 678 405 r \$0-feedbacklvl-send;
#X obj 568 620 *~;
#X obj 587 560 pack f 50;
#X obj 587 593 line~;
#X obj 587 530 r \$0-vol-send;
#X msg 349 399 compatibility 0.47;
#X msg 349 438 send pd;
#X obj 349 360 loadbang;
#X connect 7 0 9 0;
#X connect 9 0 13 0;
#X connect 9 0 20 0;
#X connect 10 0 11 0;
#X connect 11 0 9 1;
#X connect 12 0 10 0;
#X connect 14 0 16 0;
#X connect 15 0 14 0;
#X connect 16 0 13 0;
#X connect 16 0 20 0;
#X connect 17 0 18 0;
#X connect 18 0 16 1;
#X connect 19 0 17 0;
#X connect 20 0 8 0;
#X connect 21 0 22 0;
#X connect 22 0 20 1;
#X connect 23 0 21 0;
#X connect 24 0 25 0;
#X connect 26 0 24 0;
#X coords 0 -1 1 1 150 200 2 5 5;
