#N canvas 0 0 1904 976 12;
#X obj 7 7 cnv 15 146 196 empty empty FMUX 0 20 0 14 #a8d0b4 #000000
0;
#X obj 7 7 cnv 5 18 10 empty empty CH1 0 5 0 10 #a8d0b4 #000000 0;
#X obj 45 7 cnv 5 18 10 empty empty CH2 0 5 0 10 #a8d0b4 #000000 0
;
#X obj 7 193 cnv 5 18 10 empty empty OUT 0 5 0 10 #a8d0b4 #000000 0
;
#X obj 93 7 cnv 5 18 10 empty empty CH3 0 5 0 10 #a8d0b4 #000000 0
;
#X obj 135 7 cnv 5 18 10 empty empty CH4 0 5 0 10 #a8d0b4 #000000 0
;
#X obj 52 75 hradio 14 1 0 4 \$0-selector-send \$0-selector-recv SELECT
0 -8 0 10 #dcdcdc #000000 #000000 0;
#X obj 546 123 inlet~ CH1;
#X obj 653 122 inlet~ CH2;
#X obj 754 123 inlet~ CH3;
#X obj 860 124 inlet~ CH4;
#X obj 565 522 line~;
#X obj 547 552 *~;
#X obj 672 524 line~;
#X obj 654 554 *~;
#X obj 772 524 line~;
#X obj 754 554 *~;
#X obj 879 526 line~;
#X obj 861 556 *~;
#X obj 1064 161 loadbang;
#X obj 696 707 outlet~ OUT;
#X obj 1255 208 r \$0-selector-send;
#X obj 1255 247 sel 0 1 2 3;
#X obj 1255 286 bng 15 250 50 0 empty empty empty 17 7 0 10 #fcfcfc
#000000 #000000;
#X obj 1273 315 bng 15 250 50 0 empty empty empty 17 7 0 10 #fcfcfc
#000000 #000000;
#X obj 1292 335 bng 15 250 50 0 empty empty empty 17 7 0 10 #fcfcfc
#000000 #000000;
#X obj 1310 356 bng 15 250 50 0 empty empty empty 17 7 0 10 #fcfcfc
#000000 #000000;
#X msg 1064 194 0;
#X msg 565 464 1 300;
#X msg 576 488 0 300;
#X msg 672 466 1 300;
#X msg 683 490 0 300;
#X msg 772 466 1 300;
#X msg 783 490 0 300;
#X msg 879 467 1 300;
#X msg 890 492 0 300;
#X msg 329 326 compatibility 0.47;
#X msg 329 365 send pd;
#X obj 329 287 loadbang;
#X connect 7 0 12 0;
#X connect 8 0 14 0;
#X connect 9 0 16 0;
#X connect 10 0 18 0;
#X connect 11 0 12 1;
#X connect 12 0 20 0;
#X connect 13 0 14 1;
#X connect 14 0 20 0;
#X connect 15 0 16 1;
#X connect 16 0 20 0;
#X connect 17 0 18 1;
#X connect 18 0 20 0;
#X connect 19 0 27 0;
#X connect 21 0 22 0;
#X connect 22 0 23 0;
#X connect 22 1 24 0;
#X connect 22 2 25 0;
#X connect 22 3 26 0;
#X connect 23 0 28 0;
#X connect 23 0 31 0;
#X connect 23 0 33 0;
#X connect 23 0 35 0;
#X connect 24 0 30 0;
#X connect 24 0 29 0;
#X connect 24 0 33 0;
#X connect 24 0 35 0;
#X connect 25 0 32 0;
#X connect 25 0 29 0;
#X connect 25 0 31 0;
#X connect 25 0 35 0;
#X connect 26 0 34 0;
#X connect 26 0 29 0;
#X connect 26 0 31 0;
#X connect 26 0 33 0;
#X connect 27 0 22 0;
#X connect 28 0 11 0;
#X connect 29 0 11 0;
#X connect 30 0 13 0;
#X connect 31 0 13 0;
#X connect 32 0 15 0;
#X connect 33 0 15 0;
#X connect 34 0 17 0;
#X connect 35 0 17 0;
#X connect 36 0 37 0;
#X connect 38 0 36 0;
#X coords 0 -1 1 1 150 200 2 5 5;
