#N canvas 0 0 1904 976 12;
#X obj 7 7 cnv 15 146 196 empty empty FOLDER 0 20 0 14 #a8d0b4 #000000
0;
#X obj 7 7 cnv 5 18 10 empty empty SND 0 5 0 10 #a8d0b4 #000000 0;
#X obj 7 193 cnv 5 18 10 empty empty OUT 0 5 0 10 #a8d0b4 #000000 0
;
#X obj 17 83 hsl 128 12 1 7 0 0 \$0-folddepth-send \$0-folddepth-recv
FOLD-DEPTH -2 -8 0 10 #dcdcdc #000000 #000000 0 1;
#X obj 17 112 hsl 128 12 0 1 0 0 \$0-gain-send \$0-gain-recv GAIN -2
-8 0 10 #dcdcdc #000000 #000000 0 1;
#X obj 556 112 inlet~ SND;
#X obj 555 665 outlet~ OUT;
#X obj 556 620 *~;
#X obj 574 566 pack f 50;
#X obj 574 594 line~;
#X obj 574 537 r \$0-gain-send;
#X obj 556 276 *~;
#X obj 575 220 pack f 50;
#X obj 575 245 line~;
#X obj 557 317 expr~ if($v1 > 1 \, 2-$v1 \, $v1);
#X obj 556 347 expr~ if($v1 < -1 \, -2-$v1 \, $v1);
#X obj 556 374 expr~ if($v1 > 1 \, 2-$v1 \, $v1);
#X obj 555 404 expr~ if($v1 < -1 \, -2-$v1 \, $v1);
#X obj 575 197 r \$0-folddepth-send;
#X msg 323 329 compatibility 0.47;
#X msg 323 368 send pd;
#X obj 323 290 loadbang;
#X connect 5 0 11 0;
#X connect 7 0 6 0;
#X connect 8 0 9 0;
#X connect 9 0 7 1;
#X connect 10 0 8 0;
#X connect 11 0 14 0;
#X connect 12 0 13 0;
#X connect 13 0 11 1;
#X connect 14 0 15 0;
#X connect 15 0 16 0;
#X connect 16 0 17 0;
#X connect 17 0 7 0;
#X connect 18 0 12 0;
#X connect 19 0 20 0;
#X connect 21 0 19 0;
#X coords 0 -1 1 1 150 200 2 5 5;
