#N canvas 0 0 1904 976 12;
#X obj 7 7 cnv 15 146 196 empty empty KICK 0 20 0 14 #a8d0b4 #000000
0;
#X obj 7 7 cnv 5 18 10 empty empty CLK 0 5 0 10 #a8d0b4 #000000 0;
#X obj 7 193 cnv 5 18 10 empty empty OUT 0 5 0 10 #a8d0b4 #000000 0
;
#X obj 71 36 bng 15 250 50 0 \$0-manual-send \$0-manual-recv MANUAL
17 7 0 10 #dcdcdc #000000 #000000;
#X obj 18 67 hsl 128 12 50 2000 1 0 \$0-decay-send \$0-decay-recv DECAY
-2 -8 0 10 #dcdcdc #000000 #000000 0 1;
#X obj 427 128 bng 15 250 50 0 empty empty empty 17 7 0 10 #fcfcfc
#000000 #000000;
#X obj 428 462 outlet~ OUT;
#X obj 18 93 hsl 128 12 0.1 3 0 0 \$0-pitchscale-send \$0-pitchscale-recv
PITCH-SCALE -2 -8 0 10 #dcdcdc #000000 #000000 0 1;
#X obj 18 119 hsl 128 12 0.1 3 0 0 \$0-filterscale-send \$0-filterscale-recv
FILTER-SCALE -2 -8 0 10 #dcdcdc #000000 #000000 0 1;
#X obj 18 147 hsl 128 12 0 2 0 0 \$0-sinescale-send \$0-sinescale-recv
SINE-SCALE -2 -8 0 10 #dcdcdc #000000 #000000 0 1;
#N canvas 0 0 1920 997 KICK-SYNTH 0;
#X obj 221 401 *~ 1;
#X obj 221 422 phasor~;
#X obj 221 107 bng 15 250 50 0 empty empty empty 17 7 0 10 #fcfcfc
#000000 #000000;
#X obj 221 448 expr~ if ($v1 > 0.5 \, 0 \, 1);
#X obj 253 477 noise~;
#X obj 221 520 vcf~ 0.5;
#X obj 199 625 *~;
#X obj 356 504 *~ 1;
#X obj 221 160 f 250;
#X obj 221 62 inlet TRIGGER;
#X obj 339 63 inlet DECAY;
#X obj 460 63 inlet PITCH-SCALE;
#X obj 629 64 inlet FILTER-SCALE;
#X obj 795 64 inlet SINE-SCALE;
#N canvas 0 23 450 300 VOL-ENV 0;
#X obj 115 145 vline~;
#X obj 115 177 *~;
#X msg 115 115 0.5 \, 1 5 \, 0.5 60 5 \, 0 \$1 65;
#X obj 115 81 inlet TRIG;
#X obj 115 198 outlet~ OUT;
#X connect 0 0 1 0;
#X connect 0 0 1 1;
#X connect 1 0 4 0;
#X connect 2 0 0 0;
#X connect 3 0 2 0;
#X restore 51 502 pd VOL-ENV;
#X obj 199 646 outlet~ OUT;
#N canvas 739 233 450 300 PITCH-ENV 0;
#X obj 36 107 vline~;
#X obj 37 210 mtof~;
#X msg 36 73 1 \, 0.5 5 \, 0 \$1 5;
#X obj 36 160 *~ 80;
#X obj 36 181 +~ 29;
#X obj 36 133 *~;
#X obj 37 37 inlet TRIG;
#X obj 37 231 outlet~ OUT;
#X connect 0 0 5 0;
#X connect 0 0 5 1;
#X connect 1 0 7 0;
#X connect 2 0 0 0;
#X connect 3 0 4 0;
#X connect 4 0 1 0;
#X connect 5 0 3 0;
#X connect 6 0 2 0;
#X restore 221 247 pd PITCH-ENV;
#X obj 356 536 osc~;
#X obj 327 413 *~ 1.5;
#X connect 0 0 1 0;
#X connect 1 0 3 0;
#X connect 2 0 8 0;
#X connect 3 0 5 0;
#X connect 4 0 5 0;
#X connect 5 1 6 1;
#X connect 6 0 15 0;
#X connect 7 0 17 0;
#X connect 8 0 14 0;
#X connect 8 0 16 0;
#X connect 9 0 2 0;
#X connect 10 0 8 1;
#X connect 11 0 0 1;
#X connect 12 0 18 1;
#X connect 13 0 7 1;
#X connect 14 0 6 0;
#X connect 16 0 0 0;
#X connect 16 0 7 0;
#X connect 16 0 18 0;
#X connect 17 0 6 1;
#X connect 18 0 5 1;
#X restore 427 377 pd KICK-SYNTH;
#X obj 554 336 r \$0-decay-send;
#X obj 681 303 r \$0-pitchscale-send;
#X obj 808 342 r \$0-filterscale-send;
#X obj 935 303 r \$0-sinescale-send;
#X obj 395 65 inlet CLK;
#X obj 427 106 r \$0-manual-send;
#X msg 247 377 compatibility 0.47;
#X msg 247 416 send pd;
#X obj 247 338 loadbang;
#X connect 5 0 10 0;
#X connect 10 0 6 0;
#X connect 11 0 10 1;
#X connect 12 0 10 2;
#X connect 13 0 10 3;
#X connect 14 0 10 4;
#X connect 15 0 5 0;
#X connect 16 0 5 0;
#X connect 17 0 18 0;
#X connect 19 0 17 0;
#X coords 0 -1 1 1 150 200 2 5 5;
