#N canvas 0 0 1904 976 12;
#X obj 7 7 cnv 15 146 196 empty empty MAR 0 20 0 14 #a8d0b4 #000000
0;
#X obj 7 7 cnv 5 18 10 empty empty SND 0 5 0 10 #a8d0b4 #000000 0;
#X obj 7 193 cnv 5 18 10 empty empty OUT 0 5 0 10 #a8d0b4 #000000 0
;
#X obj 17 74 hsl 128 12 0 150 0 0 \$0-cutoff-send \$0-cutoff-recv CUTOFF
-2 -8 0 10 #dcdcdc #000000 #000000 0 1;
#X obj 17 103 hsl 128 12 0 200 0 0 \$0-q-send \$0-q-recv Q -2 -8 0
10 #dcdcdc #000000 #000000 0 1;
#X obj 459 127 inlet~ SND;
#X obj 579 225 r \$0-q-send;
#X obj 554 377 bob~;
#X msg 767 223 saturation \$1;
#X obj 767 127 loadbang;
#X obj 767 199 / 100;
#X msg 904 224 oversample \$1;
#X text 759 88 saturation point;
#X text 756 105 of "transistors";
#X msg 767 152 300;
#X msg 904 170 10;
#X obj 555 442 outlet~ OUT;
#X obj 579 265 / 25;
#X obj 579 312 line~;
#X obj 565 127 r \$0-cutoff-send;
#X obj 565 160 pack f 50;
#X obj 565 189 line~;
#X text 900 122 oversampling for higher frequency;
#X msg 344 383 compatibility 0.47;
#X msg 344 422 send pd;
#X obj 344 344 loadbang;
#X connect 5 0 7 0;
#X connect 6 0 17 0;
#X connect 7 0 16 0;
#X connect 8 0 7 0;
#X connect 9 0 14 0;
#X connect 9 0 15 0;
#X connect 10 0 8 0;
#X connect 11 0 7 0;
#X connect 14 0 10 0;
#X connect 15 0 11 0;
#X connect 17 0 18 0;
#X connect 18 0 7 2;
#X connect 19 0 20 0;
#X connect 20 0 21 0;
#X connect 21 0 7 1;
#X connect 23 0 24 0;
#X connect 25 0 23 0;
#X coords 0 -1 1 1 150 200 2 5 5;
