#N canvas 0 0 1904 976 12;
#X obj 7 7 cnv 15 146 196 empty empty MASTER 0 20 0 14 #a8d0b4 #000000
0;
#X obj 7 7 cnv 5 18 10 empty empty CH1 0 5 0 10 #a8d0b4 #000000 0;
#X obj 135 7 cnv 5 18 10 empty empty CH4 0 5 0 10 #a8d0b4 #000000 0
;
#X obj 16 47 hsl 128 12 0 1 0 0 \$0-lvlch1-send \$0-lvlch1-recv LVL-CH1
-2 -8 0 10 #dcdcdc #000000 #000000 0 1;
#X obj 16 86 hsl 128 12 0 1 0 0 \$0-lvlch2-send \$0-lvlch2-recv LVL-CH2
-2 -8 0 10 #dcdcdc #000000 #000000 0 1;
#X obj 16 125 hsl 128 12 0 1 0 0 \$0-lvlch3-send \$0-lvlch3-recv LVL-CH3
-2 -8 0 10 #dcdcdc #000000 #000000 0 1;
#X obj 16 164 hsl 128 12 0 1 0 0 \$0-lvlch4-send \$0-lvlch4-recv LVL-CH4
-2 -8 0 10 #dcdcdc #000000 #000000 0 1;
#X obj 80 33 hsl 64 12 0 1 0 0 \$0-panch1-send \$0-panch1-recv PAN-CH1
-2 -8 0 10 #dcdcdc #000000 #000000 3150 1;
#X obj 80 72 hsl 64 12 0 1 0 0 \$0-panch2-send \$0-panch2-recv PAN-CH2
-2 -8 0 10 #dcdcdc #000000 #000000 3150 1;
#X obj 80 111 hsl 64 12 0 1 0 0 \$0-panch3-send \$0-panch3-recv PAN-CH3
-2 -8 0 10 #dcdcdc #000000 #000000 3150 1;
#X obj 80 150 hsl 64 12 0 1 0 0 \$0-panch4-send \$0-panch4-recv PAN-CH4
-2 -8 0 10 #dcdcdc #000000 #000000 3150 1;
#X obj 16 190 hsl 128 12 1 8 0 0 \$0-curve-send \$0-curve-recv CURVE
-2 -8 0 10 #dcdcdc #000000 #000000 0 1;
#X obj 47 7 cnv 5 18 10 empty empty CH2 0 5 0 10 #a8d0b4 #000000 0
;
#X obj 96 7 cnv 5 18 10 empty empty CH3 0 5 0 10 #a8d0b4 #000000 0
;
#X obj 868 567 dac~ 1 2;
#X obj 433 76 inlet~ CH1;
#X obj 433 231 *~;
#X obj 452 131 r \$0-lvlch1-send;
#X obj 452 165 pack f 50;
#X obj 452 194 line~;
#X obj 481 306 -;
#X msg 481 263 1;
#X obj 467 230 r \$0-panch1-send;
#X obj 876 58 r \$0-curve-send;
#N canvas 0 0 1920 997 PAN 0;
#X obj 1079 294 inlet CURVE;
#X obj 944 323 pow 1;
#X obj 944 347 pack f 50;
#X obj 944 371 line~;
#X obj 925 458 *~;
#X obj 856 295 inlet~ SND;
#X obj 944 295 inlet VOLUME-LEFT;
#X obj 1199 324 pow 1;
#X obj 1199 348 pack f 50;
#X obj 1199 372 line~;
#X obj 1182 458 *~;
#X obj 1199 296 inlet VOLUME-RIGHT;
#X obj 967 656 outlet~ LEFT;
#X obj 1079 658 outlet~ RIGHT;
#X connect 0 0 1 1;
#X connect 0 0 7 1;
#X connect 1 0 2 0;
#X connect 2 0 3 0;
#X connect 3 0 4 1;
#X connect 4 0 12 0;
#X connect 5 0 4 0;
#X connect 5 0 10 0;
#X connect 6 0 1 0;
#X connect 7 0 8 0;
#X connect 8 0 9 0;
#X connect 9 0 10 1;
#X connect 10 0 13 0;
#X connect 11 0 7 0;
#X restore 434 346 pd PAN;
#X obj 732 231 *~;
#X obj 751 165 pack f 50;
#X obj 751 194 line~;
#X obj 780 306 -;
#X msg 780 263 1;
#N canvas 0 0 1920 997 PAN 0;
#X obj 1079 294 inlet CURVE;
#X obj 944 323 pow 1;
#X obj 944 347 pack f 50;
#X obj 944 371 line~;
#X obj 925 458 *~;
#X obj 856 295 inlet~ SND;
#X obj 944 295 inlet VOLUME-LEFT;
#X obj 1199 324 pow 1;
#X obj 1199 348 pack f 50;
#X obj 1199 372 line~;
#X obj 1182 458 *~;
#X obj 1199 296 inlet VOLUME-RIGHT;
#X obj 967 656 outlet~ LEFT;
#X obj 1079 658 outlet~ RIGHT;
#X connect 0 0 1 1;
#X connect 0 0 7 1;
#X connect 1 0 2 0;
#X connect 2 0 3 0;
#X connect 3 0 4 1;
#X connect 4 0 12 0;
#X connect 5 0 4 0;
#X connect 5 0 10 0;
#X connect 6 0 1 0;
#X connect 7 0 8 0;
#X connect 8 0 9 0;
#X connect 9 0 10 1;
#X connect 10 0 13 0;
#X connect 11 0 7 0;
#X restore 733 346 pd PAN;
#X obj 732 76 inlet~ CH2;
#X obj 751 131 r \$0-lvlch2-send;
#X obj 766 230 r \$0-panch2-send;
#X obj 1011 228 *~;
#X obj 1030 162 pack f 50;
#X obj 1030 191 line~;
#X obj 1059 303 -;
#X msg 1059 260 1;
#N canvas 0 0 1920 997 PAN 0;
#X obj 1079 294 inlet CURVE;
#X obj 944 323 pow 1;
#X obj 944 347 pack f 50;
#X obj 944 371 line~;
#X obj 925 458 *~;
#X obj 856 295 inlet~ SND;
#X obj 944 295 inlet VOLUME-LEFT;
#X obj 1199 324 pow 1;
#X obj 1199 348 pack f 50;
#X obj 1199 372 line~;
#X obj 1182 458 *~;
#X obj 1199 296 inlet VOLUME-RIGHT;
#X obj 967 656 outlet~ LEFT;
#X obj 1079 658 outlet~ RIGHT;
#X connect 0 0 1 1;
#X connect 0 0 7 1;
#X connect 1 0 2 0;
#X connect 2 0 3 0;
#X connect 3 0 4 1;
#X connect 4 0 12 0;
#X connect 5 0 4 0;
#X connect 5 0 10 0;
#X connect 6 0 1 0;
#X connect 7 0 8 0;
#X connect 8 0 9 0;
#X connect 9 0 10 1;
#X connect 10 0 13 0;
#X connect 11 0 7 0;
#X restore 1012 343 pd PAN;
#X obj 1310 228 *~;
#X obj 1329 162 pack f 50;
#X obj 1329 191 line~;
#X obj 1358 303 -;
#X msg 1358 260 1;
#N canvas 0 0 1920 997 PAN 0;
#X obj 1079 294 inlet CURVE;
#X obj 944 323 pow 1;
#X obj 944 347 pack f 50;
#X obj 944 371 line~;
#X obj 925 458 *~;
#X obj 856 295 inlet~ SND;
#X obj 944 295 inlet VOLUME-LEFT;
#X obj 1199 324 pow 1;
#X obj 1199 348 pack f 50;
#X obj 1199 372 line~;
#X obj 1182 458 *~;
#X obj 1199 296 inlet VOLUME-RIGHT;
#X obj 967 656 outlet~ LEFT;
#X obj 1079 658 outlet~ RIGHT;
#X connect 0 0 1 1;
#X connect 0 0 7 1;
#X connect 1 0 2 0;
#X connect 2 0 3 0;
#X connect 3 0 4 1;
#X connect 4 0 12 0;
#X connect 5 0 4 0;
#X connect 5 0 10 0;
#X connect 6 0 1 0;
#X connect 7 0 8 0;
#X connect 8 0 9 0;
#X connect 9 0 10 1;
#X connect 10 0 13 0;
#X connect 11 0 7 0;
#X restore 1311 343 pd PAN;
#X obj 1011 73 inlet~ CH3;
#X obj 1311 73 inlet~ CH4;
#X obj 1030 128 r \$0-lvlch3-send;
#X obj 1045 227 r \$0-panch3-send;
#X obj 1344 227 r \$0-panch4-send;
#X obj 1329 128 r \$0-lvlch4-send;
#X obj 465 436 loadbang;
#X msg 465 475 0.5;
#X obj 465 507 s \$0-panch1-recv;
#X obj 481 532 s \$0-panch2-recv;
#X obj 487 559 s \$0-panch3-recv;
#X obj 500 586 s \$0-panch4-recv;
#X obj 65 33 bng 10 250 50 0 \$0-rstch1-send \$0-rstch1-recv empty
17 7 0 10 #dcdcdc #0400fc #000000;
#X obj 65 72 bng 10 250 50 0 \$0-rstch2-send \$0-rstch2-recv empty
17 7 0 10 #dcdcdc #0400fc #000000;
#X obj 65 111 bng 10 250 50 0 \$0-rstch3-send \$0-rstch3-recv empty
17 7 0 10 #dcdcdc #0400fc #000000;
#X obj 65 150 bng 10 250 50 0 \$0-rstch4-send \$0-rstch4-recv empty
17 7 0 10 #dcdcdc #0400fc #000000;
#X msg 168 431 0.5;
#X obj 168 466 s \$0-panch1-recv;
#X msg 165 527 0.5;
#X obj 165 562 s \$0-panch2-recv;
#X msg 166 633 0.5;
#X msg 163 729 0.5;
#X obj 166 668 s \$0-panch3-recv;
#X obj 163 764 s \$0-panch4-recv;
#X obj 168 401 r \$0-rstch1-send;
#X obj 165 497 r \$0-rstch2-send;
#X obj 168 602 r \$0-rstch3-send;
#X obj 163 699 r \$0-rstch4-send;
#X msg 256 259 compatibility 0.47;
#X msg 256 298 send pd;
#X obj 256 220 loadbang;
#X connect 15 0 16 0;
#X connect 16 0 24 0;
#X connect 17 0 18 0;
#X connect 18 0 19 0;
#X connect 19 0 16 1;
#X connect 20 0 24 3;
#X connect 21 0 20 0;
#X connect 22 0 21 0;
#X connect 22 0 20 1;
#X connect 22 0 24 1;
#X connect 23 0 24 2;
#X connect 23 0 30 2;
#X connect 23 0 39 2;
#X connect 23 0 45 2;
#X connect 24 0 14 0;
#X connect 24 1 14 1;
#X connect 25 0 30 0;
#X connect 26 0 27 0;
#X connect 27 0 25 1;
#X connect 28 0 30 3;
#X connect 29 0 28 0;
#X connect 30 0 14 0;
#X connect 30 1 14 1;
#X connect 31 0 25 0;
#X connect 32 0 26 0;
#X connect 33 0 29 0;
#X connect 33 0 28 1;
#X connect 33 0 30 1;
#X connect 34 0 39 0;
#X connect 35 0 36 0;
#X connect 36 0 34 1;
#X connect 37 0 39 3;
#X connect 38 0 37 0;
#X connect 39 0 14 0;
#X connect 39 1 14 1;
#X connect 40 0 45 0;
#X connect 41 0 42 0;
#X connect 42 0 40 1;
#X connect 43 0 45 3;
#X connect 44 0 43 0;
#X connect 45 0 14 0;
#X connect 45 1 14 1;
#X connect 46 0 34 0;
#X connect 47 0 40 0;
#X connect 48 0 35 0;
#X connect 49 0 38 0;
#X connect 49 0 37 1;
#X connect 49 0 39 1;
#X connect 50 0 44 0;
#X connect 50 0 43 1;
#X connect 50 0 45 1;
#X connect 51 0 41 0;
#X connect 52 0 53 0;
#X connect 53 0 54 0;
#X connect 53 0 55 0;
#X connect 53 0 56 0;
#X connect 53 0 57 0;
#X connect 62 0 63 0;
#X connect 64 0 65 0;
#X connect 66 0 68 0;
#X connect 67 0 69 0;
#X connect 70 0 62 0;
#X connect 71 0 64 0;
#X connect 72 0 66 0;
#X connect 73 0 67 0;
#X connect 74 0 75 0;
#X connect 76 0 74 0;
#X coords 0 -1 1 1 150 200 2 5 5;
