#N canvas 0 0 1904 976 12;
#X obj 7 7 cnv 15 146 196 empty empty MIDI-KEYS 0 20 0 14 #a8d0b4 #000000
0;
#X obj 7 193 cnv 5 18 10 empty empty OUT 0 5 0 10 #a8d0b4 #000000 0
;
#X obj 502 150 key;
#X obj 746 158 keyup;
#X msg 406 292 84;
#X msg 439 292 86;
#X msg 476 292 88;
#X msg 509 292 89;
#X msg 545 292 91;
#X msg 578 292 93;
#X msg 615 292 95;
#X msg 648 292 96;
#X msg 683 292 98;
#X msg 716 292 100;
#X msg 754 292 101;
#X msg 786 292 103;
#X obj 621 854 outlet MIDI-notes;
#X msg 693 183 0;
#X obj 931 855 outlet ON/OFF;
#X obj 851 696 spigot;
#X obj 1016 625 - 12;
#X text 1070 294 MIDI values octave 5;
#X text 1058 625 MIDI values octave 4;
#X obj 791 622 - 24;
#X text 828 624 MIDI values octave 3;
#X obj 791 694 spigot;
#X obj 916 693 spigot;
#X obj 36 79 hradio 14 1 0 4 \$0-octave-send \$0-octave-recv OCTAVE-SELECT
0 -8 0 10 #dcdcdc #000000 #000000 0;
#X obj 1409 385 r \$0-octave-send;
#X msg 1409 455 1;
#X msg 1442 455 0;
#X msg 1427 492 1;
#X msg 1460 492 0;
#X msg 1448 525 1;
#X msg 1481 525 0;
#X obj 1409 261 loadbang;
#X msg 1409 295 0;
#X obj 633 666 - 36;
#X text 474 671 MIDI values octave 2;
#X obj 735 695 spigot;
#X obj 1409 417 sel 0 1 2 3;
#X msg 1463 556 1;
#X msg 1496 556 0;
#X obj 37 112 nbx 1 20 2 5 0 0 \$0-octavestatus-send \$0-octavestatus-recv
OCTAVE 0 -8 0 10 #dcdcdc #000000 #000000 2 256 1;
#X obj 1410 724 s \$0-octavestatus-recv;
#X msg 1410 598 2;
#X msg 1430 630 3;
#X msg 1447 663 4;
#X msg 1467 695 5;
#X text 659 156 velocity;
#X msg 657 183 127;
#X obj 135 193 cnv 5 18 10 empty empty VEL 0 5 0 10 #a8d0b4 #000000
0;
#X text 1176 212 keys QWERTYUIOP[] zxcvbnm;
#X obj 502 214 sel 113 119 101 114 116 121 117 105 111 112 91 93 122
120 99 118 98 110 109;
#X msg 824 293 72;
#X msg 861 293 74;
#X msg 894 293 76;
#X msg 929 292 77;
#X msg 962 293 79;
#X msg 1000 293 81;
#X msg 1032 293 83;
#X obj 99 120 tgl 12 0 \$0-mute-send \$0-mute-recv MUTE -5 -7 0 10
#dcdcdc #000000 #000000 0 1;
#X obj 972 773 spigot 1;
#X obj 1068 740 r \$0-mute-send;
#X obj 1067 768 sel 0;
#X msg 1070 802 1;
#X msg 1103 802 0;
#X msg 269 365 compatibility 0.47;
#X msg 269 404 send pd;
#X obj 269 326 loadbang;
#X connect 2 0 50 0;
#X connect 2 0 53 0;
#X connect 3 0 17 0;
#X connect 4 0 20 0;
#X connect 4 0 23 0;
#X connect 4 0 26 0;
#X connect 4 0 37 0;
#X connect 5 0 20 0;
#X connect 5 0 23 0;
#X connect 5 0 26 0;
#X connect 5 0 37 0;
#X connect 6 0 20 0;
#X connect 6 0 23 0;
#X connect 6 0 26 0;
#X connect 6 0 37 0;
#X connect 7 0 20 0;
#X connect 7 0 23 0;
#X connect 7 0 26 0;
#X connect 7 0 37 0;
#X connect 8 0 20 0;
#X connect 8 0 23 0;
#X connect 8 0 26 0;
#X connect 8 0 37 0;
#X connect 9 0 20 0;
#X connect 9 0 23 0;
#X connect 9 0 26 0;
#X connect 9 0 37 0;
#X connect 10 0 20 0;
#X connect 10 0 23 0;
#X connect 10 0 26 0;
#X connect 10 0 37 0;
#X connect 11 0 20 0;
#X connect 11 0 23 0;
#X connect 11 0 26 0;
#X connect 11 0 37 0;
#X connect 12 0 20 0;
#X connect 12 0 23 0;
#X connect 12 0 26 0;
#X connect 12 0 37 0;
#X connect 13 0 20 0;
#X connect 13 0 23 0;
#X connect 13 0 26 0;
#X connect 13 0 37 0;
#X connect 14 0 20 0;
#X connect 14 0 23 0;
#X connect 14 0 26 0;
#X connect 14 0 37 0;
#X connect 15 0 20 0;
#X connect 15 0 23 0;
#X connect 15 0 26 0;
#X connect 15 0 37 0;
#X connect 17 0 62 0;
#X connect 19 0 16 0;
#X connect 20 0 19 0;
#X connect 23 0 25 0;
#X connect 25 0 16 0;
#X connect 26 0 16 0;
#X connect 28 0 40 0;
#X connect 29 0 39 1;
#X connect 30 0 25 1;
#X connect 30 0 19 1;
#X connect 30 0 26 1;
#X connect 31 0 25 1;
#X connect 32 0 39 1;
#X connect 32 0 19 1;
#X connect 32 0 26 1;
#X connect 33 0 19 1;
#X connect 34 0 39 1;
#X connect 34 0 25 1;
#X connect 34 0 26 1;
#X connect 35 0 36 0;
#X connect 36 0 40 0;
#X connect 37 0 39 0;
#X connect 39 0 16 0;
#X connect 40 0 29 0;
#X connect 40 0 30 0;
#X connect 40 0 45 0;
#X connect 40 1 31 0;
#X connect 40 1 32 0;
#X connect 40 1 46 0;
#X connect 40 2 33 0;
#X connect 40 2 34 0;
#X connect 40 2 47 0;
#X connect 40 3 41 0;
#X connect 40 3 42 0;
#X connect 40 3 48 0;
#X connect 41 0 26 1;
#X connect 42 0 39 1;
#X connect 42 0 25 1;
#X connect 42 0 19 1;
#X connect 45 0 44 0;
#X connect 46 0 44 0;
#X connect 47 0 44 0;
#X connect 48 0 44 0;
#X connect 50 0 62 0;
#X connect 53 0 4 0;
#X connect 53 1 5 0;
#X connect 53 2 6 0;
#X connect 53 3 7 0;
#X connect 53 4 8 0;
#X connect 53 5 9 0;
#X connect 53 6 10 0;
#X connect 53 7 11 0;
#X connect 53 8 12 0;
#X connect 53 9 13 0;
#X connect 53 10 14 0;
#X connect 53 11 15 0;
#X connect 53 12 54 0;
#X connect 53 13 55 0;
#X connect 53 14 56 0;
#X connect 53 15 57 0;
#X connect 53 16 58 0;
#X connect 53 17 59 0;
#X connect 53 18 60 0;
#X connect 54 0 26 0;
#X connect 54 0 20 0;
#X connect 54 0 23 0;
#X connect 54 0 37 0;
#X connect 55 0 26 0;
#X connect 55 0 20 0;
#X connect 55 0 23 0;
#X connect 55 0 37 0;
#X connect 56 0 26 0;
#X connect 56 0 20 0;
#X connect 56 0 23 0;
#X connect 56 0 37 0;
#X connect 57 0 26 0;
#X connect 57 0 20 0;
#X connect 57 0 23 0;
#X connect 57 0 37 0;
#X connect 58 0 26 0;
#X connect 58 0 20 0;
#X connect 58 0 23 0;
#X connect 58 0 37 0;
#X connect 59 0 26 0;
#X connect 59 0 20 0;
#X connect 59 0 23 0;
#X connect 59 0 37 0;
#X connect 60 0 26 0;
#X connect 60 0 20 0;
#X connect 60 0 23 0;
#X connect 60 0 37 0;
#X connect 62 0 18 0;
#X connect 63 0 64 0;
#X connect 64 0 65 0;
#X connect 64 1 66 0;
#X connect 65 0 62 1;
#X connect 66 0 62 1;
#X connect 67 0 68 0;
#X connect 69 0 67 0;
#X coords 0 -1 1 1 150 200 2 5 5;
