#N canvas 0 0 1904 976 12;
#X obj 7 7 cnv 15 146 196 empty empty MIXER 0 20 0 14 #a8d0b4 #000000
0;
#X obj 7 7 cnv 5 18 10 empty empty CH1 0 5 0 10 #a8d0b4 #000000 0;
#X obj 46 7 cnv 5 18 10 empty empty CH2 0 5 0 10 #a8d0b4 #000000 0
;
#X obj 7 193 cnv 5 18 10 empty empty MIX 0 5 0 10 #a8d0b4 #000000 0
;
#X obj 17 62 hsl 128 12 0 1 0 0 \$0-ampch1-send \$0-ampch1-recv AMP-CH1
-2 -8 0 10 #dcdcdc #000000 #000000 0 1;
#X obj 17 90 hsl 128 12 0 1 0 0 \$0-ampch2-send \$0-ampch2-recv AMP-CH2
-2 -8 0 10 #dcdcdc #000000 #000000 0 1;
#X obj 288 90 inlet~ CH1;
#X obj 428 89 inlet~ CH2;
#X obj 289 229 *~;
#X obj 307 167 pack f 50;
#X obj 307 203 line~;
#X obj 307 139 r \$0-ampch1-send;
#X obj 427 231 *~;
#X obj 445 169 pack f 50;
#X obj 445 205 line~;
#X obj 37 193 cnv 5 18 10 empty empty CH1 0 5 0 10 #a8d0b4 #000000
0;
#X obj 71 193 cnv 5 18 10 empty empty CH2 0 5 0 10 #a8d0b4 #000000
0;
#X obj 451 391 outlet~ CH1;
#X obj 564 391 outlet~ CH2;
#X obj 445 141 r \$0-ampch2-send;
#X obj 585 227 *~;
#X obj 603 165 pack f 50;
#X obj 603 201 line~;
#X obj 723 229 *~;
#X obj 741 167 pack f 50;
#X obj 741 203 line~;
#X obj 584 88 inlet~ CH3;
#X obj 724 87 inlet~ CH4;
#X obj 603 137 r \$0-ampch3-send;
#X obj 741 139 r \$0-ampch4-send;
#X obj 348 391 outlet~ MIX;
#X obj 673 391 outlet~ CH3;
#X obj 786 391 outlet~ CH4;
#X obj 17 119 hsl 128 12 0 1 0 0 \$0-ampch3-send \$0-ampch3-recv AMP-CH3
-2 -8 0 10 #dcdcdc #000000 #000000 0 1;
#X obj 17 147 hsl 128 12 0 1 0 0 \$0-ampch4-send \$0-ampch4-recv AMP-CH4
-2 -8 0 10 #dcdcdc #000000 #000000 0 1;
#X obj 107 193 cnv 5 18 10 empty empty CH3 0 5 0 10 #a8d0b4 #000000
0;
#X obj 135 193 cnv 5 18 10 empty empty CH4 0 5 0 10 #a8d0b4 #000000
0;
#X obj 94 7 cnv 5 18 10 empty empty CH3 0 5 0 10 #a8d0b4 #000000 0
;
#X obj 135 7 cnv 5 18 10 empty empty CH4 0 5 0 10 #a8d0b4 #000000 0
;
#X msg 199 423 compatibility 0.47;
#X msg 199 462 send pd;
#X obj 199 384 loadbang;
#X connect 6 0 8 0;
#X connect 7 0 12 0;
#X connect 8 0 30 0;
#X connect 8 0 17 0;
#X connect 9 0 10 0;
#X connect 10 0 8 1;
#X connect 11 0 9 0;
#X connect 12 0 30 0;
#X connect 12 0 18 0;
#X connect 13 0 14 0;
#X connect 14 0 12 1;
#X connect 19 0 13 0;
#X connect 20 0 30 0;
#X connect 20 0 31 0;
#X connect 21 0 22 0;
#X connect 22 0 20 1;
#X connect 23 0 30 0;
#X connect 23 0 32 0;
#X connect 24 0 25 0;
#X connect 25 0 23 1;
#X connect 26 0 20 0;
#X connect 27 0 23 0;
#X connect 28 0 21 0;
#X connect 29 0 24 0;
#X connect 39 0 40 0;
#X connect 41 0 39 0;
#X coords 0 -1 1 1 150 200 2 5 5;
