#N canvas 0 0 1904 976 12;
#X obj 7 7 cnv 15 146 196 empty empty NOISE-2 0 20 0 14 #a8d0b4 #000000
0;
#X obj 7 193 cnv 5 18 10 empty empty YEL 0 5 0 10 #a8d0b4 #000000 0
;
#X obj 17 51 hsl 128 12 0 1 0 0 \$0-amp1-send \$0-amp1-recv AMP1 -2
-8 0 10 #dcdcdc #000000 #000000 0 1;
#X obj 17 79 hsl 128 12 0 1 0 0 \$0-amp2-send \$0-amp2-recv AMP2 -2
-8 0 10 #dcdcdc #000000 #000000 0 1;
#X obj 493 292 *~;
#X obj 511 230 pack f 50;
#X obj 511 266 line~;
#X obj 732 291 *~;
#X obj 750 229 pack f 50;
#X obj 750 265 line~;
#X obj 47 193 cnv 5 18 10 empty empty BLU 0 5 0 10 #a8d0b4 #000000
0;
#X obj 94 193 cnv 5 18 10 empty empty PIN 0 5 0 10 #a8d0b4 #000000
0;
#X obj 17 165 hsl 128 12 0 1 0 0 \$0-unison-send \$0-unison-recv UNISON
-2 -8 0 10 #dcdcdc #000000 #000000 0 1;
#X obj 1573 182 r \$0-unison-send;
#X obj 511 202 r \$0-amp1-send;
#X obj 750 201 r \$0-amp2-send;
#X obj 975 290 *~;
#X obj 993 228 pack f 50;
#X obj 993 264 line~;
#X obj 993 200 r \$0-amp3-send;
#X obj 1573 217 s \$0-amp1-recv;
#X obj 1581 251 s \$0-amp2-recv;
#X obj 1590 277 s \$0-amp3-recv;
#X obj 17 108 hsl 128 12 0 1 0 0 \$0-amp3-send \$0-amp3-recv AMP3 -2
-8 0 10 #dcdcdc #000000 #000000 0 1;
#X obj 17 136 hsl 128 12 0 1 0 0 \$0-amp4-send \$0-amp4-recv AMP4 -2
-8 0 10 #dcdcdc #000000 #000000 0 1;
#X obj 492 454 outlet~ YEL;
#X obj 732 451 outlet~ BLU;
#X obj 975 450 outlet~ PIN;
#X obj 1596 314 s \$0-amp4-recv;
#X obj 1243 290 *~;
#X obj 1261 228 pack f 50;
#X obj 1261 264 line~;
#X obj 1243 450 outlet~ WHI;
#X obj 1261 200 r \$0-amp4-send;
#X obj 135 193 cnv 5 18 10 empty empty WHI 0 5 0 10 #a8d0b4 #000000
0;
#X obj 429 44 noise~;
#X obj 429 68 hip~ 1000;
#X obj 429 96 hip~ 1000;
#X obj 430 123 hip~ 1000;
#X obj 429 151 hip~ 1000;
#X obj 430 183 lop~ 3000;
#X obj 430 207 lop~ 3000;
#X obj 430 231 lop~ 3000;
#X obj 430 255 lop~ 3000;
#X obj 663 43 noise~;
#X obj 663 67 hip~ 7000;
#X obj 663 95 hip~ 7000;
#X obj 663 122 hip~ 7000;
#X obj 663 150 hip~ 7000;
#X obj 664 182 lop~ 15000;
#X obj 664 206 lop~ 15000;
#X obj 664 230 lop~ 15000;
#X obj 665 254 lop~ 15000;
#X obj 907 31 noise~;
#X obj 907 55 hip~ 15000;
#X obj 907 83 hip~ 15000;
#X obj 907 110 hip~ 15000;
#X obj 907 138 hip~ 15000;
#X obj 908 170 lop~ 20000;
#X obj 908 194 lop~ 20000;
#X obj 908 218 lop~ 20000;
#X obj 909 242 lop~ 20000;
#X text 527 138 yellow noise;
#X text 767 133 blue noise;
#X text 1000 135 pink noise;
#X text 1284 145 white noise;
#X obj 1220 157 noise~;
#X msg 272 324 compatibility 0.47;
#X msg 272 363 send pd;
#X obj 272 285 loadbang;
#X connect 4 0 25 0;
#X connect 5 0 6 0;
#X connect 6 0 4 1;
#X connect 7 0 26 0;
#X connect 8 0 9 0;
#X connect 9 0 7 1;
#X connect 13 0 20 0;
#X connect 13 0 21 0;
#X connect 13 0 22 0;
#X connect 13 0 28 0;
#X connect 14 0 5 0;
#X connect 15 0 8 0;
#X connect 16 0 27 0;
#X connect 17 0 18 0;
#X connect 18 0 16 1;
#X connect 19 0 17 0;
#X connect 29 0 32 0;
#X connect 30 0 31 0;
#X connect 31 0 29 1;
#X connect 33 0 30 0;
#X connect 35 0 36 0;
#X connect 36 0 37 0;
#X connect 37 0 38 0;
#X connect 38 0 39 0;
#X connect 39 0 40 0;
#X connect 40 0 41 0;
#X connect 41 0 42 0;
#X connect 42 0 43 0;
#X connect 43 0 4 0;
#X connect 44 0 45 0;
#X connect 45 0 46 0;
#X connect 46 0 47 0;
#X connect 47 0 48 0;
#X connect 48 0 49 0;
#X connect 49 0 50 0;
#X connect 50 0 51 0;
#X connect 51 0 52 0;
#X connect 52 0 7 0;
#X connect 53 0 54 0;
#X connect 54 0 55 0;
#X connect 55 0 56 0;
#X connect 56 0 57 0;
#X connect 57 0 58 0;
#X connect 58 0 59 0;
#X connect 59 0 60 0;
#X connect 60 0 61 0;
#X connect 61 0 16 0;
#X connect 66 0 29 0;
#X connect 67 0 68 0;
#X connect 69 0 67 0;
#X coords 0 -1 1 1 150 200 2 5 5;
