#N canvas 0 0 1904 976 12;
#X obj 7 7 cnv 15 146 196 empty empty NOISE 0 20 0 14 #a8d0b4 #000000
0;
#X obj 7 193 cnv 5 18 10 empty empty BLA 0 5 0 10 #a8d0b4 #000000 0
;
#X obj 17 49 hsl 128 12 0 1 0 0 \$0-amp1-send \$0-amp1-recv AMP1 -2
-8 0 10 #dcdcdc #000000 #000000 0 1;
#X obj 17 77 hsl 128 12 0 1 0 0 \$0-amp2-send \$0-amp2-recv AMP2 -2
-8 0 10 #dcdcdc #000000 #000000 0 1;
#X obj 493 292 *~;
#X obj 511 230 pack f 50;
#X obj 511 266 line~;
#X obj 732 291 *~;
#X obj 750 229 pack f 50;
#X obj 750 265 line~;
#X obj 49 193 cnv 5 18 10 empty empty BRO 0 5 0 10 #a8d0b4 #000000
0;
#X obj 135 193 cnv 5 18 10 empty empty ORA 0 5 0 10 #a8d0b4 #000000
0;
#X obj 17 161 hsl 128 12 0 1 0 0 \$0-unison-send \$0-unison-recv UNISON
-2 -8 0 10 #dcdcdc #000000 #000000 0 1;
#X obj 1428 178 r \$0-unison-send;
#X obj 511 202 r \$0-amp1-send;
#X obj 750 201 r \$0-amp2-send;
#X obj 492 454 outlet~ BLA;
#X obj 732 451 outlet~ BRO;
#X obj 1246 440 outlet~ ORA;
#X obj 1246 280 *~;
#X obj 1264 218 pack f 50;
#X obj 1264 254 line~;
#X obj 1428 213 s \$0-amp1-recv;
#X obj 1436 247 s \$0-amp2-recv;
#X obj 1445 273 s \$0-amp3-recv;
#X obj 17 104 hsl 128 12 0 1 0 0 \$0-amp3-send \$0-amp3-recv AMP3 -2
-8 0 10 #dcdcdc #000000 #000000 0 1;
#X obj 448 129 noise~;
#X obj 449 163 lop~ 50;
#X obj 449 187 lop~ 50;
#X obj 449 211 lop~ 50;
#X obj 449 235 lop~ 50;
#X obj 659 37 noise~;
#X obj 659 61 hip~ 50;
#X obj 659 89 hip~ 50;
#X obj 659 116 hip~ 50;
#X obj 659 144 hip~ 50;
#X obj 660 176 lop~ 250;
#X obj 660 200 lop~ 250;
#X obj 660 224 lop~ 250;
#X obj 661 248 lop~ 250;
#X text 738 132 brown noise;
#X text 517 131 black noise;
#X obj 1175 37 noise~;
#X obj 1175 61 hip~ 500;
#X obj 1175 89 hip~ 500;
#X obj 1175 116 hip~ 500;
#X obj 1175 144 hip~ 500;
#X obj 1176 176 lop~ 1000;
#X obj 1176 200 lop~ 1000;
#X obj 1176 224 lop~ 1000;
#X obj 1176 248 lop~ 1000;
#X text 1255 132 orange noise;
#X obj 980 280 *~;
#X obj 998 218 pack f 50;
#X obj 998 254 line~;
#X obj 998 190 r \$0-amp3-send;
#X obj 980 440 outlet~ RED;
#X obj 1264 190 r \$0-amp4-send;
#X obj 1456 307 s \$0-amp4-recv;
#X obj 919 86 hip~ 250;
#X obj 919 110 hip~ 250;
#X obj 919 134 hip~ 250;
#X obj 919 158 hip~ 250;
#X obj 919 182 lop~ 500;
#X obj 919 206 lop~ 500;
#X obj 919 254 lop~ 500;
#X obj 919 230 lop~ 500;
#X text 989 131 red noise;
#X obj 919 60 noise~;
#X obj 17 132 hsl 128 12 0 1 0 0 \$0-amp4-send \$0-amp4-recv AMP4 -2
-8 0 10 #dcdcdc #000000 #000000 0 1;
#X obj 95 193 cnv 5 18 10 empty empty RED 0 5 0 10 #a8d0b4 #000000
0;
#X msg 291 274 compatibility 0.47;
#X msg 291 313 send pd;
#X obj 291 235 loadbang;
#X connect 4 0 16 0;
#X connect 5 0 6 0;
#X connect 6 0 4 1;
#X connect 7 0 17 0;
#X connect 8 0 9 0;
#X connect 9 0 7 1;
#X connect 13 0 22 0;
#X connect 13 0 23 0;
#X connect 13 0 24 0;
#X connect 13 0 58 0;
#X connect 14 0 5 0;
#X connect 15 0 8 0;
#X connect 19 0 18 0;
#X connect 20 0 21 0;
#X connect 21 0 19 1;
#X connect 26 0 27 0;
#X connect 27 0 28 0;
#X connect 28 0 29 0;
#X connect 29 0 30 0;
#X connect 30 0 4 0;
#X connect 31 0 32 0;
#X connect 32 0 33 0;
#X connect 33 0 34 0;
#X connect 34 0 35 0;
#X connect 35 0 36 0;
#X connect 36 0 37 0;
#X connect 37 0 38 0;
#X connect 38 0 39 0;
#X connect 39 0 7 0;
#X connect 42 0 43 0;
#X connect 43 0 44 0;
#X connect 44 0 45 0;
#X connect 45 0 46 0;
#X connect 46 0 47 0;
#X connect 47 0 48 0;
#X connect 48 0 49 0;
#X connect 49 0 50 0;
#X connect 50 0 19 0;
#X connect 52 0 56 0;
#X connect 53 0 54 0;
#X connect 54 0 52 1;
#X connect 55 0 53 0;
#X connect 57 0 20 0;
#X connect 59 0 60 0;
#X connect 60 0 61 0;
#X connect 61 0 62 0;
#X connect 62 0 63 0;
#X connect 63 0 64 0;
#X connect 64 0 66 0;
#X connect 65 0 52 0;
#X connect 66 0 65 0;
#X connect 68 0 59 0;
#X connect 71 0 72 0;
#X connect 73 0 71 0;
#X coords 0 -1 1 1 150 200 2 5 5;
