#N canvas 0 0 1904 976 12;
#X obj 7 7 cnv 15 146 196 empty empty RAND 0 20 0 14 #a8d0b4 #000000
0;
#X obj 7 193 cnv 5 18 10 empty empty PCH 0 5 0 10 #a8d0b4 #000000 0
;
#X obj 17 106 hsl 128 12 100 10000 0 0 \$0-rate-send \$0-rate-recv
RATE -2 -8 0 10 #dcdcdc #000000 #000000 0 1;
#X obj 51 193 cnv 5 18 10 empty empty FB 0 5 0 10 #a8d0b4 #000000 0
;
#X obj 375 242 random 128;
#X obj 375 210 metro 100;
#X obj 435 183 r \$0-rate-send;
#X obj 466 302 / 127;
#X obj 375 352 outlet PCH;
#X obj 94 193 cnv 5 18 10 empty empty PAN 0 5 0 10 #a8d0b4 #000000
0;
#X obj 466 352 outlet FB;
#X obj 567 351 outlet PAN;
#X obj 69 70 tgl 15 0 \$0-start-send \$0-start-end START -5 -7 0 10
#dcdcdc #000000 #000000 0 1;
#X obj 375 152 r \$0-start-send;
#X obj 476 241 random 128;
#X obj 567 301 / 127;
#X obj 613 243 random 128;
#X obj 704 353 outlet VEL;
#X obj 135 193 cnv 5 18 10 empty empty VEL 0 5 0 10 #a8d0b4 #000000
0;
#X msg 214 313 compatibility 0.47;
#X msg 214 352 send pd;
#X obj 214 274 loadbang;
#X connect 4 0 7 0;
#X connect 4 0 8 0;
#X connect 5 0 4 0;
#X connect 5 0 14 0;
#X connect 5 0 16 0;
#X connect 6 0 5 1;
#X connect 7 0 10 0;
#X connect 13 0 5 0;
#X connect 14 0 15 0;
#X connect 15 0 11 0;
#X connect 16 0 17 0;
#X connect 19 0 20 0;
#X connect 21 0 19 0;
#X coords 0 -1 1 1 150 200 2 5 5;
