#N canvas 0 0 1904 976 12;
#X obj 7 7 cnv 15 146 196 empty empty RMOD 0 20 0 14 #a8d0b4 #000000
0;
#X obj 7 7 cnv 5 18 10 empty empty CH1 0 5 0 10 #a8d0b4 #000000 0;
#X obj 7 193 cnv 5 18 10 empty empty OUT 0 5 0 10 #a8d0b4 #000000 0
;
#X obj 17 86 hsl 128 12 0 1 0 0 \$0-modcv-send \$0-modcv-recv MOD-CV
-2 -8 0 10 #dcdcdc #000000 #000000 0 1;
#X obj 17 113 hsl 128 12 1 8 1 0 \$0-curve-send \$0-curve-recv CURVE
-2 -8 0 10 #dcdcdc #000000 #000000 0 1;
#X obj 587 136 inlet~ CH1;
#X obj 587 650 outlet~ OUT;
#X obj 588 345 *~;
#X obj 135 7 cnv 5 18 10 empty empty CV 3 5 0 10 #a8d0b4 #000000 0
;
#X obj 751 134 inlet~ CV;
#X obj 752 327 *~;
#X obj 769 273 pack f 50;
#X obj 769 297 line~;
#X obj 769 176 r \$0-modcv-send;
#X obj 769 249 pow 1;
#X obj 801 221 r \$0-curve-send;
#X msg 299 422 compatibility 0.47;
#X msg 299 461 send pd;
#X obj 299 383 loadbang;
#X connect 5 0 7 0;
#X connect 7 0 6 0;
#X connect 9 0 10 0;
#X connect 10 0 7 1;
#X connect 11 0 12 0;
#X connect 12 0 10 1;
#X connect 13 0 14 0;
#X connect 14 0 11 0;
#X connect 15 0 14 1;
#X connect 16 0 17 0;
#X connect 18 0 16 0;
#X coords 0 -1 1 1 150 200 2 5 5;
