#N canvas 0 0 1904 976 12;
#X obj 7 7 cnv 15 146 196 empty empty SNARE 0 20 0 14 #a8d0b4 #000000
0;
#X obj 7 7 cnv 5 18 10 empty empty CLK 0 5 0 10 #a8d0b4 #000000 0;
#X obj 7 193 cnv 5 18 10 empty empty OUT 0 5 0 10 #a8d0b4 #000000 0
;
#X obj 71 36 bng 15 250 50 0 \$0-manual-send \$0-manual-recv MANUAL
17 7 0 10 #dcdcdc #000000 #000000;
#X obj 18 95 hsl 128 12 50 2000 1 0 \$0-decay-send \$0-decay-recv DECAY
-2 -8 0 10 #dcdcdc #000000 #000000 0 1;
#X obj 427 128 bng 15 250 50 0 empty empty empty 17 7 0 10 #fcfcfc
#000000 #000000;
#X obj 427 462 outlet~ OUT;
#X obj 18 121 hsl 128 12 100 10000 1 0 \$0-noise-send \$0-noise-recv
NOISE -2 -8 0 10 #dcdcdc #000000 #000000 0 1;
#X obj 395 65 inlet CLK;
#X obj 427 97 r \$0-manual-send;
#N canvas 0 23 746 614 SNARE-SYNTH 0;
#X obj 174 410 vcf~ 3;
#X obj 213 109 noise~;
#X obj 196 164 *~;
#X obj 175 442 hip~ 50;
#X obj 318 271 +~ 100;
#X obj 317 244 *~ 8000;
#X obj 244 410 vcf~ 5;
#X obj 399 244 *~ 5000;
#X obj 403 272 +~ 200;
#X obj 480 220 * 0.6;
#X obj 247 57 f 250;
#X obj 400 137 * 2;
#X obj 214 138 hip~ 100;
#X obj 480 12 inlet NOISE;
#X obj 378 12 inlet DECAY;
#X obj 170 12 inlet TRIGGER;
#N canvas 454 146 450 300 FM-OSC 0;
#X obj 62 166 osc~ 150;
#X obj 61 135 +~;
#X obj 60 92 sig~ 150;
#X obj 134 70 osc~ 50;
#X obj 134 91 *~ 30;
#X obj 63 199 *~;
#X obj 220 143 *~;
#X obj 225 109 inlet~ TRIG;
#X obj 63 220 outlet~ OUT;
#X connect 0 0 5 0;
#X connect 1 0 0 0;
#X connect 2 0 1 0;
#X connect 3 0 4 0;
#X connect 4 0 1 1;
#X connect 5 0 8 0;
#X connect 6 0 5 1;
#X connect 7 0 6 0;
#X connect 7 0 6 1;
#X restore 100 177 pd FM-OSC;
#N canvas 622 223 450 300 CUTOFF-ENV 0;
#X obj 29 204 *~;
#X obj 38 155 vline~;
#X msg 38 58 1 0.5 \, 0 \$1 0.5;
#X obj 38 37 inlet TRIG;
#X obj 29 225 outlet~ OUT;
#X connect 0 0 4 0;
#X connect 1 0 0 0;
#X connect 1 0 0 1;
#X connect 2 0 1 0;
#X connect 3 0 2 0;
#X restore 400 172 pd CUTOFF-ENV;
#X obj 175 468 outlet~ OUT;
#N canvas 381 209 450 300 VOL-ENV 0;
#X obj 29 204 *~;
#X obj 38 155 vline~;
#X msg 37 58 1 0.5 \, 0 \$1 0.5;
#X obj 37 37 inlet TRIG;
#X obj 29 225 outlet~ OUT;
#X connect 0 0 4 0;
#X connect 1 0 0 0;
#X connect 1 0 0 1;
#X connect 2 0 1 0;
#X connect 3 0 2 0;
#X restore 132 82 pd VOL-ENV;
#X connect 0 0 3 0;
#X connect 1 0 12 0;
#X connect 2 0 0 0;
#X connect 3 0 18 0;
#X connect 4 0 0 1;
#X connect 5 0 4 0;
#X connect 6 0 3 0;
#X connect 7 0 8 0;
#X connect 8 0 6 1;
#X connect 9 0 7 1;
#X connect 10 0 11 0;
#X connect 10 0 19 0;
#X connect 11 0 17 0;
#X connect 12 0 2 1;
#X connect 13 0 9 0;
#X connect 13 0 5 1;
#X connect 14 0 10 1;
#X connect 15 0 10 0;
#X connect 16 0 0 0;
#X connect 16 0 6 0;
#X connect 17 0 5 0;
#X connect 17 0 7 0;
#X connect 19 0 2 0;
#X connect 19 0 16 0;
#X restore 427 362 pd SNARE-SYNTH;
#X obj 537 330 r \$0-decay-send;
#X obj 648 302 r \$0-noise-send;
#X msg 244 407 compatibility 0.47;
#X msg 244 446 send pd;
#X obj 244 368 loadbang;
#X connect 5 0 10 0;
#X connect 8 0 5 0;
#X connect 9 0 5 0;
#X connect 10 0 6 0;
#X connect 11 0 10 1;
#X connect 12 0 10 2;
#X connect 13 0 14 0;
#X connect 15 0 13 0;
#X coords 0 -1 1 1 150 200 2 5 5;
