#N canvas 0 0 1904 976 12;
#X obj 7 7 cnv 15 146 196 empty empty STEREO-DELAY 0 20 0 14 #a8d0b4
#000000 0;
#X obj 7 7 cnv 5 18 10 empty empty SND 0 5 0 10 #a8d0b4 #000000 0;
#X obj 7 193 cnv 5 18 10 empty empty L 0 5 0 10 #a8d0b4 #000000 0;
#X obj 17 49 hsl 128 12 0 1 0 0 \$0-gain-send \$0-gain-recv GAIN -2
-8 0 10 #dcdcdc #000000 #000000 0 1;
#X obj 17 76 hsl 128 12 0 1 0 0 \$0-vol-send \$0-vol-recv VOL -2 -8
0 10 #dcdcdc #000000 #000000 0 1;
#X obj 17 102 hsl 128 12 0 5000 0 0 \$0-delaytime-send \$0-delaytime-recv
DELAY-TIME -2 -8 0 10 #dcdcdc #000000 #000000 0 1;
#X obj 17 128 hsl 128 12 0 1 0 0 \$0-delayvol-send \$0-delayvol-recv
DELAY-VOL -2 -8 0 10 #dcdcdc #000000 #000000 0 1;
#X obj 17 154 hsl 128 12 0 1 0 0 \$0-feedback-send \$0-feedback-recv
FEEDBACK -2 -8 0 10 #dcdcdc #000000 #000000 0 1;
#X obj 673 165 inlet~ SND;
#X obj 672 312 *~;
#X obj 690 261 pack f 50;
#X obj 690 285 line~;
#X obj 690 233 r \$0-gain-send;
#X obj 673 553 *~;
#X obj 692 501 pack f 50;
#X obj 692 525 line~;
#X obj 692 473 r \$0-vol-send;
#X obj 820 355 delwrite~ \$0-buffer 5000;
#X obj 820 418 delread~ \$0-buffer 0;
#X obj 820 387 r \$0-delaytime-send;
#X obj 821 535 *~;
#X obj 839 484 pack f 50;
#X obj 839 508 line~;
#X obj 839 456 r \$0-delayvol-send;
#X obj 852 623 *~;
#X obj 870 572 pack f 50;
#X obj 870 596 line~;
#X obj 870 544 r \$0-feedback-send;
#X obj 820 325 r~ \$0-feedback-sig;
#X obj 853 656 s~ \$0-feedback-sig;
#X obj 135 7 cnv 5 18 10 empty empty PAN 0 5 0 10 #a8d0b4 #000000 0
;
#X obj 135 193 cnv 5 18 10 empty empty R 9 5 0 10 #a8d0b4 #000000 0
;
#X obj 54 180 hsl 64 12 0 1 0 0 \$0-pan-send \$0-pan-recv PAN -2 -8
0 10 #dcdcdc #000000 #000000 3150 1;
#X obj 39 180 bng 10 250 50 0 \$0-rst-send \$0-rst-recv empty 17 7
0 10 #dcdcdc #0400fc #000000;
#X msg 401 357 0.5;
#X obj 401 327 r \$0-rst-send;
#X obj 401 392 s \$0-pan-recv;
#X obj 720 671 -;
#X msg 720 628 1;
#N canvas 0 0 1920 997 PAN 0;
#X obj 944 347 pack f 50;
#X obj 944 371 line~;
#X obj 925 458 *~;
#X obj 856 295 inlet~ SND;
#X obj 944 295 inlet VOLUME-LEFT;
#X obj 1199 348 pack f 50;
#X obj 1199 372 line~;
#X obj 1182 458 *~;
#X obj 1199 292 inlet VOLUME-RIGHT;
#X obj 967 656 outlet~ LEFT;
#X obj 1079 658 outlet~ RIGHT;
#X connect 0 0 1 0;
#X connect 1 0 2 1;
#X connect 2 0 9 0;
#X connect 3 0 2 0;
#X connect 3 0 7 0;
#X connect 4 0 0 0;
#X connect 5 0 6 0;
#X connect 6 0 7 1;
#X connect 7 0 10 0;
#X connect 8 0 5 0;
#X restore 673 711 pd PAN;
#X obj 706 595 r \$0-pan-send;
#X obj 654 780 outlet~ L;
#X obj 736 780 outlet~ R;
#X obj 996 163 inlet PAN;
#X obj 358 294 loadbang;
#X obj 74 7 cnv 5 18 10 empty empty FB 0 5 0 10 #a8d0b4 #000000 0;
#X obj 847 163 inlet FB;
#X msg 358 510 compatibility 0.47;
#X msg 358 549 send pd;
#X connect 8 0 9 0;
#X connect 9 0 13 0;
#X connect 9 0 17 0;
#X connect 10 0 11 0;
#X connect 11 0 9 1;
#X connect 12 0 10 0;
#X connect 13 0 39 0;
#X connect 14 0 15 0;
#X connect 15 0 13 1;
#X connect 16 0 14 0;
#X connect 18 0 20 0;
#X connect 18 0 24 0;
#X connect 19 0 18 0;
#X connect 20 0 39 0;
#X connect 21 0 22 0;
#X connect 22 0 20 1;
#X connect 23 0 21 0;
#X connect 24 0 29 0;
#X connect 25 0 26 0;
#X connect 26 0 24 1;
#X connect 27 0 25 0;
#X connect 28 0 17 0;
#X connect 34 0 36 0;
#X connect 35 0 34 0;
#X connect 37 0 39 2;
#X connect 38 0 37 0;
#X connect 39 0 41 0;
#X connect 39 1 42 0;
#X connect 40 0 38 0;
#X connect 40 0 37 1;
#X connect 40 0 39 1;
#X connect 43 0 38 0;
#X connect 43 0 37 1;
#X connect 43 0 39 1;
#X connect 44 0 34 0;
#X connect 44 0 47 0;
#X connect 46 0 25 0;
#X connect 47 0 48 0;
#X coords 0 -1 1 1 150 200 2 5 5;
