#N canvas 0 0 1904 976 12;
#X obj 7 7 cnv 15 146 196 empty empty STEREO-CRUSHER 0 20 0 14 #a8d0b4
#000000 0;
#X obj 7 7 cnv 5 18 10 empty empty CH1 0 5 0 10 #a8d0b4 #000000 0;
#X obj 7 193 cnv 5 18 10 empty empty L 0 5 0 10 #a8d0b4 #000000 0;
#X obj 17 73 hsl 128 12 1 16 0 0 \$0-leftbitdepth-send \$0-leftbitdepth-recv
LEFT-BIT-DEPTH -2 -8 0 10 #dcdcdc #000000 #000000 0 1;
#X obj 17 133 hsl 128 12 0 1 0 0 \$0-gain-send \$0-gain-recv GAIN -2
-8 0 10 #dcdcdc #000000 #000000 0 1;
#X obj 556 397 *~;
#X obj 759 324 pack f 50;
#X obj 759 352 line~;
#X obj 556 276 *~;
#X obj 557 245 expr~ round($v1 / $f2);
#X obj 717 107 int;
#X obj 717 142 expr pow(2 \, $f1) - 1;
#X obj 717 169 expr 1 / $f1;
#X obj 17 102 hsl 128 12 1 16 0 0 \$0-rightbitdepth-send \$0-rightbitdepth-recv
RIGHT-BIT-DEPTH -2 -8 0 10 #dcdcdc #000000 #000000 0 1;
#X obj 556 112 inlet~ CH1;
#X obj 135 193 cnv 5 18 10 empty empty R 11 5 0 10 #a8d0b4 #000000
0;
#X obj 955 402 *~;
#X obj 955 281 *~;
#X obj 956 250 expr~ round($v1 / $f2);
#X obj 1116 112 int;
#X obj 1116 147 expr pow(2 \, $f1) - 1;
#X obj 1116 174 expr 1 / $f1;
#X obj 717 78 r \$0-leftbitdepth-send;
#X obj 1116 83 r \$0-rightbitdepth-send;
#X obj 759 295 r \$0-gain-send;
#X obj 555 442 outlet~ L;
#X obj 954 447 outlet~ R;
#X obj 926 77 loadbang;
#X msg 926 106 1;
#X msg 337 335 compatibility 0.47;
#X msg 337 374 send pd;
#X obj 337 296 loadbang;
#X connect 5 0 25 0;
#X connect 6 0 7 0;
#X connect 7 0 5 1;
#X connect 7 0 16 1;
#X connect 8 0 5 0;
#X connect 9 0 8 0;
#X connect 10 0 11 0;
#X connect 11 0 12 0;
#X connect 12 0 9 1;
#X connect 12 0 8 1;
#X connect 14 0 9 0;
#X connect 14 0 18 0;
#X connect 16 0 26 0;
#X connect 17 0 16 0;
#X connect 18 0 17 0;
#X connect 19 0 20 0;
#X connect 20 0 21 0;
#X connect 21 0 18 1;
#X connect 21 0 17 1;
#X connect 22 0 10 0;
#X connect 23 0 19 0;
#X connect 24 0 6 0;
#X connect 27 0 28 0;
#X connect 28 0 9 1;
#X connect 28 0 18 1;
#X connect 29 0 30 0;
#X connect 31 0 29 0;
#X coords 0 -1 1 1 150 200 2 5 5;
