#N canvas 0 0 1904 976 12;
#X obj 7 7 cnv 15 146 196 empty empty STRING 0 20 0 14 #a8d0b4 #000000
0;
#X obj 7 7 cnv 5 18 10 empty empty PCH 0 5 0 10 #a8d0b4 #000000 0;
#X obj 135 7 cnv 5 18 10 empty empty ENV 0 5 0 10 #a8d0b4 #000000 0
;
#X obj 7 193 cnv 5 18 10 empty empty L 0 5 0 10 #a8d0b4 #000000 0;
#X obj 17 71 hsl 128 12 0 127 0 0 \$0-notes-send \$0-notes-recv NOTES
-2 -8 0 10 #dcdcdc #000000 #000000 0 1;
#X obj 17 99 hsl 128 12 0 1 0 0 \$0-decay-send \$0-decay-recv DECAY
-2 -8 0 10 #dcdcdc #000000 #000000 0 1;
#X obj 17 127 hsl 128 12 0 1 0 0 \$0-gain-send \$0-gain-recv GAIN -2
-8 0 10 #dcdcdc #000000 #000000 0 1;
#X obj 635 178 noise~;
#X obj 635 259 *~;
#X obj 933 179 inlet~ ENV;
#X obj 903 209 r \$0-notes-send;
#X obj 903 248 mtof;
#X obj 903 272 expr 1000 / $f1;
#X obj 903 308 delread4~ \$0-buffer;
#X obj 635 309 delwrite~ \$0-buffer 500;
#X obj 902 361 *~ 0.99;
#X obj 948 334 r \$0-decay-send;
#X obj 902 513 *~;
#X obj 921 464 pack f 50;
#X obj 921 488 line~;
#X obj 921 439 r \$0-gain-send;
#X obj 702 178 inlet PCH;
#X obj 902 396 lop~ 1000;
#X obj 17 154 hsl 128 12 1000 10000 0 0 \$0-cutoff-send \$0-cutoff-recv
CUTOFF -2 -8 0 10 #dcdcdc #000000 #000000 0 1;
#X obj 962 369 r \$0-cutoff-send;
#X obj 135 193 cnv 5 18 10 empty empty R 10 5 0 10 #a8d0b4 #000000
0;
#X obj 54 180 hsl 64 12 0 1 0 0 \$0-pan-send \$0-pan-recv PAN -2 -8
0 10 #dcdcdc #000000 #000000 3150 1;
#X obj 39 180 bng 10 250 50 0 \$0-rst-send \$0-rst-recv empty 17 7
0 10 #dcdcdc #0400fc #000000;
#X msg 401 357 0.5;
#X obj 401 327 r \$0-rst-send;
#X obj 401 392 s \$0-pan-recv;
#X obj 358 294 loadbang;
#X obj 949 599 -;
#X msg 949 556 1;
#N canvas 0 0 1920 997 PAN 0;
#X obj 944 347 pack f 50;
#X obj 944 371 line~;
#X obj 925 458 *~;
#X obj 856 295 inlet~ SND;
#X obj 944 295 inlet VOLUME-LEFT;
#X obj 1199 348 pack f 50;
#X obj 1199 372 line~;
#X obj 1182 458 *~;
#X obj 1199 292 inlet VOLUME-RIGHT;
#X obj 967 656 outlet~ LEFT;
#X obj 1079 658 outlet~ RIGHT;
#X connect 0 0 1 0;
#X connect 1 0 2 1;
#X connect 2 0 9 0;
#X connect 3 0 2 0;
#X connect 3 0 7 0;
#X connect 4 0 0 0;
#X connect 5 0 6 0;
#X connect 6 0 7 1;
#X connect 7 0 10 0;
#X connect 8 0 5 0;
#X restore 902 639 pd PAN;
#X obj 935 523 r \$0-pan-send;
#X obj 883 708 outlet~ L;
#X obj 965 708 outlet~ R;
#X obj 800 179 inlet PAN;
#X obj 71 7 cnv 5 18 10 empty empty PAN 0 5 0 10 #a8d0b4 #000000 0
;
#X msg 360 440 compatibility 0.47;
#X msg 360 479 send pd;
#X connect 7 0 8 0;
#X connect 8 0 14 0;
#X connect 9 0 8 1;
#X connect 10 0 11 0;
#X connect 11 0 12 0;
#X connect 12 0 13 0;
#X connect 13 0 15 0;
#X connect 15 0 22 0;
#X connect 16 0 15 1;
#X connect 17 0 34 0;
#X connect 18 0 19 0;
#X connect 19 0 17 1;
#X connect 20 0 18 0;
#X connect 21 0 11 0;
#X connect 22 0 14 0;
#X connect 22 0 17 0;
#X connect 24 0 22 1;
#X connect 28 0 30 0;
#X connect 29 0 28 0;
#X connect 31 0 28 0;
#X connect 31 0 40 0;
#X connect 32 0 34 2;
#X connect 33 0 32 0;
#X connect 34 0 36 0;
#X connect 34 1 37 0;
#X connect 35 0 33 0;
#X connect 35 0 32 1;
#X connect 35 0 34 1;
#X connect 38 0 33 0;
#X connect 38 0 32 1;
#X connect 38 0 34 1;
#X connect 40 0 41 0;
#X coords 0 -1 1 1 150 200 2 5 5;
