#N canvas 0 0 1904 976 12;
#X obj 7 7 cnv 15 146 196 empty empty STRING-2 0 20 0 14 #a8d0b4 #000000
0;
#X obj 7 7 cnv 5 18 10 empty empty PCH 0 5 0 10 #a8d0b4 #000000 0;
#X obj 135 7 cnv 5 18 10 empty empty ENV 0 5 0 10 #a8d0b4 #000000 0
;
#X obj 7 193 cnv 5 18 10 empty empty L 0 5 0 10 #a8d0b4 #000000 0;
#X obj 17 80 hsl 128 12 0 127 0 0 \$0-notes-send \$0-notes-recv NOTES
-2 -8 0 10 #dcdcdc #000000 #000000 0 1;
#X obj 17 107 hsl 128 12 0 1 0 0 \$0-decay-send \$0-decay-recv DECAY
-2 -8 0 10 #dcdcdc #000000 #000000 0 1;
#X obj 17 135 hsl 128 12 0 1 0 0 \$0-gain-send \$0-gain-recv GAIN -2
-8 0 10 #dcdcdc #000000 #000000 0 1;
#X obj 635 259 *~;
#X obj 918 146 inlet~ ENV;
#X obj 903 209 r \$0-notes-send;
#X obj 903 248 mtof;
#X obj 903 272 expr 1000 / $f1;
#X obj 903 308 delread4~ \$0-buffer;
#X obj 902 361 *~ 0.99;
#X obj 948 334 r \$0-decay-send;
#X obj 902 523 *~;
#X obj 921 464 pack f 50;
#X obj 921 488 line~;
#X obj 921 439 r \$0-gain-send;
#X obj 717 148 inlet PCH;
#X obj 17 162 hsl 128 12 1000 10000 0 0 \$0-cutoff-send \$0-cutoff-recv
CUTOFF -2 -8 0 10 #dcdcdc #000000 #000000 0 1;
#X obj 962 369 r \$0-cutoff-send;
#N canvas 0 0 1920 997 NOISE-TYPE 0;
#X obj 93 307 *~;
#X obj 111 245 pack f 50;
#X obj 111 281 line~;
#X obj 332 306 *~;
#X obj 350 244 pack f 50;
#X obj 350 280 line~;
#X obj 846 295 *~;
#X obj 864 233 pack f 50;
#X obj 864 269 line~;
#X obj 48 144 noise~;
#X obj 49 178 lop~ 50;
#X obj 49 202 lop~ 50;
#X obj 49 226 lop~ 50;
#X obj 49 250 lop~ 50;
#X obj 259 52 noise~;
#X obj 259 76 hip~ 50;
#X obj 259 104 hip~ 50;
#X obj 259 131 hip~ 50;
#X obj 259 159 hip~ 50;
#X obj 260 191 lop~ 250;
#X obj 260 215 lop~ 250;
#X obj 260 239 lop~ 250;
#X obj 261 263 lop~ 250;
#X text 338 147 brown noise;
#X text 117 146 black noise;
#X obj 775 52 noise~;
#X obj 775 76 hip~ 500;
#X obj 775 104 hip~ 500;
#X obj 775 131 hip~ 500;
#X obj 775 159 hip~ 500;
#X obj 776 191 lop~ 1000;
#X obj 776 215 lop~ 1000;
#X obj 776 239 lop~ 1000;
#X obj 776 263 lop~ 1000;
#X text 855 147 orange noise;
#X obj 595 303 *~;
#X obj 598 233 pack f 50;
#X obj 598 269 line~;
#X obj 519 101 hip~ 250;
#X obj 519 125 hip~ 250;
#X obj 519 149 hip~ 250;
#X obj 519 173 hip~ 250;
#X obj 519 197 lop~ 500;
#X obj 519 221 lop~ 500;
#X obj 519 269 lop~ 500;
#X obj 519 245 lop~ 500;
#X text 589 146 red noise;
#X obj 519 75 noise~;
#X obj 853 670 outlet~ NOISE;
#X obj 1671 237 inlet NOISE-SELECT;
#X obj 1030 301 *~;
#X obj 1048 239 pack f 50;
#X obj 1048 275 line~;
#X obj 1269 300 *~;
#X obj 1287 238 pack f 50;
#X obj 1287 274 line~;
#X obj 966 53 noise~;
#X obj 966 77 hip~ 1000;
#X obj 966 105 hip~ 1000;
#X obj 967 132 hip~ 1000;
#X obj 966 160 hip~ 1000;
#X obj 967 192 lop~ 3000;
#X obj 967 216 lop~ 3000;
#X obj 967 240 lop~ 3000;
#X obj 967 264 lop~ 3000;
#X obj 1268 203 noise~;
#X text 1064 147 yellow noise;
#X obj 1671 293 bng 15 250 50 0 empty empty empty 17 7 0 10 #fcfcfc
#000000 #000000;
#X msg 1650 316 1;
#X msg 1689 314 0;
#X obj 1687 339 bng 15 250 50 0 empty empty empty 17 7 0 10 #fcfcfc
#000000 #000000;
#X msg 1666 361 1;
#X msg 1701 361 0;
#X obj 1705 393 bng 15 250 50 0 empty empty empty 17 7 0 10 #fcfcfc
#000000 #000000;
#X msg 1684 415 1;
#X msg 1715 420 0;
#X obj 1721 447 bng 15 250 50 0 empty empty empty 17 7 0 10 #fcfcfc
#000000 #000000;
#X msg 1700 469 1;
#X msg 1743 467 0;
#X obj 1739 496 bng 15 250 50 0 empty empty empty 17 7 0 10 #fcfcfc
#000000 #000000;
#X msg 1718 518 1;
#X msg 1755 519 0;
#X obj 1756 549 bng 15 250 50 0 empty empty empty 17 7 0 10 #fcfcfc
#000000 #000000;
#X msg 1735 571 1;
#X msg 1769 572 0;
#X text 1304 142 white noise;
#X obj 1671 264 sel 0 1 2 3 4 5;
#X connect 0 0 48 0;
#X connect 1 0 2 0;
#X connect 2 0 0 1;
#X connect 3 0 48 0;
#X connect 4 0 5 0;
#X connect 5 0 3 1;
#X connect 6 0 48 0;
#X connect 7 0 8 0;
#X connect 8 0 6 1;
#X connect 9 0 10 0;
#X connect 10 0 11 0;
#X connect 11 0 12 0;
#X connect 12 0 13 0;
#X connect 13 0 0 0;
#X connect 14 0 15 0;
#X connect 15 0 16 0;
#X connect 16 0 17 0;
#X connect 17 0 18 0;
#X connect 18 0 19 0;
#X connect 19 0 20 0;
#X connect 20 0 21 0;
#X connect 21 0 22 0;
#X connect 22 0 3 0;
#X connect 25 0 26 0;
#X connect 26 0 27 0;
#X connect 27 0 28 0;
#X connect 28 0 29 0;
#X connect 29 0 30 0;
#X connect 30 0 31 0;
#X connect 31 0 32 0;
#X connect 32 0 33 0;
#X connect 33 0 6 0;
#X connect 35 0 48 0;
#X connect 36 0 37 0;
#X connect 37 0 35 1;
#X connect 38 0 39 0;
#X connect 39 0 40 0;
#X connect 40 0 41 0;
#X connect 41 0 42 0;
#X connect 42 0 43 0;
#X connect 43 0 45 0;
#X connect 44 0 35 0;
#X connect 45 0 44 0;
#X connect 47 0 38 0;
#X connect 49 0 86 0;
#X connect 50 0 48 0;
#X connect 51 0 52 0;
#X connect 52 0 50 1;
#X connect 53 0 48 0;
#X connect 54 0 55 0;
#X connect 55 0 53 1;
#X connect 56 0 57 0;
#X connect 57 0 58 0;
#X connect 58 0 59 0;
#X connect 59 0 60 0;
#X connect 60 0 61 0;
#X connect 61 0 62 0;
#X connect 62 0 63 0;
#X connect 63 0 64 0;
#X connect 64 0 50 0;
#X connect 65 0 53 0;
#X connect 67 0 68 0;
#X connect 67 0 69 0;
#X connect 68 0 1 0;
#X connect 69 0 54 0;
#X connect 69 0 51 0;
#X connect 69 0 7 0;
#X connect 69 0 36 0;
#X connect 69 0 4 0;
#X connect 70 0 71 0;
#X connect 70 0 72 0;
#X connect 71 0 4 0;
#X connect 72 0 1 0;
#X connect 72 0 36 0;
#X connect 72 0 7 0;
#X connect 72 0 51 0;
#X connect 72 0 54 0;
#X connect 73 0 74 0;
#X connect 73 0 75 0;
#X connect 74 0 36 0;
#X connect 75 0 1 0;
#X connect 75 0 4 0;
#X connect 75 0 7 0;
#X connect 75 0 51 0;
#X connect 75 0 54 0;
#X connect 76 0 77 0;
#X connect 76 0 78 0;
#X connect 77 0 7 0;
#X connect 78 0 1 0;
#X connect 78 0 4 0;
#X connect 78 0 36 0;
#X connect 78 0 51 0;
#X connect 78 0 54 0;
#X connect 79 0 80 0;
#X connect 79 0 81 0;
#X connect 80 0 51 0;
#X connect 81 0 1 0;
#X connect 81 0 4 0;
#X connect 81 0 36 0;
#X connect 81 0 7 0;
#X connect 81 0 54 0;
#X connect 82 0 83 0;
#X connect 82 0 84 0;
#X connect 83 0 54 0;
#X connect 84 0 1 0;
#X connect 84 0 4 0;
#X connect 84 0 36 0;
#X connect 84 0 7 0;
#X connect 84 0 51 0;
#X connect 86 0 67 0;
#X connect 86 1 70 0;
#X connect 86 2 73 0;
#X connect 86 3 76 0;
#X connect 86 4 79 0;
#X connect 86 5 82 0;
#X restore 493 213 pd NOISE-TYPE;
#X obj 15 48 hradio 15 1 0 6 \$0-noiseselect-send \$0-noiseselect-recv
TIMBRE 0 -8 0 10 #dcdcdc #000000 #000000 0;
#X obj 493 176 r \$0-noiseselect-send;
#X obj 421 175 loadbang;
#X msg 421 202 0;
#X obj 659 206 pack f 50;
#X obj 659 230 line~;
#X obj 659 177 / 127;
#X obj 636 309 delwrite~ \$0-buffer 500;
#X obj 902 396 lop~ 1000;
#X obj 135 193 cnv 5 18 10 empty empty R 10 5 0 10 #a8d0b4 #000000
0;
#X obj 950 622 -;
#X msg 950 579 1;
#N canvas 0 0 1920 997 PAN 0;
#X obj 944 347 pack f 50;
#X obj 944 371 line~;
#X obj 925 458 *~;
#X obj 856 295 inlet~ SND;
#X obj 944 295 inlet VOLUME-LEFT;
#X obj 1199 348 pack f 50;
#X obj 1199 372 line~;
#X obj 1182 458 *~;
#X obj 1199 292 inlet VOLUME-RIGHT;
#X obj 967 656 outlet~ LEFT;
#X obj 1079 658 outlet~ RIGHT;
#X connect 0 0 1 0;
#X connect 1 0 2 1;
#X connect 2 0 9 0;
#X connect 3 0 2 0;
#X connect 3 0 7 0;
#X connect 4 0 0 0;
#X connect 5 0 6 0;
#X connect 6 0 7 1;
#X connect 7 0 10 0;
#X connect 8 0 5 0;
#X restore 903 662 pd PAN;
#X obj 936 546 r \$0-pan-send;
#X obj 884 731 outlet~ L;
#X obj 966 731 outlet~ R;
#X obj 810 148 inlet PAN;
#X msg 401 357 0.5;
#X obj 401 327 r \$0-rst-send;
#X obj 401 392 s \$0-pan-recv;
#X obj 358 294 loadbang;
#X obj 54 188 hsl 64 12 0 1 0 0 \$0-pan-send \$0-pan-recv PAN -2 -8
0 10 #dcdcdc #000000 #000000 3150 1;
#X obj 39 188 bng 10 250 50 0 \$0-rst-send \$0-rst-recv empty 17 7
0 10 #dcdcdc #0400fc #000000;
#X obj 70 7 cnv 5 18 10 empty empty PAN 0 5 0 10 #a8d0b4 #000000 0
;
#X msg 356 490 compatibility 0.47;
#X msg 356 529 send pd;
#X connect 7 0 30 0;
#X connect 8 0 7 1;
#X connect 9 0 10 0;
#X connect 9 0 29 0;
#X connect 10 0 11 0;
#X connect 11 0 12 0;
#X connect 12 0 13 0;
#X connect 13 0 31 0;
#X connect 14 0 13 1;
#X connect 15 0 35 0;
#X connect 16 0 17 0;
#X connect 17 0 15 1;
#X connect 18 0 16 0;
#X connect 19 0 10 0;
#X connect 21 0 31 1;
#X connect 22 0 7 0;
#X connect 24 0 22 0;
#X connect 25 0 26 0;
#X connect 26 0 22 0;
#X connect 27 0 28 0;
#X connect 28 0 7 1;
#X connect 29 0 27 0;
#X connect 31 0 15 0;
#X connect 31 0 30 0;
#X connect 33 0 35 2;
#X connect 34 0 33 0;
#X connect 35 0 37 0;
#X connect 35 1 38 0;
#X connect 36 0 34 0;
#X connect 36 0 33 1;
#X connect 36 0 35 1;
#X connect 39 0 34 0;
#X connect 39 0 33 1;
#X connect 39 0 35 1;
#X connect 40 0 42 0;
#X connect 41 0 40 0;
#X connect 43 0 40 0;
#X connect 43 0 47 0;
#X connect 47 0 48 0;
#X coords 0 -1 1 1 150 200 2 5 5;
