#N canvas 0 0 1904 976 12;
#X obj 7 7 cnv 15 146 196 empty empty VCA 0 20 0 14 #a8d0b4 #000000
0;
#X obj 7 7 cnv 5 18 10 empty empty CH1 0 5 0 10 #a8d0b4 #000000 0;
#X obj 17 86 hsl 128 12 0 1 0 0 \$0-ampch1-send \$0-ampch1-recv AMP-CH1
-2 -8 0 10 #dcdcdc #000000 #000000 0 1;
#X obj 17 113 hsl 128 12 0 1 0 0 \$0-cv-send \$0-cv-recv CV -2 -8 0
10 #dcdcdc #000000 #000000 0 1;
#X obj 367 107 inlet~ CH1;
#X obj 368 387 *~;
#X obj 384 263 pack f 50;
#X obj 384 301 line~;
#X obj 385 347 +~;
#X obj 509 340 *~;
#X obj 528 262 pack f 50;
#X obj 528 300 line~;
#X obj 384 228 r \$0-ampch1-send;
#X obj 135 7 cnv 5 18 10 empty empty CV 5 5 0 10 #a8d0b4 #000000 0
;
#X obj 7 193 cnv 5 18 10 empty empty OUT 0 5 0 10 #a8d0b4 #000000 0
;
#X obj 508 107 inlet~ CV;
#X obj 369 441 outlet~ OUT;
#X obj 528 224 r \$0-cv-send;
#X msg 208 323 compatibility 0.47;
#X msg 208 362 send pd;
#X obj 208 284 loadbang;
#X connect 4 0 5 0;
#X connect 5 0 16 0;
#X connect 6 0 7 0;
#X connect 7 0 8 0;
#X connect 8 0 5 1;
#X connect 9 0 8 1;
#X connect 10 0 11 0;
#X connect 11 0 9 1;
#X connect 12 0 6 0;
#X connect 15 0 9 0;
#X connect 17 0 10 0;
#X connect 18 0 19 0;
#X connect 20 0 18 0;
#X coords 0 -1 1 1 150 200 2 5 5;
