#N canvas 0 0 1904 976 12;
#X obj 7 7 cnv 15 146 196 empty empty VCF 0 20 0 14 #a8d0b4 #000000
0;
#X obj 7 7 cnv 5 18 10 empty empty SND 0 5 0 10 #a8d0b4 #000000 0;
#X obj 135 7 cnv 5 18 10 empty empty CV 5 5 0 10 #a8d0b4 #000000 0
;
#X obj 135 193 cnv 5 18 10 empty empty LP 5 5 0 10 #a8d0b4 #000000
0;
#X obj 7 193 cnv 5 18 10 empty empty BP 0 5 0 10 #a8d0b4 #000000 0
;
#X obj 17 69 hsl 128 12 0 127 0 0 \$0-depth-send \$0-depth-recv DEPTH
-2 -8 0 10 #dcdcdc #000000 #000000 0 1;
#X obj 17 96 hsl 128 12 0 127 0 0 \$0-cutoff-send \$0-cutoff-recv CUTOFF
-2 -8 0 10 #dcdcdc #000000 #000000 0 1;
#X obj 17 125 hsl 128 12 0 30 0 0 \$0-q-send \$0-q-recv Q -2 -8 0 10
#dcdcdc #000000 #000000 0 1;
#X obj 565 189 *~;
#X obj 566 245 +~;
#X obj 554 354 vcf~;
#X obj 494 480 outlet~ BP;
#X obj 707 483 outlet~ LP;
#X obj 565 98 inlet~ CV;
#X obj 459 96 inlet~ SND;
#X obj 661 80 r \$0-depth-send;
#X obj 598 192 r \$0-cutoff-send;
#X obj 579 319 r \$0-q-send;
#X obj 598 221 mtof;
#X obj 661 120 pack f 50;
#X obj 661 159 line~;
#X msg 266 311 compatibility 0.47;
#X msg 266 350 send pd;
#X obj 266 272 loadbang;
#X connect 8 0 9 0;
#X connect 9 0 10 1;
#X connect 10 0 11 0;
#X connect 10 1 12 0;
#X connect 13 0 8 0;
#X connect 14 0 10 0;
#X connect 15 0 19 0;
#X connect 16 0 18 0;
#X connect 17 0 10 2;
#X connect 18 0 9 1;
#X connect 19 0 20 0;
#X connect 20 0 8 1;
#X connect 21 0 22 0;
#X connect 23 0 21 0;
#X coords 0 -1 1 1 150 200 2 5 5;
