#N canvas 0 0 1904 976 12;
#X obj 7 7 cnv 15 146 196 empty empty VCO 0 20 0 14 #a8d0b4 #000000
0;
#X obj 7 7 cnv 5 18 10 empty empty PCH 0 5 0 10 #a8d0b4 #000000 0;
#X obj 135 7 cnv 5 18 10 empty empty PWM 0 5 0 10 #a8d0b4 #000000 0
;
#X obj 135 193 cnv 5 18 10 empty empty SAW 0 5 0 10 #a8d0b4 #000000
0;
#X obj 7 193 cnv 5 18 10 empty empty SIN 0 5 0 10 #a8d0b4 #000000 0
;
#X obj 17 49 hsl 128 12 0 127 0 0 \$0-notes-send \$0-notes-recv NOTES
-2 -8 0 10 #dcdcdc #000000 #000000 0 1;
#N canvas 0 0 1920 997 OSC1 0;
#X obj 584 151 mtof;
#N canvas 0 0 1366 725 nyquist 0;
#X obj 318 61 samplerate~;
#X obj 318 337 s \$0-nyquist;
#X obj 318 13 loadbang;
#X obj 318 259 -;
#X obj 413 16 bng 15 250 50 0 empty empty empty 17 7 0 10 #fcfcfc #000000
#000000;
#X floatatom 318 303 12 0 0 0 - - -, f 12;
#X obj 318 119 * 0.5;
#X obj 318 169 t b f f;
#X obj 364 212 * 0.2;
#X connect 0 0 6 0;
#X connect 2 0 0 0;
#X connect 3 0 5 0;
#X connect 4 0 0 0;
#X connect 5 0 1 0;
#X connect 6 0 7 0;
#X connect 7 0 3 0;
#X connect 7 1 3 0;
#X connect 7 2 8 0;
#X connect 8 0 3 1;
#X restore 379 283 pd nyquist;
#X obj 584 115 inlet PCH;
#X obj 1158 121 inlet PWM;
#N canvas 0 0 1920 997 SIN-OSC 0;
#X obj 402 184 osc~;
#X obj 402 220 lop~;
#X obj 446 194 r \$0-nyquist;
#X obj 403 134 inlet~ NOTE;
#X obj 403 295 outlet~ OUT;
#X connect 0 0 1 0;
#X connect 1 0 4 0;
#X connect 2 0 1 1;
#X connect 3 0 0 0;
#X restore 619 368 pd SIN-OSC;
#N canvas 0 0 1366 725 TRI-OSC 0;
#X obj 276 113 phasor~;
#X obj 275 224 min~;
#X obj 345 148 *~ -1;
#X obj 275 265 *~ 4;
#X obj 274 305 -~ 1;
#X obj 344 178 +~ 1;
#X obj 274 339 lop~;
#X obj 348 309 r \$0-nyquist;
#X obj 274 385 outlet~ OUT;
#X obj 276 59 inlet~ NOTE;
#X connect 0 0 1 0;
#X connect 0 0 2 0;
#X connect 1 0 3 0;
#X connect 2 0 5 0;
#X connect 3 0 4 0;
#X connect 4 0 6 0;
#X connect 5 0 1 1;
#X connect 6 0 8 0;
#X connect 7 0 6 1;
#X connect 9 0 0 0;
#X restore 771 367 pd TRI-OSC;
#N canvas 0 0 1366 725 SQR-OSC 0;
#X obj 263 125 phasor~;
#X obj 262 244 *~ 2;
#X obj 262 281 -~ 1;
#X obj 262 157 cos~;
#X obj 479 66 * 0.00787402;
#X obj 479 102 pack 0 50;
#X obj 262 211 expr~ $v1 < $v2;
#X obj 479 152 line~;
#X obj 263 315 lop~;
#X obj 333 294 r \$0-nyquist;
#X obj 479 28 inlet PWM;
#X obj 263 75 inlet~ NOTE;
#X obj 262 349 outlet~ OUT;
#X connect 0 0 3 0;
#X connect 1 0 2 0;
#X connect 2 0 8 0;
#X connect 3 0 6 0;
#X connect 4 0 5 0;
#X connect 5 0 7 0;
#X connect 6 0 1 0;
#X connect 7 0 6 1;
#X connect 8 0 12 0;
#X connect 9 0 8 1;
#X connect 10 0 4 0;
#X connect 11 0 0 0;
#X restore 1078 359 pd SQR-OSC;
#N canvas 0 0 1366 725 SAW-OSC 0;
#X obj 283 179 phasor~;
#X obj 283 242 *~ 2;
#X obj 282 299 -~ 1;
#X obj 281 370 lop~;
#X obj 344 339 r \$0-nyquist;
#X obj 283 94 inlet~ NOTE;
#X obj 282 433 outlet~ OUT;
#X connect 0 0 1 0;
#X connect 1 0 2 0;
#X connect 2 0 3 0;
#X connect 3 0 6 0;
#X connect 4 0 3 1;
#X connect 5 0 0 0;
#X restore 1318 364 pd SAW-OSC;
#X obj 618 620 outlet~ OUT-SIN;
#X obj 772 621 outlet~ OUT-TRI;
#X obj 1078 607 outlet~ OUT-SQR;
#X obj 1319 610 outlet~ OUT-SAW;
#X obj 736 116 inlet~ FREQUENCY-MOD;
#X obj 933 116 inlet~ AMPLITUDE-MOD;
#X obj 718 301 +~;
#X obj 735 242 *~;
#X obj 753 144 r \$0-fmcv-send;
#X obj 753 176 pack f 50;
#X obj 753 208 line~;
#X obj 758 301 r \$0-fmstart-send;
#N canvas 0 0 1920 997 FM-SWITCH 0;
#X obj 406 175 inlet~ NORMAL;
#X obj 531 176 inlet~ WITH-FM;
#X obj 675 178 inlet FM-START;
#X obj 675 216 sel 0 1;
#X obj 675 258 bng 15 250 50 0 empty empty empty 17 7 0 10 #fcfcfc
#000000 #000000;
#X msg 675 288 0;
#X msg 713 289 1;
#X obj 406 337 *~;
#X obj 424 277 pack f 50;
#X obj 424 310 line~;
#X obj 531 341 *~;
#X obj 548 279 pack f 50;
#X obj 548 312 line~;
#X obj 698 326 bng 15 250 50 0 empty empty empty 17 7 0 10 #fcfcfc
#000000 #000000;
#X msg 698 356 0;
#X msg 736 357 1;
#X obj 459 399 outlet~;
#X connect 0 0 7 0;
#X connect 1 0 10 0;
#X connect 2 0 3 0;
#X connect 3 0 4 0;
#X connect 3 1 13 0;
#X connect 4 0 5 0;
#X connect 4 0 6 0;
#X connect 5 0 11 0;
#X connect 6 0 8 0;
#X connect 7 0 16 0;
#X connect 8 0 9 0;
#X connect 9 0 7 1;
#X connect 10 0 16 0;
#X connect 11 0 12 0;
#X connect 12 0 10 1;
#X connect 13 0 14 0;
#X connect 13 0 15 0;
#X connect 14 0 8 0;
#X connect 15 0 11 0;
#X restore 677 334 pd FM-SWITCH;
#N canvas 0 0 1920 997 AM-SWITCH 0;
#X obj 406 175 inlet~ NORMAL;
#X obj 675 216 sel 0 1;
#X obj 675 258 bng 15 250 50 0 empty empty empty 17 7 0 10 #fcfcfc
#000000 #000000;
#X msg 675 288 0;
#X msg 713 289 1;
#X obj 406 337 *~;
#X obj 424 277 pack f 50;
#X obj 424 310 line~;
#X obj 531 341 *~;
#X obj 548 279 pack f 50;
#X obj 548 312 line~;
#X obj 698 326 bng 15 250 50 0 empty empty empty 17 7 0 10 #fcfcfc
#000000 #000000;
#X msg 698 356 0;
#X msg 736 357 1;
#X obj 459 399 outlet~;
#X obj 531 176 inlet~ WITH-AM;
#X obj 675 178 inlet AM-START;
#X connect 0 0 5 0;
#X connect 1 0 2 0;
#X connect 1 1 11 0;
#X connect 2 0 3 0;
#X connect 2 0 4 0;
#X connect 3 0 9 0;
#X connect 4 0 6 0;
#X connect 5 0 14 0;
#X connect 6 0 7 0;
#X connect 7 0 5 1;
#X connect 8 0 14 0;
#X connect 9 0 10 0;
#X connect 10 0 8 1;
#X connect 11 0 12 0;
#X connect 11 0 13 0;
#X connect 12 0 6 0;
#X connect 13 0 9 0;
#X connect 15 0 8 0;
#X connect 16 0 1 0;
#X restore 644 555 pd AM-SWITCH;
#X obj 702 427 pack f 50;
#X obj 702 459 line~;
#X obj 702 395 r \$0-amcv-send;
#X obj 725 523 r \$0-amstart-send;
#X obj 685 506 *~;
#X obj 669 530 *~;
#N canvas 0 0 1920 997 AM-SWITCH 0;
#X obj 406 175 inlet~ NORMAL;
#X obj 675 216 sel 0 1;
#X obj 675 258 bng 15 250 50 0 empty empty empty 17 7 0 10 #fcfcfc
#000000 #000000;
#X msg 675 288 0;
#X msg 713 289 1;
#X obj 406 337 *~;
#X obj 424 277 pack f 50;
#X obj 424 310 line~;
#X obj 531 341 *~;
#X obj 548 279 pack f 50;
#X obj 548 312 line~;
#X obj 698 326 bng 15 250 50 0 empty empty empty 17 7 0 10 #fcfcfc
#000000 #000000;
#X msg 698 356 0;
#X msg 736 357 1;
#X obj 459 399 outlet~;
#X obj 531 176 inlet~ WITH-AM;
#X obj 675 178 inlet AM-START;
#X connect 0 0 5 0;
#X connect 1 0 2 0;
#X connect 1 1 11 0;
#X connect 2 0 3 0;
#X connect 2 0 4 0;
#X connect 3 0 9 0;
#X connect 4 0 6 0;
#X connect 5 0 14 0;
#X connect 6 0 7 0;
#X connect 7 0 5 1;
#X connect 8 0 14 0;
#X connect 9 0 10 0;
#X connect 10 0 8 1;
#X connect 11 0 12 0;
#X connect 11 0 13 0;
#X connect 12 0 6 0;
#X connect 13 0 9 0;
#X connect 15 0 8 0;
#X connect 16 0 1 0;
#X restore 852 554 pd AM-SWITCH;
#X obj 910 426 pack f 50;
#X obj 910 458 line~;
#X obj 910 394 r \$0-amcv-send;
#X obj 933 522 r \$0-amstart-send;
#X obj 893 505 *~;
#X obj 877 529 *~;
#N canvas 0 0 1920 997 AM-SWITCH 0;
#X obj 406 175 inlet~ NORMAL;
#X obj 675 216 sel 0 1;
#X obj 675 258 bng 15 250 50 0 empty empty empty 17 7 0 10 #fcfcfc
#000000 #000000;
#X msg 675 288 0;
#X msg 713 289 1;
#X obj 406 337 *~;
#X obj 424 277 pack f 50;
#X obj 424 310 line~;
#X obj 531 341 *~;
#X obj 548 279 pack f 50;
#X obj 548 312 line~;
#X obj 698 326 bng 15 250 50 0 empty empty empty 17 7 0 10 #fcfcfc
#000000 #000000;
#X msg 698 356 0;
#X msg 736 357 1;
#X obj 459 399 outlet~;
#X obj 531 176 inlet~ WITH-AM;
#X obj 675 178 inlet AM-START;
#X connect 0 0 5 0;
#X connect 1 0 2 0;
#X connect 1 1 11 0;
#X connect 2 0 3 0;
#X connect 2 0 4 0;
#X connect 3 0 9 0;
#X connect 4 0 6 0;
#X connect 5 0 14 0;
#X connect 6 0 7 0;
#X connect 7 0 5 1;
#X connect 8 0 14 0;
#X connect 9 0 10 0;
#X connect 10 0 8 1;
#X connect 11 0 12 0;
#X connect 11 0 13 0;
#X connect 12 0 6 0;
#X connect 13 0 9 0;
#X connect 15 0 8 0;
#X connect 16 0 1 0;
#X restore 1076 562 pd AM-SWITCH;
#X obj 1134 434 pack f 50;
#X obj 1134 466 line~;
#X obj 1134 402 r \$0-amcv-send;
#X obj 1157 530 r \$0-amstart-send;
#X obj 1117 513 *~;
#X obj 1101 537 *~;
#N canvas 0 0 1920 997 AM-SWITCH 0;
#X obj 406 175 inlet~ NORMAL;
#X obj 675 216 sel 0 1;
#X obj 675 258 bng 15 250 50 0 empty empty empty 17 7 0 10 #fcfcfc
#000000 #000000;
#X msg 675 288 0;
#X msg 713 289 1;
#X obj 406 337 *~;
#X obj 424 277 pack f 50;
#X obj 424 310 line~;
#X obj 531 341 *~;
#X obj 548 279 pack f 50;
#X obj 548 312 line~;
#X obj 698 326 bng 15 250 50 0 empty empty empty 17 7 0 10 #fcfcfc
#000000 #000000;
#X msg 698 356 0;
#X msg 736 357 1;
#X obj 459 399 outlet~;
#X obj 531 176 inlet~ WITH-AM;
#X obj 675 178 inlet AM-START;
#X connect 0 0 5 0;
#X connect 1 0 2 0;
#X connect 1 1 11 0;
#X connect 2 0 3 0;
#X connect 2 0 4 0;
#X connect 3 0 9 0;
#X connect 4 0 6 0;
#X connect 5 0 14 0;
#X connect 6 0 7 0;
#X connect 7 0 5 1;
#X connect 8 0 14 0;
#X connect 9 0 10 0;
#X connect 10 0 8 1;
#X connect 11 0 12 0;
#X connect 11 0 13 0;
#X connect 12 0 6 0;
#X connect 13 0 9 0;
#X connect 15 0 8 0;
#X connect 16 0 1 0;
#X restore 1311 555 pd AM-SWITCH;
#X obj 1369 427 pack f 50;
#X obj 1369 459 line~;
#X obj 1369 395 r \$0-amcv-send;
#X obj 1392 523 r \$0-amstart-send;
#X obj 1352 506 *~;
#X obj 1336 530 *~;
#X obj 428 395 loadbang;
#X msg 429 431 0;
#X obj 933 155 +~ 1;
#X obj 934 184 /~ 2;
#X text 982 165 make the modulator unipolar;
#X connect 0 0 20 0;
#X connect 0 0 14 1;
#X connect 2 0 0 0;
#X connect 3 0 6 1;
#X connect 4 0 21 0;
#X connect 4 0 27 0;
#X connect 5 0 34 0;
#X connect 5 0 28 0;
#X connect 6 0 41 0;
#X connect 6 0 35 0;
#X connect 7 0 48 0;
#X connect 7 0 42 0;
#X connect 12 0 15 0;
#X connect 13 0 51 0;
#X connect 14 0 20 1;
#X connect 15 0 14 0;
#X connect 16 0 17 0;
#X connect 17 0 18 0;
#X connect 18 0 15 1;
#X connect 19 0 20 2;
#X connect 20 0 4 0;
#X connect 20 0 5 0;
#X connect 20 0 6 0;
#X connect 20 0 7 0;
#X connect 21 0 8 0;
#X connect 22 0 23 0;
#X connect 23 0 26 1;
#X connect 24 0 22 0;
#X connect 25 0 21 2;
#X connect 26 0 27 1;
#X connect 27 0 21 1;
#X connect 28 0 9 0;
#X connect 29 0 30 0;
#X connect 30 0 33 1;
#X connect 31 0 29 0;
#X connect 32 0 28 2;
#X connect 33 0 34 1;
#X connect 34 0 28 1;
#X connect 35 0 10 0;
#X connect 36 0 37 0;
#X connect 37 0 40 1;
#X connect 38 0 36 0;
#X connect 39 0 35 2;
#X connect 40 0 41 1;
#X connect 41 0 35 1;
#X connect 42 0 11 0;
#X connect 43 0 44 0;
#X connect 44 0 47 1;
#X connect 45 0 43 0;
#X connect 46 0 42 2;
#X connect 47 0 48 1;
#X connect 48 0 42 1;
#X connect 49 0 50 0;
#X connect 50 0 20 2;
#X connect 50 0 21 2;
#X connect 50 0 28 2;
#X connect 50 0 35 2;
#X connect 50 0 42 2;
#X connect 51 0 52 0;
#X connect 52 0 26 0;
#X connect 52 0 33 0;
#X connect 52 0 40 0;
#X connect 52 0 47 0;
#X restore 819 244 pd OSC1;
#X obj 17 76 hsl 128 12 0 127 0 0 \$0-pwm-send \$0-pwm-recv PWM -2
-8 0 10 #dcdcdc #000000 #000000 0 1;
#X obj 47 193 cnv 5 18 10 empty empty TRI 0 5 0 10 #a8d0b4 #000000
0;
#X obj 95 193 cnv 5 18 10 empty empty SQR 0 5 0 10 #a8d0b4 #000000
0;
#X obj 933 205 r \$0-pwm-send;
#X obj 819 205 r \$0-notes-send;
#X obj 736 141 inlet PCH;
#X obj 1156 138 inlet PWM;
#X obj 639 366 outlet~ SIN;
#X obj 756 366 outlet~ TRI;
#X obj 870 366 outlet~ SQR;
#X obj 993 366 outlet~ SAW;
#X obj 17 105 hsl 128 12 0 127 0 0 \$0-fmcv-send \$0-fmcv-recv FM-CV
-2 -8 0 10 #dcdcdc #000000 #000000 0 1;
#X obj 17 132 hsl 128 12 0 1 0 0 \$0-amcv-send \$0-amcv-recv AM-CV
-2 -8 0 10 #dcdcdc #000000 #000000 0 1;
#X obj 14 149 tgl 12 0 \$0-fmstart-send \$0-fmstart-recv FM->OFF/ON
17 7 0 10 #dcdcdc #000000 #000000 0 1;
#X obj 14 163 tgl 12 0 \$0-amstart-send \$0-amstart-recv AM->OFF/ON
17 7 0 10 #dcdcdc #000000 #000000 0 1;
#X obj 47 7 cnv 5 18 10 empty empty FM 3 5 0 10 #a8d0b4 #000000 0;
#X obj 94 7 cnv 5 18 10 empty empty AM 3 5 0 10 #a8d0b4 #000000 0;
#X obj 847 140 inlet~ FM;
#X obj 960 139 inlet~ AM;
#X msg 334 311 compatibility 0.47;
#X msg 334 350 send pd;
#X obj 334 272 loadbang;
#X connect 6 0 14 0;
#X connect 6 1 15 0;
#X connect 6 2 16 0;
#X connect 6 3 17 0;
#X connect 10 0 6 3;
#X connect 11 0 6 0;
#X connect 12 0 6 0;
#X connect 13 0 6 3;
#X connect 24 0 6 1;
#X connect 25 0 6 2;
#X connect 26 0 27 0;
#X connect 28 0 26 0;
#X coords 0 -1 1 1 150 200 2 5 5;
