#N canvas 206 88 450 300 12;
#X floatatom 135 82 5 1 350 0 - - -;
#X msg 135 176 label \$1;
#X obj 11 10 nbx 8 30 0 450 0 0 \$0-number_BPM_send empty empty 0 -8
0 10 -262144 -258113 -1 120 256;
#X obj 10 10 cnv 5 90 30 empty \$0-BPM_receive BPM 120 9 15 0 18 -66577
-228856 0;
#X text 181 81 <= click and drag;
#X obj 135 118 makefilename BPM\ %d;
#X obj 135 143 tcktk_save;
#X obj 135 227 send \$0-BPM_receive;
#X obj 135 54 receive \$0-number_BPM_send;
#X obj 323 175 sendOSC bpm;
#X msg 323 149 \$1 out;
#X obj 25 83 receiveOSC;
#X obj 25 107 route bpm;
#X obj 25 131 route awake;
#X obj 340 58 loadbang;
#X msg 340 82 120;
#X connect 0 0 5 0;
#X connect 0 0 10 0;
#X connect 1 0 7 0;
#X connect 5 0 6 0;
#X connect 6 0 1 0;
#X connect 8 0 0 0;
#X connect 10 0 9 0;
#X connect 11 0 12 0;
#X connect 12 0 13 0;
#X connect 13 0 0 0;
#X connect 14 0 15 0;
#X connect 15 0 0 0;
#X coords 0 -1 1 1 90 30 2 10 10;
