#N canvas 72 322 618 401 12;
#X obj 20 20 cnv 10 152 30 empty \$0-BPM_receive empty 9 15 0 18 -66577
-228856 0;
#X obj 25 196 metro;
#X obj 148 23 bng 22 100 20 0 empty empty empty 17 7 0 10 -66577 -257985
-1;
#X obj 25 24 tgl 22 0 empty empty empty 17 7 0 10 -228856 -66577 -1
0 1;
#X msg 48 114 bpm awake;
#X obj 48 138 sendOSC;
#X obj 25 53 t f b b;
#X obj 52 20 bpm-gui;
#N canvas 0 22 450 300 receiveBPM 0;
#X obj 66 31 receiveOSC bmp;
#X obj 66 149 else/bpm;
#X obj 66 55 route bpm;
#X obj 66 79 list split 1;
#X obj 66 103 list trim;
#X obj 66 127 route float;
#X obj 67 189 outlet;
#X connect 0 0 2 0;
#X connect 1 0 6 0;
#X connect 2 0 3 0;
#X connect 3 0 4 0;
#X connect 4 0 5 0;
#X connect 5 0 1 0;
#X restore 57 173 pd receiveBPM;
#N canvas 830 324 450 454 tick-sound 0;
#X obj 73 129 mtof;
#X obj 73 333 outlet~;
#X obj 123 248 vline~;
#X obj 72 287 *~;
#X obj 68 4 inlet;
#X obj 150 5 inlet;
#X obj 71 180 osc~;
#X msg 128 165 0 0 0 \, 1 4 4 \, 0 5 5;
#X obj 108 5 inlet;
#X msg 43 52 set \$1;
#X obj 172 41 - 0.3;
#X msg 174 66 set \$1;
#X msg 72 95 90;
#X msg 136 93 89.7;
#X connect 0 0 7 0;
#X connect 0 0 6 0;
#X connect 2 0 3 1;
#X connect 3 0 1 0;
#X connect 4 0 12 0;
#X connect 5 0 13 0;
#X connect 6 0 3 0;
#X connect 7 0 2 0;
#X connect 8 0 9 0;
#X connect 8 0 10 0;
#X connect 9 0 12 0;
#X connect 10 0 11 0;
#X connect 11 0 13 0;
#X connect 12 0 0 0;
#X connect 13 0 0 0;
#X restore 57 243 pd tick-sound;
#X obj 25 220 t b b;
#X msg 71 87 flashtime 20 100;
#X msg 268 82 set 0.8;
#X obj 235 34 loadbang;
#X obj 251 192 receiveOSC;
#X obj 251 256 route volume;
#X obj 251 232 route bpm;
#X obj 274 109 s volume_metronomo_receive;
#X obj 46 361 dac~;
#X obj 46 339 *~;
#X msg 198 237 0.8;
#X obj 147 320 vline~;
#X msg 155 292 \$1 40;
#X obj 235 58 t b b;
#X obj 364 168 cnv 15 240 220 empty empty empty 20 12 0 14 -233017
-66577 0;
#X text 377 182 ToDo:;
#X text 383 202 - metronomo usando abl_link~;
#X text 383 224 - bolar teste de latência na;
#X text 397 242 inicialização da interface;
#X obj 393 325 latency-tester;
#X obj 394 301 abl_link~;
#X text 383 263 - resumo: barra de transport;
#X connect 1 0 10 0;
#X connect 3 0 6 0;
#X connect 4 0 5 0;
#X connect 6 0 1 0;
#X connect 6 1 4 0;
#X connect 6 2 11 0;
#X connect 8 0 1 1;
#X connect 9 0 19 0;
#X connect 10 0 2 0;
#X connect 10 1 9 0;
#X connect 11 0 2 0;
#X connect 12 0 17 0;
#X connect 13 0 23 0;
#X connect 14 0 16 0;
#X connect 15 0 22 0;
#X connect 16 0 15 0;
#X connect 19 0 18 0;
#X connect 19 0 18 1;
#X connect 20 0 22 0;
#X connect 21 0 19 1;
#X connect 22 0 21 0;
#X connect 23 0 20 0;
#X connect 23 1 12 0;
#X coords 0 -1 1 1 152 30 2 20 20;
