#N canvas 323 215 835 431 12;
#X declare -lib else -path else;
#X obj 21 21 cnv 15 154 154 empty empty empty 20 12 0 14 -66577 -66577
0;
#X obj 63 140 pad 1 127 255 255 255;
#X obj 101 140 pad 2 127 255 255 255;
#X obj 139 140 pad 3 127 255 255 255;
#X obj 26 102 pad 4 127 255 255 255;
#X obj 63 102 pad 5 127 255 255 255;
#X obj 101 102 pad 6 127 255 255 255;
#X obj 26 64 pad 8 127 255 255 255;
#X obj 63 64 pad 9 127 255 255 255;
#X obj 101 64 pad 10 127 255 255 255;
#X obj 139 64 pad 11 127 255 255 255;
#X obj 26 26 pad 12 127 255 255 255;
#X obj 63 26 pad 13 127 255 255 255;
#X obj 101 26 pad 14 127 255 255 255;
#X obj 139 26 pad 15 127 255 255 255;
#X text 208 28 ToDo:;
#X obj 26 140 pad 0 127 255 255 255;
#X text 24 188 16 pads - 0 a 15;
#X obj 20 329 receiveOSC;
#N canvas 726 115 392 212 receivingMessages_fromPads 0;
#X obj 71 135 outlet;
#X obj 39 23 r pad_send;
#N canvas 0 50 450 300 hack_avoid_save_popup 0;
#X restore 186 25 pd hack_avoid_save_popup;
#X obj 71 62 t a b;
#X msg 104 88 \; pd-hack_avoid_save_popup dirty 0;
#X connect 1 0 3 0;
#X connect 3 0 0 0;
#X restore 527 338 pd receivingMessages_fromPads;
#N canvas 486 235 450 516 sendingMessages_toPads 0;
#X obj 215 213 loadbang;
#X obj 215 237 \$1;
#X obj 141 259 ==, f 11;
#X obj 39 284 spigot 0, f 15;
#X obj 275 217 bng 15 250 50 0 empty empty empty 17 7 0 10 -262144
-1 -1;
#X obj 39 329 list split 1;
#X obj 79 351 list trim;
#X obj 39 6 inlet;
#X text 156 352 this drumpad - integer argument;
#X obj 39 74 route drumpad;
#X obj 79 406 s pad_receive;
#X obj 79 375 route in;
#X obj 78 183 route float;
#X obj 39 116 t a a, f 6;
#X obj 78 137 list split 1;
#X obj 78 161 list trim;
#X msg 152 207 0;
#X connect 0 0 1 0;
#X connect 1 0 2 1;
#X connect 2 0 3 1;
#X connect 3 0 5 0;
#X connect 4 0 1 0;
#X connect 5 1 6 0;
#X connect 6 0 11 0;
#X connect 7 0 9 0;
#X connect 9 0 13 0;
#X connect 11 0 10 0;
#X connect 12 0 2 0;
#X connect 12 1 16 0;
#X connect 13 0 3 0;
#X connect 13 1 14 0;
#X connect 14 0 15 0;
#X connect 15 0 12 0;
#X connect 16 0 2 0;
#X restore 20 387 pd sendingMessages_toPads;
#X obj 527 375 sendOSC drumpad \$1 out;
#X text 256 105 As mensagens:;
#X text 270 129 - chegam por OSC via objeto [receiveOSC];
#X text 270 149 - formato: drumpad <numero> <in/out> pad <numero_do_pad>
bang, f 62;
#X text 287 168 exemplos:, f 59;
#X text 297 188 - drumpad 0 in pad 0 (no drumpad de argumento 0 aciona
bang pad 0), f 66;
#X text 297 208 - drumpad 0 out pad 0 bang (pad 0 acionado via interface)
, f 66;
#X text 295 235 loadbang positions;
#X obj 139 102 pad 7 127 255 255 255;
#X text 218 43 - documentar patch;
#N canvas 684 22 596 300 debug\ drumpad 0;
#X obj 31 27 bng 15 250 50 0 empty empty empty 17 7 0 10 -262144 -1
-1;
#X obj 31 75 print drumpad_number;
#X obj 31 51 \$1;
#N canvas 598 205 425 522 this_drumpad_messages 0;
#X obj 39 343 spigot 0;
#X obj 39 378 list split 1;
#X obj 79 400 list trim;
#X text 156 401 this drumpad - integer argument;
#X obj 39 15 receiveOSC;
#X obj 79 475 outlet;
#X obj 152 293 \$1;
#X obj 78 315 ==, f 11;
#X obj 39 90 route drumpad;
#X obj 78 199 route float;
#X obj 39 132 t a a, f 6;
#X obj 78 153 list split 1;
#X obj 78 177 list trim;
#X msg 152 223 0;
#X obj 152 269 lb;
#X connect 0 0 1 0;
#X connect 1 1 2 0;
#X connect 2 0 5 0;
#X connect 4 0 8 0;
#X connect 6 0 7 1;
#X connect 7 0 0 1;
#X connect 8 0 10 0;
#X connect 9 0 7 0;
#X connect 9 1 13 0;
#X connect 10 0 0 0;
#X connect 10 1 11 0;
#X connect 11 0 12 0;
#X connect 12 0 9 0;
#X connect 13 0 7 0;
#X connect 14 0 6 0;
#X restore 274 34 pd this_drumpad_messages;
#X obj 274 58 spigot 0;
#X obj 274 98 print messages_drumpad;
#X obj 238 23 tgl 35 0 empty empty empty 17 7 0 10 -262144 -1 -1 0
1;
#X connect 0 0 2 0;
#X connect 2 0 1 0;
#X connect 3 0 4 0;
#X connect 4 0 5 0;
#X connect 6 0 4 1;
#X restore 674 33 pd debug\ drumpad;
#X obj 597 8 declare -lib else -path else;
#X connect 18 0 20 0;
#X connect 19 0 21 0;
#X coords 0 -1 1 1 156 156 2 20 20;
