#N canvas 242 267 374 453 12;
#X obj 65 152 count 0 15;
#X obj 65 127 until;
#X obj 65 16 inlet;
#X msg 65 98 16;
#X obj 47 330 f;
#X obj 47 374 outlet;
#X obj 65 70 t b f, f 16;
#X obj 219 374 outlet;
#X text 55 353 active pad;
#X text 227 353 inactive pad;
#X obj 47 275 sel 1;
#X obj 65 184 t f f f, f 25;
#X obj 65 236 t f f;
#X obj 219 330 f;
#X obj 219 285 sel 0;
#X msg 174 145 set \$1-busy_pads;
#X obj 65 212 tabread busy_pads;
#X obj 384 125 bng 15 250 50 0 empty empty empty 17 7 0 10 -262144
-1 -1;
#X connect 0 0 11 0;
#X connect 0 1 1 1;
#X connect 1 0 0 0;
#X connect 2 0 6 0;
#X connect 3 0 1 0;
#X connect 4 0 5 0;
#X connect 6 0 3 0;
#X connect 6 1 15 0;
#X connect 10 0 4 0;
#X connect 11 0 16 0;
#X connect 11 1 4 1;
#X connect 11 2 13 1;
#X connect 12 0 10 0;
#X connect 12 1 14 0;
#X connect 13 0 7 0;
#X connect 14 0 13 0;
#X connect 15 0 16 0;
#X connect 16 0 12 0;
