#N canvas 51 37 960 400 10;
#N canvas 248 301 474 218 send_MessageFormat 0;
#X obj 37 37 inlet;
#X obj 37 158 outlet;
#X obj 37 129 list trim;
#X text 282 160 For detail see pad help;
#X text 209 67 pad <pad number> state <0-1>;
#X text 210 90 pad <pad number> timer <float>;
#X obj 37 88 list prepend pad \$1;
#X connect 0 0 6 0;
#X connect 2 0 1 0;
#X connect 6 0 2 0;
#X restore 170 330 pd send_MessageFormat;
#N canvas 637 287 307 189 receive_MessageFormat 0;
#X obj 49 38 inlet;
#X obj 49 149 outlet;
#X text 134 91 For detail see pad help;
#X obj 49 69 route pad;
#X obj 49 100 route \$1;
#X obj 94 119 route all;
#X connect 0 0 3 0;
#X connect 3 0 4 0;
#X connect 4 0 1 0;
#X connect 4 1 5 0;
#X connect 5 0 1 0;
#X restore 170 51 pd receive_MessageFormat;
#X text 303 332 formata mensagem para envio;
#X text 254 367 saída das mensagens da abstração [pad];
#X text 258 17 mensagens recebidas pelas abstrações [pad];
#X text 330 51 filtra mensagens destinadas a esta instância da abstração
[pad], f 34;
#X obj 170 366 s pad_send;
#X obj 170 18 r pad_receive;
#X obj 194 137 s \$0-button_in;
#N canvas 700 43 507 644 button_colors 0;
#X obj 40 14 inlet;
#X obj 40 65 route color;
#X obj 241 608 outlet;
#X obj 56 353 list trim;
#X obj 241 353 list trim;
#N canvas 815 -783 779 540 colors 0;
#X obj 511 67 bng 15 250 50 0 empty empty empty 17 7 0 10 -262144 -1
-1;
#X obj 509 112 bng 15 250 50 0 empty empty empty 17 7 0 10 -262144
-1 -1;
#X obj 509 152 bng 15 250 50 0 empty empty empty 17 7 0 10 -262144
-1 -1;
#X obj 509 192 bng 15 250 50 0 empty empty empty 17 7 0 10 -262144
-1 -1;
#X obj 509 232 bng 15 250 50 0 empty empty empty 17 7 0 10 -262144
-1 -1;
#X text 653 89 cinza;
#X text 654 129 amarelo;
#X text 664 169 vermelho;
#X text 634 209 verde;
#X text 629 249 azul;
#X obj 33 9 inlet;
#X obj 49 514 outlet;
#X obj 573 15 bng 15 250 50 0 empty empty empty 17 7 0 10 -262144 -1
-1;
#N canvas 562 360 450 141 colors_table-internet 0;
#X obj 37 37 inlet;
#X msg 37 58 browse https://www.rapidtables.com/web/color/RGB_Color.html
;
#X obj 37 79 pdcontrol;
#X connect 0 0 1 0;
#X connect 1 0 2 0;
#X restore 573 35 pd colors_table-internet;
#X obj 33 41 route grey yellow red green blue lightYellow lightRed
lightGreen lightBlue, f 76;
#X obj 509 282 bng 15 250 50 0 empty empty empty 17 7 0 10 -262144
-1 -1;
#X obj 509 322 bng 15 250 50 0 empty empty empty 17 7 0 10 -262144
-1 -1;
#X obj 509 362 bng 15 250 50 0 empty empty empty 17 7 0 10 -262144
-1 -1;
#X obj 509 402 bng 15 250 50 0 empty empty empty 17 7 0 10 -262144
-1 -1;
#X text 654 299 amarelo claro;
#X text 664 339 vermelho claro;
#X text 654 379 verde claro;
#X text 655 419 azul claro;
#X obj 509 300 else/pack2 255 255 204;
#X obj 509 340 else/pack2 255 204 204;
#X obj 509 380 else/pack2 229 255 204;
#X obj 509 420 else/pack2 204 229 255;
#X obj 509 250 else/pack2 0 0 255;
#X obj 509 210 else/pack2 0 255 0;
#X obj 509 170 else/pack2 255 0 0;
#X obj 509 130 else/pack2 255 255 0;
#X obj 511 87 else/pack2 96 96 96;
#X connect 0 0 31 0;
#X connect 1 0 30 0;
#X connect 2 0 29 0;
#X connect 3 0 28 0;
#X connect 4 0 27 0;
#X connect 10 0 14 0;
#X connect 12 0 13 0;
#X connect 14 0 0 0;
#X connect 14 1 1 0;
#X connect 14 2 2 0;
#X connect 14 3 3 0;
#X connect 14 4 4 0;
#X connect 14 5 15 0;
#X connect 14 6 16 0;
#X connect 14 7 17 0;
#X connect 14 8 18 0;
#X connect 15 0 23 0;
#X connect 16 0 24 0;
#X connect 17 0 25 0;
#X connect 18 0 26 0;
#X connect 23 0 11 0;
#X connect 24 0 11 0;
#X connect 25 0 11 0;
#X connect 26 0 11 0;
#X connect 27 0 11 0;
#X connect 28 0 11 0;
#X connect 29 0 11 0;
#X connect 30 0 11 0;
#X connect 31 0 11 0;
#X restore 155 215 pd colors;
#X obj 40 106 route background bg foreground fg, f 45;
#X obj 56 297 spigot 0, f 15;
#X obj 241 297 spigot 0;
#N canvas 129 384 312 212 init 0;
#X obj 45 159 outlet;
#X obj 45 19 loadbang;
#X obj 45 60 t b b, f 22;
#X msg 174 80 color fg green;
#X msg 45 81 color bg grey;
#X connect 1 0 2 0;
#X connect 2 0 4 0;
#X connect 2 1 3 0;
#X connect 3 0 0 0;
#X connect 4 0 0 0;
#X restore 68 38 pd init;
#X msg 181 160 0, f 1;
#X msg 143 160 1, f 1;
#X msg 333 160 0, f 1;
#X msg 286 160 1, f 1;
#X obj 106 142 t a b b, f 13;
#X obj 240 142 t a b b, f 16;
#X obj 56 387 t a a;
#X obj 334 15 text d \$0-buttonBackground;
#X obj 334 36 text d \$0-buttonForeground;
#X obj 23 450 text fromlist \$0-buttonBackground;
#X obj 288 422 text fromlist \$0-buttonForeground;
#X obj 23 431 list;
#X obj 288 402 list;
#X obj 241 388 t b a a;
#N canvas 187 356 341 300 trigger_bg 0;
#X obj 37 37 inlet;
#X obj 67 222 outlet;
#X obj 67 82 text tolist \$0-buttonBackground;
#X obj 67 103 list trim;
#X obj 112 35 bng 15 250 50 0 empty empty empty 17 7 0 10 -262144 -1
-1;
#X obj 67 124 route bang;
#X connect 0 0 2 0;
#X connect 2 0 3 0;
#X connect 3 0 5 0;
#X connect 4 0 2 0;
#X connect 5 1 1 0;
#X restore 241 450 pd trigger_bg;
#X obj 56 332 list prepend bgcolor;
#X obj 241 332 list prepend fgcolor;
#X connect 0 0 1 0;
#X connect 1 0 6 0;
#X connect 3 0 16 0;
#X connect 4 0 23 0;
#X connect 5 0 7 0;
#X connect 5 0 8 0;
#X connect 6 0 14 0;
#X connect 6 1 14 0;
#X connect 6 2 15 0;
#X connect 6 3 15 0;
#X connect 7 0 25 0;
#X connect 8 0 26 0;
#X connect 9 0 1 0;
#X connect 10 0 8 1;
#X connect 11 0 7 1;
#X connect 12 0 7 1;
#X connect 13 0 8 1;
#X connect 14 0 5 0;
#X connect 14 1 11 0;
#X connect 14 2 10 0;
#X connect 15 0 5 0;
#X connect 15 1 13 0;
#X connect 15 2 12 0;
#X connect 16 0 2 0;
#X connect 16 1 21 0;
#X connect 21 0 19 0;
#X connect 22 0 20 0;
#X connect 23 0 24 0;
#X connect 23 1 2 0;
#X connect 23 2 22 0;
#X connect 24 0 2 0;
#X connect 25 0 3 0;
#X connect 26 0 4 0;
#X restore 194 116 pd button_colors;
#X obj 316 137 s \$0-button_in;
#X obj 170 281 r \$0-button_out;
#X text 270 282 Mensagens vindas do botão;
#X obj 18 335 tgl 25 0 empty empty empty 17 7 0 10 -228856 -1 -1 0
1;
#X obj 623 116 route bang;
#X obj 10 30 else/button 30 30 96 96 96 0 255 0;
#X obj 9 6 r \$0-button_in;
#X msg 170 167 \; pd-button_colors dirty 0;
#X text 327 170 hack para resolver problema de pedir pra salvar a cada
mudança remota de background e foreground color do objeto [else/button]
, f 42;
#N canvas 26 44 269 423 timer 0;
#X obj 45 23 inlet;
#X obj 58 357 outlet;
#X obj 45 238 sel 1 0, f 14;
#X obj 58 280 timer;
#X obj 102 103 route timer;
#X obj 45 84 t a a, f 10;
#X obj 102 124 == 1;
#X obj 45 148 spigot 0;
#X obj 45 190 route state;
#X msg 58 335 list timer \$1;
#X obj 110 37 r \$0-button_out_raw;
#X obj 108 210 route float;
#X connect 0 0 5 0;
#X connect 2 0 3 0;
#X connect 2 1 3 1;
#X connect 3 0 9 0;
#X connect 4 0 6 0;
#X connect 5 0 7 0;
#X connect 5 1 4 0;
#X connect 6 0 7 1;
#X connect 7 0 8 0;
#X connect 8 0 2 0;
#X connect 8 1 11 0;
#X connect 9 0 1 0;
#X connect 10 0 5 0;
#X connect 11 0 2 0;
#X restore 433 116 pd timer;
#X obj 433 137 s \$0-button_out;
#X text 707 22 MENSAGENS;
#X msg 719 50 timer n;
#X text 783 51 n <0-1>;
#X text 746 74 0 -;
#X text 746 106 1 -;
#X msg 724 150 hold n;
#X text 783 151 n <0-1>;
#X text 746 175 0 -;
#X text 746 217 1 -;
#X text 770 217 reage apenas ao click on do mouse, f 23;
#X text 770 72 pad retorna tempo de entre click on e click off do mouse
, f 29;
#X text 770 106 pad não retorna tempo entre cliques. (default), f
29;
#X text 770 173 reage a click on e click off do mouse (default), f
23;
#X obj 10 67 s \$0-button_out_raw;
#N canvas 454 320 687 435 button_behavior 0;
#X obj 429 19 inlet;
#X obj 123 383 outlet;
#X obj 529 81 route hold;
#X obj 42 20 r \$0-button_out_raw;
#N canvas 528 347 450 376 hold_colors_control 0;
#X obj 43 21 inlet;
#X obj 43 157 text tolist \$0-buttonForeground;
#X obj 227 91 text tolist \$0-buttonBackground;
#X obj 43 62 sel 1 0, f 62;
#X obj 43 188 list split 1;
#X obj 77 213 list prepend bgcolor;
#X obj 77 322 s \$0-button_in;
#X obj 227 122 list split 1;
#X obj 261 142 list prepend bgcolor;
#X obj 261 235 list trim;
#X obj 77 234 list trim;
#X connect 0 0 3 0;
#X connect 1 0 4 0;
#X connect 2 0 7 0;
#X connect 3 0 1 0;
#X connect 3 1 2 0;
#X connect 4 1 5 0;
#X connect 5 0 10 0;
#X connect 7 1 8 0;
#X connect 8 0 9 0;
#X connect 9 0 6 0;
#X connect 10 0 6 0;
#X restore 438 290 pd hold_colors_control;
#X obj 429 207 sel 1 0, f 9;
#X obj 529 102 v \$0-hold_state;
#X obj 429 61 t a a, f 17;
#X obj 429 82 route state;
#X msg 429 237 1, f 1;
#X msg 454 237 0, f 1;
#X obj 216 74 display;
#X obj 42 121 route float, f 14;
#X obj 336 109 display;
#X obj 565 155 v \$0-hold_state;
#X floatatom 565 179 5 0 0 0 - - -;
#X obj 123 143 route state;
#X text 198 141 se state vem de mensagem, f 12;
#X obj 42 164 t f b f, f 19;
#X obj 97 197 v \$0-hold_state;
#X obj 97 242 == 1;
#X obj 42 261 spigot 0;
#X msg 123 353 state \$1;
#X obj 97 218 t f f;
#X obj 559 133 bng 15 250 50 0 empty empty empty 17 7 0 10 -262144
-1 -1;
#X obj 41 301 tgl 15 0 empty empty empty 17 7 0 10 -262144 -1 -1 0
1;
#X obj 41 282 sel 1;
#X obj 198 302 == 0;
#X obj 153 321 spigot 1;
#X obj 41 321 t f f;
#X connect 0 0 7 0;
#X connect 2 0 6 0;
#X connect 3 0 12 0;
#X connect 3 0 11 0;
#X connect 5 0 9 0;
#X connect 5 1 10 0;
#X connect 7 0 8 0;
#X connect 7 0 13 0;
#X connect 7 1 2 0;
#X connect 7 1 24 0;
#X connect 8 0 5 0;
#X connect 9 0 4 0;
#X connect 10 0 4 0;
#X connect 12 0 18 0;
#X connect 12 1 16 0;
#X connect 14 0 15 0;
#X connect 16 0 22 0;
#X connect 18 0 21 0;
#X connect 18 1 19 0;
#X connect 18 2 28 0;
#X connect 19 0 23 0;
#X connect 20 0 21 1;
#X connect 21 0 26 0;
#X connect 22 0 1 0;
#X connect 23 0 20 0;
#X connect 23 1 27 0;
#X connect 24 0 14 0;
#X connect 25 0 29 0;
#X connect 26 0 25 0;
#X connect 27 0 28 1;
#X connect 28 0 22 0;
#X connect 29 0 5 0;
#X connect 29 1 22 0;
#X restore 497 116 pd button_behavior;
#X obj 170 92 t b a a a a a, f 76;
#N canvas 475 232 250 201 debug_pad_messages 0;
#X obj 37 37 inlet;
#X obj 30 97 spigot 0;
#X obj 30 75 r pad_send;
#X obj 30 118 print pad_messages_out;
#X connect 0 0 1 1;
#X connect 1 0 3 0;
#X connect 2 0 1 0;
#X restore 18 368 pd debug_pad_messages;
#X msg 585 44 hold 1;
#X msg 594 65 hold 0;
#X msg 572 5 state 0;
#X msg 648 6 state 1;
#X text 51 35 BOTÃO NÃO TEM SAÍDA QUANDO EM HOLD 1;
#N canvas 218 104 783 203 state-blink 0;
#X obj 46 19 inlet;
#X obj 184 156 outlet;
#N canvas 645 330 571 300 release 0;
#X obj 50 29 inlet;
#X obj 341 237 outlet;
#X obj 50 70 t b b, f 49;
#X obj 341 127 list trim;
#X obj 341 106 text tolist \$0-buttonBackground;
#X obj 50 234 s \$0-button_out_raw;
#X text 85 252 to [pd button_behavior];
#X msg 50 211 state 0;
#X connect 0 0 2 0;
#X connect 2 0 7 0;
#X connect 2 1 4 0;
#X connect 3 0 1 0;
#X connect 4 0 3 0;
#X connect 7 0 5 0;
#X restore 104 97 pd release;
#N canvas 604 166 450 386 blink 0;
#X obj 93 15 inlet;
#X obj 148 359 outlet;
#X obj 222 278 text tolist \$0-buttonBackground;
#X obj 22 278 text tolist \$0-buttonForeground;
#X obj 222 299 list trim;
#X obj 93 131 metro 500;
#X obj 19 25 loadbang;
#X msg 19 46 0;
#X obj 174 95 t f f;
#X obj 93 152 t b b, f 12;
#X obj 162 170 del 250;
#X obj 174 66 route 0;
#X obj 114 186 bng 15 250 50 0 empty empty empty 17 7 0 10 -262144
-1 -1;
#X obj 114 203 tgl 15 0 empty empty empty 17 7 0 10 -262144 -1 -1 0
1;
#X obj 114 223 sel 1;
#X obj 141 241 bng 15 250 50 0 empty empty empty 17 7 0 10 -262144
-1 -1;
#X obj 22 299 list trim;
#X obj 93 44 unpack f f, f 14;
#X obj 144 111 * 2;
#X connect 0 0 17 0;
#X connect 2 0 4 0;
#X connect 3 0 16 0;
#X connect 4 0 1 0;
#X connect 5 0 9 0;
#X connect 6 0 7 0;
#X connect 7 0 5 0;
#X connect 8 0 18 0;
#X connect 8 1 10 1;
#X connect 9 0 12 0;
#X connect 9 1 10 0;
#X connect 10 0 12 0;
#X connect 11 1 8 0;
#X connect 12 0 13 0;
#X connect 13 0 14 0;
#X connect 14 0 3 0;
#X connect 14 1 15 0;
#X connect 15 0 2 0;
#X connect 16 0 1 0;
#X connect 17 0 5 0;
#X connect 17 1 11 0;
#X connect 18 0 5 1;
#X restore 184 77 pd blink;
#X text 471 60 1 - acende e retorna 1 na saída do pad;
#X text 471 78 0 - apaga e retorna 0 na saída do pad;
#X text 471 98 blink (0-1) float;
#X text 487 132 float (0-1) - 1 inicia e 0 termina;
#X text 487 116 blink - pisca o pad;
#X text 487 150 float - tempo de intermitência (ms);
#X text 461 42 status - estado do botão;
#X obj 46 50 route state blink, f 35;
#X text 455 16 MENSAGENS DE ENTRADA;
#X obj 46 71 route 1 0;
#N canvas 645 330 577 300 press 0;
#X obj 50 29 inlet;
#X obj 371 268 outlet;
#X obj 50 70 t b b, f 54;
#X obj 371 106 text tolist \$0-buttonForeground;
#X obj 371 127 list trim;
#X obj 50 234 s \$0-button_out_raw;
#X text 85 252 to [pd button_behavior];
#X msg 50 211 state 1;
#X connect 0 0 2 0;
#X connect 2 0 7 0;
#X connect 2 1 3 0;
#X connect 3 0 4 0;
#X connect 4 0 1 0;
#X connect 7 0 5 0;
#X restore 46 97 pd press;
#X connect 0 0 11 0;
#X connect 2 0 1 0;
#X connect 3 0 1 0;
#X connect 11 0 13 0;
#X connect 11 1 3 0;
#X connect 13 0 14 0;
#X connect 13 1 2 0;
#X connect 14 0 1 0;
#X restore 316 116 pd state-blink;
#N canvas 477 406 636 162 messages_processor 0;
#X obj 47 30 inlet;
#X obj 212 95 v \$0-hold_state;
#X obj 47 97 v \$0-state_message;
#X obj 47 67 route state hold color, f 83;
#N canvas 623 43 554 518 button_colors 0;
#X obj 80 34 inlet;
#X obj 80 85 route color;
#N canvas 815 -783 779 540 colors 0;
#X obj 511 67 bng 15 250 50 0 empty empty empty 17 7 0 10 -262144 -1
-1;
#X obj 509 112 bng 15 250 50 0 empty empty empty 17 7 0 10 -262144
-1 -1;
#X obj 509 152 bng 15 250 50 0 empty empty empty 17 7 0 10 -262144
-1 -1;
#X obj 509 192 bng 15 250 50 0 empty empty empty 17 7 0 10 -262144
-1 -1;
#X obj 509 232 bng 15 250 50 0 empty empty empty 17 7 0 10 -262144
-1 -1;
#X text 653 89 cinza;
#X text 654 129 amarelo;
#X text 664 169 vermelho;
#X text 634 209 verde;
#X text 629 249 azul;
#X obj 33 9 inlet;
#X obj 49 514 outlet;
#X obj 573 15 bng 15 250 50 0 empty empty empty 17 7 0 10 -262144 -1
-1;
#N canvas 562 360 450 141 colors_table-internet 0;
#X obj 37 37 inlet;
#X msg 37 58 browse https://www.rapidtables.com/web/color/RGB_Color.html
;
#X obj 37 79 pdcontrol;
#X connect 0 0 1 0;
#X connect 1 0 2 0;
#X restore 573 35 pd colors_table-internet;
#X obj 33 41 route grey yellow red green blue lightYellow lightRed
lightGreen lightBlue, f 76;
#X obj 509 282 bng 15 250 50 0 empty empty empty 17 7 0 10 -262144
-1 -1;
#X obj 509 322 bng 15 250 50 0 empty empty empty 17 7 0 10 -262144
-1 -1;
#X obj 509 362 bng 15 250 50 0 empty empty empty 17 7 0 10 -262144
-1 -1;
#X obj 509 402 bng 15 250 50 0 empty empty empty 17 7 0 10 -262144
-1 -1;
#X text 654 299 amarelo claro;
#X text 664 339 vermelho claro;
#X text 654 379 verde claro;
#X text 655 419 azul claro;
#X obj 509 300 else/pack2 255 255 204;
#X obj 509 340 else/pack2 255 204 204;
#X obj 509 380 else/pack2 229 255 204;
#X obj 509 420 else/pack2 204 229 255;
#X obj 509 250 else/pack2 0 0 255;
#X obj 509 210 else/pack2 0 255 0;
#X obj 509 170 else/pack2 255 0 0;
#X obj 509 130 else/pack2 255 255 0;
#X obj 511 87 else/pack2 96 96 96;
#X connect 0 0 31 0;
#X connect 1 0 30 0;
#X connect 2 0 29 0;
#X connect 3 0 28 0;
#X connect 4 0 27 0;
#X connect 10 0 14 0;
#X connect 12 0 13 0;
#X connect 14 0 0 0;
#X connect 14 1 1 0;
#X connect 14 2 2 0;
#X connect 14 3 3 0;
#X connect 14 4 4 0;
#X connect 14 5 15 0;
#X connect 14 6 16 0;
#X connect 14 7 17 0;
#X connect 14 8 18 0;
#X connect 15 0 23 0;
#X connect 16 0 24 0;
#X connect 17 0 25 0;
#X connect 18 0 26 0;
#X connect 23 0 11 0;
#X connect 24 0 11 0;
#X connect 25 0 11 0;
#X connect 26 0 11 0;
#X connect 27 0 11 0;
#X connect 28 0 11 0;
#X connect 29 0 11 0;
#X connect 30 0 11 0;
#X connect 31 0 11 0;
#X restore 195 235 pd colors;
#X obj 80 126 route background bg foreground fg, f 45;
#X obj 30 317 spigot 0, f 15;
#X obj 281 317 spigot 0;
#N canvas 129 384 312 212 init 0;
#X obj 45 159 outlet;
#X obj 45 19 loadbang;
#X obj 45 60 t b b, f 22;
#X msg 174 80 color fg green;
#X msg 45 81 color bg grey;
#X connect 1 0 2 0;
#X connect 2 0 4 0;
#X connect 2 1 3 0;
#X connect 3 0 0 0;
#X connect 4 0 0 0;
#X restore 108 58 pd init;
#X msg 155 180 0, f 1;
#X msg 117 180 1, f 1;
#X msg 373 180 0, f 1;
#X msg 326 180 1, f 1;
#X obj 80 162 t a b b, f 13;
#X obj 280 162 t a b b, f 16;
#X obj 374 35 text d \$0-buttonBackground;
#X obj 374 56 text d \$0-buttonForeground;
#X obj 30 432 text fromlist \$0-buttonBackground;
#X obj 281 432 text fromlist \$0-buttonForeground;
#X obj 30 352 list prepend bgcolor;
#X obj 281 352 list prepend fgcolor;
#X connect 0 0 1 0;
#X connect 1 0 3 0;
#X connect 2 0 4 0;
#X connect 2 0 5 0;
#X connect 3 0 11 0;
#X connect 3 1 11 0;
#X connect 3 2 12 0;
#X connect 3 3 12 0;
#X connect 4 0 17 0;
#X connect 5 0 18 0;
#X connect 6 0 1 0;
#X connect 7 0 5 1;
#X connect 8 0 4 1;
#X connect 9 0 4 1;
#X connect 10 0 5 1;
#X connect 11 0 2 0;
#X connect 11 1 8 0;
#X connect 11 2 7 0;
#X connect 12 0 2 0;
#X connect 12 1 10 0;
#X connect 12 2 9 0;
#X connect 17 0 15 0;
#X connect 18 0 16 0;
#X restore 377 95 pd button_colors;
#X connect 0 0 3 0;
#X connect 3 0 2 0;
#X connect 3 1 1 0;
#X connect 3 2 4 0;
#X restore 390 220 pd messages_processor;
#X connect 0 0 6 0;
#X connect 1 0 36 0;
#X connect 7 0 1 0;
#X connect 9 0 8 0;
#X connect 11 0 0 0;
#X connect 13 0 37 0;
#X connect 15 0 34 0;
#X connect 16 0 15 0;
#X connect 19 0 20 0;
#X connect 35 0 20 0;
#X connect 36 0 17 0;
#X connect 36 1 9 0;
#X connect 36 2 43 0;
#X connect 36 3 19 0;
#X connect 36 4 35 0;
#X connect 36 5 14 0;
#X connect 38 0 36 0;
#X connect 39 0 36 0;
#X connect 40 0 36 0;
#X connect 41 0 36 0;
#X connect 43 0 10 0;
#X coords 0 -1 1 1 30 30 2 10 30;
