#N canvas 341 29 687 296 10;
#X declare -lib else -path else;
#N canvas 248 301 474 218 send_MessageFormat 0;
#X obj 37 37 inlet;
#X obj 37 158 outlet;
#X obj 37 129 list trim;
#X text 282 160 For detail see pad help;
#X text 209 67 pad <pad number> state <0-1>;
#X text 210 90 pad <pad number> timer <float>;
#X obj 37 88 list prepend pad \$1;
#X connect 0 0 6 0;
#X connect 2 0 1 0;
#X connect 6 0 2 0;
#X restore 231 199 pd send_MessageFormat;
#N canvas 637 287 307 189 receive_MessageFormat 0;
#X obj 49 38 inlet;
#X obj 49 149 outlet;
#X text 134 91 For detail see pad help;
#X obj 49 69 route pad;
#X obj 49 100 route \$1;
#X obj 94 119 route all;
#X connect 0 0 3 0;
#X connect 3 0 4 0;
#X connect 4 0 1 0;
#X connect 4 1 5 0;
#X connect 5 0 1 0;
#X restore 230 91 pd receive_MessageFormat;
#X text 364 201 formata mensagem para envio;
#X text 390 91 filtra mensagens destinadas a esta instância da abstração
[pad], f 34;
#X obj 231 245 s pad_send;
#X obj 230 45 r pad_receive;
#X obj 231 178 r \$0-button_out;
#X text 331 179 Mensagens vindas do botão;
#X obj 26 184 tgl 25 0 empty empty empty 17 7 0 10 -228856 -1 -1 0
1;
#X obj 9 6 r \$0-button_in;
#X text 57 183 MENSAGENS;
#X obj 10 67 s \$0-button_out_raw;
#N canvas 475 232 250 201 debug_pad_messages 0;
#X obj 37 37 inlet;
#X obj 30 97 spigot 0;
#X obj 30 75 r pad_send;
#X obj 30 118 print pad_messages_out;
#X connect 0 0 1 1;
#X connect 1 0 3 0;
#X connect 2 0 1 0;
#X restore 26 258 pd debug_pad_messages;
#X f 22;
#N canvas 321 115 773 440 messages_processor 0;
#X obj 17 20 inlet;
#N canvas 634 27 529 578 button_colors 0;
#X obj 64 17 inlet;
#N canvas 815 -783 779 540 colors 0;
#X obj 511 67 bng 15 250 50 0 empty empty empty 17 7 0 10 -262144 -1
-1;
#X obj 509 112 bng 15 250 50 0 empty empty empty 17 7 0 10 -262144
-1 -1;
#X obj 509 152 bng 15 250 50 0 empty empty empty 17 7 0 10 -262144
-1 -1;
#X obj 509 192 bng 15 250 50 0 empty empty empty 17 7 0 10 -262144
-1 -1;
#X obj 509 232 bng 15 250 50 0 empty empty empty 17 7 0 10 -262144
-1 -1;
#X text 653 89 cinza;
#X text 654 129 amarelo;
#X text 664 169 vermelho;
#X text 634 209 verde;
#X text 629 249 azul;
#X obj 33 9 inlet;
#X obj 49 514 outlet;
#X obj 573 15 bng 15 250 50 0 empty empty empty 17 7 0 10 -262144 -1
-1;
#N canvas 562 360 450 141 colors_table-internet 0;
#X obj 37 37 inlet;
#X msg 37 58 browse https://www.rapidtables.com/web/color/RGB_Color.html
;
#X obj 37 79 pdcontrol;
#X connect 0 0 1 0;
#X connect 1 0 2 0;
#X restore 573 35 pd colors_table-internet;
#X obj 33 41 route grey yellow red green blue lightYellow lightRed
lightGreen lightBlue, f 76;
#X obj 509 282 bng 15 250 50 0 empty empty empty 17 7 0 10 -262144
-1 -1;
#X obj 509 322 bng 15 250 50 0 empty empty empty 17 7 0 10 -262144
-1 -1;
#X obj 509 362 bng 15 250 50 0 empty empty empty 17 7 0 10 -262144
-1 -1;
#X obj 509 402 bng 15 250 50 0 empty empty empty 17 7 0 10 -262144
-1 -1;
#X text 654 299 amarelo claro;
#X text 664 339 vermelho claro;
#X text 654 379 verde claro;
#X text 655 419 azul claro;
#X obj 509 300 else/pack2 255 255 204;
#X obj 509 340 else/pack2 255 204 204;
#X obj 509 380 else/pack2 229 255 204;
#X obj 509 420 else/pack2 204 229 255;
#X obj 509 250 else/pack2 0 0 255;
#X obj 509 210 else/pack2 0 255 0;
#X obj 509 170 else/pack2 255 0 0;
#X obj 509 130 else/pack2 255 255 0;
#X obj 511 87 else/pack2 96 96 96;
#X connect 0 0 31 0;
#X connect 1 0 30 0;
#X connect 2 0 29 0;
#X connect 3 0 28 0;
#X connect 4 0 27 0;
#X connect 10 0 14 0;
#X connect 12 0 13 0;
#X connect 14 0 0 0;
#X connect 14 1 1 0;
#X connect 14 2 2 0;
#X connect 14 3 3 0;
#X connect 14 4 4 0;
#X connect 14 5 15 0;
#X connect 14 6 16 0;
#X connect 14 7 17 0;
#X connect 14 8 18 0;
#X connect 15 0 23 0;
#X connect 16 0 24 0;
#X connect 17 0 25 0;
#X connect 18 0 26 0;
#X connect 23 0 11 0;
#X connect 24 0 11 0;
#X connect 25 0 11 0;
#X connect 26 0 11 0;
#X connect 27 0 11 0;
#X connect 28 0 11 0;
#X connect 29 0 11 0;
#X connect 30 0 11 0;
#X connect 31 0 11 0;
#X restore 179 218 pd colors;
#X obj 64 89 route background bg foreground fg, f 45;
#X obj 14 280 spigot 0, f 15;
#X obj 265 280 spigot 0;
#X msg 139 163 0, f 1;
#X msg 101 163 1, f 1;
#X msg 357 163 0, f 1;
#X msg 310 163 1, f 1;
#X obj 64 145 t a b b, f 13;
#X obj 264 145 t a b b, f 16;
#X obj 358 18 text d \$0-buttonBackground;
#X obj 358 39 text d \$0-buttonForeground;
#X obj 53 347 text fromlist \$0-buttonBackground;
#X obj 304 347 text fromlist \$0-buttonForeground;
#X obj 53 325 list prepend bgcolor;
#X obj 304 325 list prepend fgcolor;
#X obj 64 116 route bang;
#X obj 264 116 route bang;
#X obj 14 301 t b a, f 7;
#X obj 265 301 t b a, f 7;
#X obj 14 410 list prepend pad \$1;
#X obj 265 500 s pad_receive;
#X obj 14 431 list trim;
#X msg 14 389 color bg;
#X obj 265 410 list prepend pad \$1;
#X obj 265 431 list trim;
#X msg 265 389 color fg;
#X connect 0 0 2 0;
#X connect 1 0 3 0;
#X connect 1 0 4 0;
#X connect 2 0 17 0;
#X connect 2 1 17 0;
#X connect 2 2 18 0;
#X connect 2 3 18 0;
#X connect 3 0 19 0;
#X connect 4 0 20 0;
#X connect 5 0 4 1;
#X connect 6 0 3 1;
#X connect 7 0 3 1;
#X connect 8 0 4 1;
#X connect 9 0 1 0;
#X connect 9 1 6 0;
#X connect 9 2 5 0;
#X connect 10 0 1 0;
#X connect 10 1 8 0;
#X connect 10 2 7 0;
#X connect 15 0 13 0;
#X connect 16 0 14 0;
#X connect 17 1 9 0;
#X connect 18 1 10 0;
#X connect 19 0 24 0;
#X connect 19 1 15 0;
#X connect 20 0 27 0;
#X connect 20 1 16 0;
#X connect 21 0 23 0;
#X connect 23 0 22 0;
#X connect 24 0 21 0;
#X connect 25 0 26 0;
#X connect 26 0 22 0;
#X connect 27 0 25 0;
#X restore 302 109 pd button_colors;
#X text 68 63 input messages;
#X text 131 268 output messages;
#X obj 17 60 t a a, f 7;
#X obj 425 109 v \$0-timer_state;
#N canvas 130 203 448 171 change_button_colors 0;
#X obj 37 19 inlet;
#X obj 37 60 route background bg foreground fg, f 59;
#N canvas 8 178 501 201 set_background_color 0;
#X obj 18 12 inlet;
#X obj 18 110 t b b, f 41;
#X obj 261 174 s \$0-button_in;
#N canvas 692 118 450 191 saveBehaviorHack 0;
#X text 41 28 Quando se muda a cor do botão na lib ELSE beta32 \,
ao fechar o patch o pad abre um popup perguntando se quer salvar o
patch. mandando a mensagem <dirty 0> para este patch esse comportamento
é interrompido.;
#X obj 58 102 bng 15 250 50 0 empty empty empty 17 7 0 10 -262144 -1
-1;
#N canvas 260 162 450 300 github_issue 0;
#X obj 37 37 inlet;
#X msg 37 58 pd https://github.com/porres/pd-else/issues/823;
#X obj 37 79 pdcontrol;
#X connect 0 0 1 0;
#X connect 1 0 2 0;
#X restore 58 122 pd github_issue;
#X connect 1 0 2 0;
#X restore 370 11 pd saveBehaviorHack;
#X msg 18 141 \; pd-saveBehaviorHack dirty 0;
#X obj 18 50 route symbol;
#X obj 18 74 route bang;
#X obj 261 133 text tolist \$0-buttonBackground;
#X obj 261 154 list trim;
#X connect 0 0 5 0;
#X connect 1 0 4 0;
#X connect 1 1 7 0;
#X connect 5 1 6 0;
#X connect 6 0 1 0;
#X connect 7 0 8 0;
#X connect 8 0 2 0;
#X restore 37 112 pd set_background_color;
#N canvas 29 507 484 207 set_foreground_color 0;
#X obj 18 7 inlet;
#N canvas 692 118 450 191 saveBehaviorHack 0;
#X text 41 28 Quando se muda a cor do botão na lib ELSE beta32 \,
ao fechar o patch o pad abre um popup perguntando se quer salvar o
patch. mandando a mensagem <dirty 0> para este patch esse comportamento
é interrompido.;
#X obj 58 102 bng 15 250 50 0 empty empty empty 17 7 0 10 -262144 -1
-1;
#N canvas 260 162 450 300 github_issue 0;
#X obj 37 37 inlet;
#X msg 37 58 pd https://github.com/porres/pd-else/issues/823;
#X obj 37 79 pdcontrol;
#X connect 0 0 1 0;
#X connect 1 0 2 0;
#X restore 58 122 pd github_issue;
#X connect 1 0 2 0;
#X restore 354 7 pd saveBehaviorHack;
#X msg 18 144 \; pd-saveBehaviorHack dirty 0;
#X obj 18 113 t b b, f 41;
#X obj 261 173 s \$0-button_in;
#X obj 18 45 route symbol;
#X obj 18 67 route bang;
#X obj 261 134 text tolist \$0-buttonForeground;
#X obj 261 153 list trim;
#X connect 0 0 5 0;
#X connect 3 0 2 0;
#X connect 3 1 7 0;
#X connect 5 1 6 0;
#X connect 6 0 3 0;
#X connect 7 0 8 0;
#X connect 8 0 4 0;
#X restore 212 112 pd set_foreground_color;
#X connect 0 0 1 0;
#X connect 1 0 2 0;
#X connect 1 1 2 0;
#X connect 1 2 3 0;
#X connect 1 3 3 0;
#X restore 50 200 pd change_button_colors;
#N canvas 162 75 466 589 send_timer 0;
#X obj 45 16 inlet;
#X obj 45 358 sel 1 0, f 14;
#X obj 58 400 timer;
#X obj 102 244 == 1;
#X obj 45 268 spigot 0;
#X msg 166 505 list timer \$1;
#X obj 57 42 r \$0-button_out_raw;
#X obj 166 530 s \$0-button_out;
#X obj 102 223 v \$0-timer_state;
#X obj 45 204 t a b, f 10;
#X text 192 19 recebe 0 ou 1 do botão ou por mensagem <state 1> <state
0> e retorna o tempo de acionamento no formato <timer n> onde n é
float, f 43;
#X obj 90 122 v \$0-hold_state;
#X obj 301 122 v \$0-hold_state;
#X obj 256 165 spigot 0;
#X obj 90 143 == 0;
#X obj 301 143 == 1;
#X obj 269 400 timer;
#X obj 313 244 == 1;
#X obj 256 268 spigot 0;
#X obj 313 223 v \$0-timer_state;
#X obj 256 204 t a b, f 10;
#X obj 256 338 sel 1, f 14;
#N canvas 615 166 174 232 counter 0;
#X obj 28 22 inlet;
#X floatatom 28 78 5 0 0 0 - - -;
#X obj 28 98 sel 0 1, f 17;
#X msg 105 137 reset;
#X obj 77 118 t b b;
#X obj 28 57 count 0 1;
#X obj 28 186 outlet;
#X obj 77 186 outlet;
#X connect 0 0 5 0;
#X connect 1 0 2 0;
#X connect 2 0 6 0;
#X connect 2 1 4 0;
#X connect 3 0 5 0;
#X connect 4 0 7 0;
#X connect 4 1 3 0;
#X connect 5 0 1 0;
#X restore 256 359 pd counter;
#X obj 45 102 t a b;
#X obj 256 102 t a b;
#X obj 45 310 route state;
#X obj 45 165 spigot 1;
#X obj 108 330 route float;
#X obj 45 74 t a a, f 35;
#X obj 256 289 route state;
#X obj 256 315 route float;
#X connect 0 0 28 0;
#X connect 1 0 2 0;
#X connect 1 1 2 1;
#X connect 2 0 5 0;
#X connect 3 0 4 1;
#X connect 4 0 25 0;
#X connect 5 0 7 0;
#X connect 6 0 28 0;
#X connect 8 0 3 0;
#X connect 9 0 4 0;
#X connect 9 1 8 0;
#X connect 11 0 14 0;
#X connect 12 0 15 0;
#X connect 13 0 20 0;
#X connect 14 0 26 1;
#X connect 15 0 13 1;
#X connect 16 0 5 0;
#X connect 17 0 18 1;
#X connect 18 0 29 0;
#X connect 19 0 17 0;
#X connect 20 0 18 0;
#X connect 20 1 19 0;
#X connect 21 0 22 0;
#X connect 22 0 16 0;
#X connect 22 1 16 1;
#X connect 23 0 26 0;
#X connect 23 1 11 0;
#X connect 24 0 13 0;
#X connect 24 1 12 0;
#X connect 25 0 1 0;
#X connect 25 1 27 0;
#X connect 26 0 9 0;
#X connect 27 0 1 0;
#X connect 28 0 23 0;
#X connect 28 1 24 0;
#X connect 29 0 27 0;
#X connect 29 1 30 0;
#X connect 30 0 21 0;
#X restore 17 312 pd send_timer;
#X obj 50 180 route color;
#X obj 14 387 sendOSC pad \$1 color bg;
#X obj 167 387 sendOSC pad \$1 color fg;
#X obj 14 367 bng 15 250 50 0 empty empty empty 17 7 0 10 -262144 -1
-1;
#X obj 167 367 bng 15 250 50 0 empty empty empty 17 7 0 10 -262144
-1 -1;
#X text 14 349 métodos pra setar no botão guardada;
#N canvas 719 225 261 231 sendout_button_status 0;
#X obj 57 27 inlet;
#X obj 57 68 route bang;
#X msg 57 135 state \$1;
#X obj 57 196 s \$0-button_out;
#X obj 57 114 v \$0-pad_state;
#X connect 0 0 1 0;
#X connect 1 0 4 0;
#X connect 2 0 3 0;
#X connect 4 0 2 0;
#X restore 116 312 pd sendout_button_status;
#X obj 116 290 route sendout_state;
#X obj 17 270 t a a, f 17;
#X obj 17 160 t a a, f 6;
#X text 68 162 internal messages;
#X obj 56 87 route state hold color timer blink, f 103;
#N canvas 834 58 430 250 blink 0;
#X obj 33 24 inlet;
#X obj 168 133 sel 1 0, f 19;
#X msg 279 156 blink message invalid;
#X obj 279 177 print ERROR;
#X msg 223 153 0;
#X msg 168 154 1;
#X obj 168 181 v \$0-blink_state;
#X msg 33 136 blink;
#X obj 33 75 t b a, f 23;
#X obj 168 94 unpack f f, f 24;
#X obj 309 116 v \$0-blink_time;
#X obj 33 158 list prepend pad \$1;
#X obj 33 96 del 10;
#X obj 33 218 s pad_receive;
#X obj 33 179 list trim;
#X obj 33 45 route bang;
#X connect 0 0 15 0;
#X connect 1 0 5 0;
#X connect 1 1 4 0;
#X connect 1 2 2 0;
#X connect 2 0 3 0;
#X connect 4 0 6 0;
#X connect 5 0 6 0;
#X connect 7 0 11 0;
#X connect 8 0 12 0;
#X connect 8 1 9 0;
#X connect 9 0 1 0;
#X connect 9 1 10 0;
#X connect 11 0 14 0;
#X connect 12 0 7 0;
#X connect 14 0 13 0;
#X connect 15 1 8 0;
#X restore 548 109 pd blink;
#N canvas 97 29 459 629 put_to_blink 0;
#X obj 133 17 inlet;
#X obj 133 59 route bang;
#X obj 133 119 v \$0-blink_state;
#X obj 238 139 v \$0-blink_time;
#X obj 133 282 t b b, f 14;
#X obj 238 160 t f f;
#X obj 238 181 * 2;
#X obj 133 261 metro 500, f 18;
#X obj 214 302 del 250, f 9;
#X obj 31 229 else/initmess 0;
#X obj 183 367 bng 15 250 50 0 empty empty empty 17 7 0 10 -262144
-1 -1;
#X obj 229 396 text tolist \$0-buttonBackground;
#X obj 29 396 text tolist \$0-buttonForeground;
#X obj 263 457 list trim;
#X obj 63 457 list trim;
#X obj 156 367 bng 15 250 50 0 empty empty empty 17 7 0 10 -262144
-1 -1;
#X obj 63 478 t b a;
#X obj 263 478 t b a;
#X obj 193 591 s \$0-button_in;
#X msg 193 540 bgcolor 96 96 96;
#X obj 29 417 list split 1;
#X obj 229 417 list split 1;
#X obj 63 438 list prepend set bgcolor;
#X obj 263 438 list prepend set bgcolor;
#X obj 133 90 t b b, f 18;
#X obj 156 329 count 0 1;
#X obj 156 348 sel 1 0, f 10;
#X obj 133 140 t f f;
#X obj 160 159 == 0;
#X obj 160 180 sel 1;
#X msg 156 221 reset 0;
#X obj 160 201 t b b, f 12;
#X connect 0 0 1 0;
#X connect 1 0 24 0;
#X connect 2 0 27 0;
#X connect 3 0 5 0;
#X connect 4 0 25 0;
#X connect 4 1 8 0;
#X connect 5 0 6 0;
#X connect 5 1 8 1;
#X connect 6 0 7 1;
#X connect 7 0 4 0;
#X connect 8 0 25 0;
#X connect 9 0 7 0;
#X connect 10 0 11 0;
#X connect 11 0 21 0;
#X connect 12 0 20 0;
#X connect 13 0 17 0;
#X connect 14 0 16 0;
#X connect 15 0 12 0;
#X connect 16 0 19 0;
#X connect 16 1 19 0;
#X connect 17 0 19 0;
#X connect 17 1 19 0;
#X connect 19 0 18 0;
#X connect 20 1 22 0;
#X connect 21 1 23 0;
#X connect 22 0 14 0;
#X connect 23 0 13 0;
#X connect 24 0 2 0;
#X connect 24 1 3 0;
#X connect 25 0 26 0;
#X connect 26 0 15 0;
#X connect 26 1 10 0;
#X connect 27 0 7 0;
#X connect 27 1 28 0;
#X connect 28 0 29 0;
#X connect 29 0 31 0;
#X connect 30 0 25 0;
#X connect 31 0 30 0;
#X connect 31 1 11 0;
#X restore 220 201 pd put_to_blink;
#X obj 220 180 route blink;
#X obj 340 180 route hold;
#N canvas 156 57 571 682 put_to_hold 0;
#X obj 27 13 inlet;
#X obj 27 54 route bang;
#X obj 27 75 t b b, f 26;
#X obj 180 97 v \$0-hold_state;
#X obj 244 570 list prepend pad \$1;
#X obj 244 612 s pad_receive;
#X obj 244 591 list trim;
#X msg 244 549 button_state_color;
#X obj 263 526 v \$0-pad_state;
#X obj 28 255 spigot 1;
#X obj 28 145 r \$0-button_out_raw;
#X obj 180 118 t f f;
#X obj 73 237 == 0;
#X obj 367 134 == 1;
#X obj 244 145 r \$0-button_out_raw;
#X obj 244 184 spigot 0, f 21;
#X obj 244 208 sel 1, f 6;
#X obj 244 415 tgl 15 0 empty empty empty 17 7 0 10 -262144 -1 -1 0
1;
#X obj 244 355 spigot 1;
#X obj 244 229 t b b;
#X obj 297 245 v \$0-state_external_message;
#X obj 283 503 v \$0-state_external_message;
#X obj 244 458 t b f b;
#X msg 283 484 -1;
#X obj 297 268 t f f f, f 22;
#X obj 289 337 == -1;
#X obj 446 289 == 0;
#X obj 446 310 sel 1;
#X obj 361 310 sel 1;
#X obj 361 289 == 1;
#X obj 361 331 t b b;
#X msg 388 349 set 0;
#X msg 361 349 0;
#X msg 446 349 1;
#X connect 0 0 1 0;
#X connect 1 0 2 0;
#X connect 2 1 3 0;
#X connect 3 0 11 0;
#X connect 4 0 6 0;
#X connect 6 0 5 0;
#X connect 7 0 4 0;
#X connect 9 0 22 0;
#X connect 10 0 9 0;
#X connect 11 0 12 0;
#X connect 11 1 13 0;
#X connect 12 0 9 1;
#X connect 13 0 15 1;
#X connect 14 0 15 0;
#X connect 15 0 16 0;
#X connect 16 0 19 0;
#X connect 17 0 22 0;
#X connect 18 0 17 0;
#X connect 19 0 18 0;
#X connect 19 1 20 0;
#X connect 20 0 24 0;
#X connect 22 0 7 0;
#X connect 22 1 8 0;
#X connect 22 2 23 0;
#X connect 23 0 21 0;
#X connect 24 0 25 0;
#X connect 24 1 29 0;
#X connect 24 2 26 0;
#X connect 25 0 18 1;
#X connect 26 0 27 0;
#X connect 27 0 33 0;
#X connect 28 0 30 0;
#X connect 29 0 28 0;
#X connect 30 0 32 0;
#X connect 30 1 31 0;
#X connect 31 0 17 0;
#X connect 32 0 22 0;
#X connect 33 0 22 0;
#X restore 340 201 pd put_to_hold;
#N canvas 610 43 403 267 hold 0;
#X obj 18 14 inlet;
#X obj 129 129 v \$0-hold_state;
#X obj 18 65 t b f, f 19;
#X obj 18 168 list prepend pad \$1;
#X obj 18 106 del 10;
#X obj 18 228 s pad_receive;
#X obj 18 189 list trim;
#X obj 18 45 route bang;
#X msg 18 146 hold;
#X obj 129 87 sel 1 0, f 18;
#X obj 234 162 print ERROR;
#X msg 234 141 hold message invalid;
#X msg 129 106 1;
#X msg 181 106 0;
#X connect 0 0 7 0;
#X connect 2 0 4 0;
#X connect 2 1 9 0;
#X connect 3 0 6 0;
#X connect 4 0 8 0;
#X connect 6 0 5 0;
#X connect 7 1 2 0;
#X connect 8 0 3 0;
#X connect 9 0 12 0;
#X connect 9 1 13 0;
#X connect 9 2 11 0;
#X connect 11 0 10 0;
#X connect 12 0 1 0;
#X connect 13 0 1 0;
#X restore 179 109 pd hold;
#N canvas 679 70 565 300 state 0;
#X obj 37 37 inlet;
#X obj 37 191 list prepend pad \$1;
#X obj 37 129 del 10;
#X obj 37 251 s pad_receive;
#X obj 37 212 list trim;
#X obj 37 68 route bang;
#X obj 191 110 sel 1 0, f 18;
#X obj 296 185 print ERROR;
#X obj 191 152 v \$0-pad_state;
#X msg 296 164 state message invalid;
#X msg 191 128 1;
#X msg 243 128 0;
#X msg 37 169 button_state_color;
#X obj 37 88 t b f f, f 52;
#X obj 346 107 == 1;
#X obj 346 128 v \$0-state_external_message;
#X connect 0 0 5 0;
#X connect 1 0 4 0;
#X connect 2 0 12 0;
#X connect 4 0 3 0;
#X connect 5 1 13 0;
#X connect 6 0 10 0;
#X connect 6 1 11 0;
#X connect 6 2 9 0;
#X connect 9 0 7 0;
#X connect 10 0 8 0;
#X connect 11 0 8 0;
#X connect 12 0 1 0;
#X connect 13 0 2 0;
#X connect 13 1 6 0;
#X connect 13 2 14 0;
#X connect 14 0 15 0;
#X restore 56 108 pd state;
#N canvas 658 47 503 311 set_button_color_and_sendout_against_button_state
0;
#X obj 65 22 inlet;
#X obj 65 63 route bang;
#X obj 171 116 v \$0-pad_state;
#X obj 294 116 v \$0-pad_state;
#N canvas 0 22 462 362 set 0;
#X obj 152 15 inlet;
#X obj 179 85 bng 15 250 50 0 empty empty empty 17 7 0 10 -262144 -1
-1;
#X obj 225 114 text tolist \$0-buttonBackground;
#X obj 25 114 text tolist \$0-buttonForeground;
#X obj 259 175 list trim;
#X obj 59 175 list trim;
#X obj 152 85 bng 15 250 50 0 empty empty empty 17 7 0 10 -262144 -1
-1;
#X obj 59 196 t b a;
#X obj 259 196 t b a;
#X msg 189 258 bgcolor 96 96 96;
#X obj 25 135 list split 1;
#X obj 225 135 list split 1;
#X obj 59 156 list prepend set bgcolor;
#X obj 259 156 list prepend set bgcolor;
#X obj 152 66 sel 1 0, f 10;
#X obj 189 309 outlet;
#X connect 0 0 14 0;
#X connect 1 0 2 0;
#X connect 2 0 11 0;
#X connect 3 0 10 0;
#X connect 4 0 8 0;
#X connect 5 0 7 0;
#X connect 6 0 3 0;
#X connect 7 0 9 0;
#X connect 7 1 9 0;
#X connect 8 0 9 0;
#X connect 8 1 9 0;
#X connect 9 0 15 0;
#X connect 10 1 12 0;
#X connect 11 1 13 0;
#X connect 12 0 5 0;
#X connect 13 0 4 0;
#X connect 14 0 6 0;
#X connect 14 1 1 0;
#X restore 294 175 pd set color;
#X obj 294 238 s \$0-button_in;
#X obj 171 196 list prepend pad \$1;
#X obj 171 256 s pad_receive;
#X obj 171 217 list trim;
#X msg 171 175 sendout_state;
#X obj 65 84 t b b b, f 36;
#N canvas 692 118 450 191 saveBehaviorHack 0;
#X text 41 28 Quando se muda a cor do botão na lib ELSE beta32 \,
ao fechar o patch o pad abre um popup perguntando se quer salvar o
patch. mandando a mensagem <dirty 0> para este patch esse comportamento
é interrompido.;
#X obj 58 102 bng 15 250 50 0 empty empty empty 17 7 0 10 -262144 -1
-1;
#N canvas 260 162 450 300 github_issue 0;
#X obj 37 37 inlet;
#X msg 37 58 pd https://github.com/porres/pd-else/issues/823;
#X obj 37 79 pdcontrol;
#X connect 0 0 1 0;
#X connect 1 0 2 0;
#X restore 58 122 pd github_issue;
#X connect 1 0 2 0;
#X restore 370 11 pd saveBehaviorHack;
#X msg 18 141 \; pd-saveBehaviorHack dirty 0, f 19;
#X connect 0 0 1 0;
#X connect 1 0 10 0;
#X connect 2 0 9 0;
#X connect 3 0 4 0;
#X connect 4 0 5 0;
#X connect 6 0 8 0;
#X connect 8 0 7 0;
#X connect 9 0 6 0;
#X connect 10 1 2 0;
#X connect 10 2 3 0;
#X restore 450 201 pd set_button_color_and_sendout_against_button_state
;
#X obj 450 180 route button_state_color;
#X connect 0 0 4 0;
#X connect 4 0 17 0;
#X connect 4 1 19 0;
#X connect 8 0 6 0;
#X connect 8 1 22 0;
#X connect 11 0 9 0;
#X connect 12 0 10 0;
#X connect 15 0 14 0;
#X connect 16 0 7 0;
#X connect 16 1 15 0;
#X connect 17 0 16 0;
#X connect 17 1 8 0;
#X connect 19 0 26 0;
#X connect 19 1 25 0;
#X connect 19 2 1 0;
#X connect 19 3 5 0;
#X connect 19 4 20 0;
#X connect 22 0 21 0;
#X connect 22 1 23 0;
#X connect 23 0 24 0;
#X connect 23 1 28 0;
#X connect 28 0 27 0;
#X restore 230 116 pd messages_processor;
#N canvas 503 313 661 212 init 0;
#X obj 45 159 outlet;
#X msg 149 80 color fg green;
#X msg 45 81 color bg grey;
#X msg 253 81 blink 0;
#X obj 45 19 lb;
#X obj 462 106 v \$0-state_external_message;
#X msg 462 87 -1;
#X obj 45 60 t b b b b b, f 70;
#X msg 357 81 hold 0;
#X connect 1 0 0 0;
#X connect 2 0 0 0;
#X connect 3 0 0 0;
#X connect 4 0 7 0;
#X connect 6 0 5 0;
#X connect 7 0 2 0;
#X connect 7 1 1 0;
#X connect 7 2 3 0;
#X connect 7 3 8 0;
#X connect 7 4 6 0;
#X connect 8 0 0 0;
#X restore 180 94 pd init;
#N canvas 329 -647 450 560 mensagens_externas 0;
#X msg 46 40 timer n;
#X text 110 41 n <0-1>;
#X text 122 66 0 -;
#X text 122 98 1 -;
#X msg 46 142 hold n;
#X text 105 143 n <0-1>;
#X text 122 167 0 -;
#X text 122 209 1 -;
#X text 146 209 reage apenas ao click on do mouse, f 23;
#X text 146 64 pad retorna tempo de entre click on e click off do mouse
, f 29;
#X text 146 98 pad não retorna tempo entre cliques. (default), f
29;
#X text 146 165 reage a click on e click off do mouse (default), f
23;
#X msg 46 245 color <bg-fg> <color>;
#X text 86 269 <bg-fg> -;
#X text 146 267 muda backgroud (bg) e foreground (fg) (fundo e frente)
do botão, f 37;
#X text 86 300 <color> -;
#X text 146 298 seleciona a cor:;
#X text 160 311 red \, green \, blue \, yellow \, lightRed \, lightGreen
\, lightBlue \, lightYellow, f 35;
#X msg 46 356 blink <0-1> <time_interval>;
#X text 122 386 0 -;
#X text 122 402 1 -;
#X text 146 402 inicia pisca o botão, f 29;
#X text 146 386 interrompe pisca o botão, f 29;
#X text 146 426 interrompe pisca o botão, f 29;
#X text 50 426 <time_interval>;
#X text 122 496 0 -;
#X text 122 512 1 -;
#X msg 46 466 state <0-1>;
#X text 146 496 desliga botão, f 29;
#X text 146 512 liga botão, f 29;
#X restore 33 212 pd mensagens_externas;
#X text 302 246 saída das mensagens da abstração [pad] (todas as
instâncias);
#X text 318 44 mensagens recebidas pelas abstrações (todas as instâncias)
;
#N canvas 396 263 450 170 mensagens_internas 0;
#X msg 35 30 color <bg-fg>;
#X text 137 30 muda efetivamente a cor setada no botão;
#X msg 37 67 sendout_state;
#X text 135 71 pad envia estado armazenado em;
#X obj 325 70 v \$0-button_state;
#X msg 39 107 hold;
#X text 79 108 ativa/desativa comportamento hold do botão;
#X restore 33 234 pd mensagens_internas;
#X obj 510 4 declare -lib else -path else;
#X obj 11 31 else/button 30 30 96 96 96 0 255 0;
#X connect 0 0 4 0;
#X connect 1 0 13 0;
#X connect 5 0 1 0;
#X connect 6 0 0 0;
#X connect 8 0 12 0;
#X connect 9 0 20 0;
#X connect 14 0 13 0;
#X connect 20 0 11 0;
#X coords 0 -1 1 1 32 32 2 10 30;
