#N canvas 298 288 316 276 12;
#X obj 23 23 inlet;
#X obj 23 213 outlet;
#X obj 23 161 list trim;
#X obj 23 65 route bang;
#X text 72 218 bang de fim;
#N canvas 691 279 450 300 hack_bug_ELSE 0;
#X obj 37 37 inlet;
#X obj 37 246 outlet;
#N canvas 261 106 450 300 github_issue 0;
#X obj 37 37 inlet;
#X msg 37 61 browse https://github.com/porres/pd-else/issues/792#issuecomment-717681543
;
#X obj 37 113 pdcontrol;
#X connect 0 0 1 0;
#X connect 1 0 2 0;
#X restore 303 57 pd github_issue;
#X obj 37 127 t a a, f 20;
#X obj 37 103 changed;
#X msg 176 191 list reset_change;
#X obj 174 149 bng 15 250 50 0 empty empty empty 17 7 0 10 -262144
-1 -1;
#X obj 37 192 route endbang;
#X obj 176 167 del 20;
#X obj 269 132 lb;
#X msg 37 216 endbang;
#X msg 303 34 ELSEbug;
#X connect 0 0 4 0;
#X connect 3 0 7 0;
#X connect 3 1 6 0;
#X connect 4 0 3 0;
#X connect 5 0 4 0;
#X connect 6 0 8 0;
#X connect 7 0 10 0;
#X connect 8 0 5 0;
#X connect 9 0 5 0;
#X connect 10 0 1 0;
#X connect 11 0 2 0;
#X restore 23 113 pd hack_bug_ELSE;
#X msg 23 89 endbang;
#X obj 23 137 list prepend \$1 out;
#X connect 0 0 3 0;
#X connect 2 0 1 0;
#X connect 3 0 6 0;
#X connect 5 0 7 0;
#X connect 6 0 5 0;
#X connect 7 0 2 0;
