#N canvas 105 108 751 375 12;
#X obj 26 19 inlet;
#X obj 26 328 outlet;
#X obj 100 96 list trim;
#X obj 26 223 list trim;
#N canvas 641 52 572 296 Control_Messages 0;
#X text 99 177 reset;
#X text 57 207 loop <float>;
#X text 139 147 - start point in ms (default 0), f 58;
#X text 139 207 -;
#X text 139 192 -;
#X text 139 177 -;
#X text 51 147 start <float>;
#X text 63 162 end <float>;
#X text 111 116 rec;
#X text 139 116 - (re)starts recording, f 58;
#X text 105 131 stop;
#X text 139 131 - stops recording, f 58;
#X text 33 192 continue <float>;
#X text 139 162 - end point in ms (default array's initial size),
f 58;
#X text 151 177 resets start/end from 0 to (current) array's size,
f 56;
#X text 151 192 non-zero: continue recording from where it last stopped
, f 56;
#X text 151 207 non-zero enables loop recording \, 0 disables it,
f 56;
#X msg 13 9 <pad> <<control_message>>;
#X text 32 44 <pad> - integer 0-15;
#X text 74 57 - all;
#X text 31 93 <<control_message>>;
#X restore 543 333 pd Control_Messages;
#N canvas 486 217 283 259 rec 0;
#X obj 63 21 inlet;
#X obj 63 201 outlet;
#X obj 63 57 route bang;
#X msg 63 119 rec;
#X obj 130 94 sel 0 1, f 11;
#X msg 130 119 0, f 1;
#X msg 167 119 1, f 1;
#X connect 0 0 2 0;
#X connect 2 0 3 0;
#X connect 2 1 4 0;
#X connect 3 0 1 0;
#X connect 4 0 5 0;
#X connect 4 1 6 0;
#X connect 5 0 1 0;
#X connect 6 0 1 0;
#X restore 100 151 pd rec;
#N canvas 548 335 199 292 stop 0;
#X obj 46 37 inlet;
#X obj 86 204 outlet;
#X msg 86 89 stop;
#X connect 0 0 2 0;
#X connect 2 0 1 0;
#X restore 186 151 pd stop;
#N canvas 533 369 242 275 start 0;
#X obj 33 31 inlet;
#X obj 100 198 outlet;
#X obj 33 77 route bang;
#X msg 100 119 start \$1;
#X connect 0 0 2 0;
#X connect 2 1 3 0;
#X connect 3 0 1 0;
#X restore 273 151 pd start;
#N canvas 633 254 212 269 reset 0;
#X obj 43 26 inlet;
#X obj 73 223 outlet;
#X msg 73 77 reset;
#X connect 0 0 2 0;
#X connect 2 0 1 0;
#X restore 446 151 pd reset;
#N canvas 570 316 242 275 end 0;
#X obj 33 31 inlet;
#X obj 90 198 outlet;
#X floatatom 90 99 5 0 0 1 end - -;
#X obj 33 77 route bang;
#X msg 90 119 end \$1;
#X connect 0 0 3 0;
#X connect 2 0 4 0;
#X connect 3 1 2 0;
#X connect 4 0 1 0;
#X restore 359 151 pd end;
#N canvas 514 262 242 275 continue 0;
#X obj 33 31 inlet;
#X obj 90 198 outlet;
#X floatatom 90 99 5 0 0 1 continue - -;
#X obj 33 77 route bang;
#X msg 90 119 continue \$1;
#X connect 0 0 3 0;
#X connect 2 0 4 0;
#X connect 3 1 2 0;
#X connect 4 0 1 0;
#X restore 532 151 pd continue;
#N canvas 666 330 242 275 loop 0;
#X obj 33 31 inlet;
#X obj 90 198 outlet;
#X floatatom 90 99 5 0 0 1 loop - -;
#X obj 33 77 route bang;
#X msg 90 119 loop \$1;
#X connect 0 0 3 0;
#X connect 2 0 4 0;
#X connect 3 1 2 0;
#X connect 4 0 1 0;
#X restore 619 151 pd loop;
#X obj 26 202 list append;
#X obj 26 61 list split 1;
#X obj 100 124 route rec stop start end reset continue loop, f 87
;
#N canvas 768 144 450 381 endbang_message 0;
#X obj 37 17 inlet;
#X obj 69 338 outlet;
#X text 117 336 message to recorder;
#X obj 37 51 t a a;
#X obj 326 129 sel 0;
#X obj 269 238 f;
#X obj 326 201 t b a;
#X msg 326 177 out endbang;
#X obj 269 265 list append, f 13;
#X obj 269 289 list trim;
#X obj 287 108 unpack;
#X obj 269 332 sendOSC recorder;
#X obj 326 153 del 1;
#X connect 0 0 3 0;
#X connect 3 0 10 0;
#X connect 3 1 1 0;
#X connect 4 0 12 0;
#X connect 5 0 8 0;
#X connect 6 0 5 0;
#X connect 6 1 8 1;
#X connect 7 0 6 0;
#X connect 8 0 9 0;
#X connect 9 0 11 0;
#X connect 10 0 5 1;
#X connect 10 1 4 0;
#X connect 12 0 7 0;
#X restore 26 267 pd endbang_message;
#X msg 543 314 <pad> <<control_message>>;
#X connect 0 0 13 0;
#X connect 2 0 14 0;
#X connect 3 0 15 0;
#X connect 5 0 12 1;
#X connect 6 0 12 1;
#X connect 7 0 12 1;
#X connect 8 0 12 1;
#X connect 9 0 12 1;
#X connect 10 0 12 1;
#X connect 11 0 12 1;
#X connect 12 0 3 0;
#X connect 13 0 12 0;
#X connect 13 1 2 0;
#X connect 14 0 5 0;
#X connect 14 1 6 0;
#X connect 14 2 7 0;
#X connect 14 3 9 0;
#X connect 14 4 8 0;
#X connect 14 5 10 0;
#X connect 14 6 11 0;
#X connect 15 0 1 0;
