#N canvas 614 102 269 230 10;
#X obj 33 184 s OSC_bus;
#X obj 33 26 inlet;
#X obj 33 131 oscformat /app;
#X text 130 151 Implementar para escolher o nome do app na criação
do objeto, f 20;
#X obj 33 109 list prepend;
#X msg 110 66 args 0;
#X obj 110 87 pdcontrol;
#X obj 110 42 loadbang;
#X obj 33 49 route bang;
#X msg 33 70 symbol bang;
#X connect 1 0 8 0;
#X connect 2 0 0 0;
#X connect 4 0 2 0;
#X connect 5 0 6 0;
#X connect 6 0 4 1;
#X connect 7 0 5 0;
#X connect 8 0 9 0;
#X connect 8 1 4 0;
#X connect 9 0 4 0;
