#N canvas 444 151 319 232 12;
#X obj 37 37 inlet;
#X obj 37 130 sig~;
#X obj 37 154 outlet~;
#X obj 244 159 outlet;
#X obj 37 66 route float all, f 30;
#X obj 140 92 route float;
#X connect 0 0 4 0;
#X connect 1 0 2 0;
#X connect 4 0 1 0;
#X connect 4 1 5 0;
#X connect 4 2 3 0;
#X connect 5 0 1 0;
#X connect 5 1 3 0;
