#N canvas 765 225 326 497 12;
#X obj 148 101 vsl 15 128 0.01 10 0 0 empty empty LFO_freq 0 -9 0 10
-262144 -1 -1 0 1;
#X obj 215 101 vsl 15 128 0 1 0 0 empty empty amount 0 -9 0 10 -262144
-1 -1 0 1;
#X obj 41 10 inlet~;
#X obj 41 407 outlet~;
#X obj 41 379 *~;
#X obj 148 288 osc~;
#X msg 148 235 \$1 40;
#X obj 148 266 vline~;
#X msg 215 234 \$1 40;
#X obj 215 293 vline~;
#X obj 197 360 +~;
#X obj 215 316 expr~ 1 - $v1;
#X obj 148 312 *~;
#X obj 148 8 inlet;
#X obj 148 58 unpack f f;
#X connect 0 0 6 0;
#X connect 1 0 8 0;
#X connect 2 0 4 0;
#X connect 4 0 3 0;
#X connect 5 0 12 0;
#X connect 6 0 7 0;
#X connect 7 0 5 0;
#X connect 8 0 9 0;
#X connect 9 0 11 0;
#X connect 9 0 12 1;
#X connect 10 0 4 1;
#X connect 11 0 10 1;
#X connect 12 0 10 0;
#X connect 13 0 14 0;
#X connect 14 0 0 0;
#X connect 14 1 1 0;
