#N canvas 529 310 430 425 10;
#X obj 224 284 osc~;
#X obj 224 91 vsl 15 128 0.01 10 0 0 empty empty freq 0 -9 0 10 -262144
-1 -1 0 1;
#X obj 224 316 +~ 1;
#X obj 224 342 *~, f 10;
#X obj 281 91 vsl 15 128 0 8 0 0 empty empty amount 0 -9 0 10 -262144
-1 -1 0 1;
#X obj 14 6 inlet~;
#X obj 14 49 delwrite~ \$0-vibrato_buffer 2000;
#X obj 224 367 delread4~ \$0-vibrato_buffer;
#X obj 224 396 outlet~;
#X msg 224 237 \$1 40;
#X obj 224 258 vline~;
#X msg 281 237 \$1 40;
#X obj 281 258 vline~;
#X obj 224 10 inlet;
#X obj 224 51 unpack f f;
#X connect 0 0 2 0;
#X connect 1 0 9 0;
#X connect 2 0 3 0;
#X connect 3 0 7 0;
#X connect 4 0 11 0;
#X connect 5 0 6 0;
#X connect 7 0 8 0;
#X connect 9 0 10 0;
#X connect 10 0 0 0;
#X connect 11 0 12 0;
#X connect 12 0 3 1;
#X connect 13 0 14 0;
#X connect 14 0 1 0;
#X connect 14 1 4 0;
