#N canvas 830 -656 739 535 10;
#X declare -path abs;
#X declare -lib else;
#X obj 628 26 declare -path abs;
#X obj 628 5 declare -lib else;
#X obj 39 30 abs/drumpad-gui 1;
#N canvas 0 22 450 300 CPUmeter 0;
#X floatatom 316 233 0 0 0 0 - - -;
#X obj 316 145 cputime;
#X obj 316 25 loadbang;
#X obj 316 89 metro 1000;
#X obj 316 117 t b b;
#X obj 316 205 * 0.1;
#X obj 316 174 int;
#X text 293 274 CPU load in percent;
#X text 339 55 <= on/off;
#X obj 316 56 tgl 15 0 empty empty empty 17 7 0 10 -262144 -1 -1 1
1;
#X obj 100 100 cnv 15 85 30 empty \$0-cpu_meter CPU\ 4% 6 15 0 18 -99865
-228856 0;
#X obj 158 256 s \$0-cpu_meter;
#X msg 158 230 label \$1;
#X obj 158 207 makefilename CPU\ %d%%;
#X msg 61 209 symbol CPU_90%;
#X connect 0 0 13 0;
#X connect 1 0 6 0;
#X connect 2 0 9 0;
#X connect 3 0 4 0;
#X connect 4 0 1 0;
#X connect 4 1 1 1;
#X connect 5 0 0 0;
#X connect 6 0 5 0;
#X connect 9 0 3 0;
#X connect 12 0 11 0;
#X connect 13 0 12 0;
#X connect 14 0 12 0;
#X coords 0 -1 1 1 85 30 2 100 100;
#X restore 649 46 pd CPUmeter;
#N canvas 557 206 450 300 else 0;
#X obj 201 174 else/batch.rec~;
#N canvas 84 121 540 328 pvoc.player~ 0;
#X msg 99 101 pause;
#X msg 154 100 continue;
#X obj 257 187 nbx 4 14 -1e+37 1e+37 0 0 empty empty empty 0 -8 0 10
-228856 -1 -1 0 256;
#X msg 232 127 loop \$1;
#X obj 232 103 tgl 15 0 empty empty empty 17 7 0 10 -228856 -1 -1 0
1;
#X obj 196 128 bng 15 250 50 0 empty empty empty 17 7 0 10 -228856
-1 -1;
#X obj 340 238 bng 15 250 50 0 empty empty empty 17 7 0 10 -228856
-1 -1;
#X text 361 236 <= finished;
#X msg 140 78 open vacuous.wav;
#X obj 175 128 tgl 15 0 empty empty empty 17 7 0 10 -228856 -1 -1 0
1;
#X text 84 201 click: opens a new file =>, f 13;
#X msg 36 78 open stereo.wav;
#X obj 232 151 else/pack2 range f f;
#X floatatom 290 113 5 0 0 0 - - -;
#X obj 293 89 hsl 128 15 0 1 0 0 empty empty empty -2 -8 0 10 -228856
-1 -1 0 1;
#X floatatom 349 131 5 0 0 0 - - -;
#X obj 352 110 hsl 128 15 0 1 0 0 empty empty empty -2 -8 0 10 -228856
-1 -1 0 1;
#X text 333 89 minimum;
#X text 393 110 maximum;
#X obj 175 210 else/pvoc.player~ stereo.wav;
#X text 113 35 Test the main message methods of [pvoc.player~].;
#X obj 340 187 nbx 4 14 -1e+37 1e+37 0 0 empty empty empty 0 -8 0 10
-228856 -1 -1 0 256;
#X text 223 186 speed;
#X text 389 185 transposition;
#X obj 171 242 else/out~;
#X obj 447 52 switch~;
#X obj 442 23 tgl 15 0 empty empty empty 17 7 0 10 -262144 -1 -1 0
1;
#X connect 0 0 19 0;
#X connect 1 0 19 0;
#X connect 2 0 19 1;
#X connect 3 0 19 0;
#X connect 4 0 3 0;
#X connect 5 0 19 0;
#X connect 8 0 19 0;
#X connect 9 0 19 0;
#X connect 11 0 19 0;
#X connect 12 0 19 0;
#X connect 13 0 12 1;
#X connect 14 0 13 0;
#X connect 15 0 12 2;
#X connect 16 0 15 0;
#X connect 19 0 24 0;
#X connect 19 2 6 0;
#X connect 21 0 19 2;
#X connect 26 0 25 0;
#X restore 201 103 pd pvoc.player~;
#N canvas 607 122 608 348 gran.player~ 0;
#X obj 508 61 switch~;
#X obj 503 32 tgl 15 0 empty empty empty 17 7 0 10 -262144 -1 -1 0
1;
#X msg 120 126 pause;
#X msg 175 125 continue;
#X obj 278 212 nbx 4 14 -1e+37 1e+37 0 0 empty empty empty 0 -8 0 10
-228856 -1 -1 0 256;
#X msg 253 152 loop \$1;
#X obj 253 128 tgl 15 0 empty empty empty 17 7 0 10 -228856 -1 -1 0
1;
#X obj 217 153 bng 15 250 50 0 empty empty empty 17 7 0 10 -228856
-1 -1;
#X obj 361 263 bng 15 250 50 0 empty empty empty 17 7 0 10 -228856
-1 -1;
#X text 382 261 <= finished;
#X msg 161 103 open vacuous.wav;
#X obj 196 153 tgl 15 0 empty empty empty 17 7 0 10 -228856 -1 -1 0
1;
#X text 105 226 click: opens a new file =>, f 13;
#X msg 57 103 open stereo.wav;
#X obj 253 176 else/pack2 range f f;
#X floatatom 311 138 5 0 0 0 - - -;
#X obj 314 114 hsl 128 15 0 1 0 0 empty empty empty -2 -8 0 10 -228856
-1 -1 0 1;
#X floatatom 370 156 5 0 0 0 - - -;
#X obj 373 135 hsl 128 15 0 1 0 0 empty empty empty -2 -8 0 10 -228856
-1 -1 0 1;
#X text 354 114 minimum;
#X text 414 135 maximum;
#X obj 361 212 nbx 4 14 -1e+37 1e+37 0 0 empty empty empty 0 -8 0 10
-228856 -1 -1 0 256;
#X text 244 211 speed;
#X text 410 210 transposition;
#X obj 196 235 else/gran.player~ stereo.wav;
#X text 134 60 Test the main message methods of [gran.player~].;
#X obj 194 268 else/out~;
#X connect 1 0 0 0;
#X connect 2 0 24 0;
#X connect 3 0 24 0;
#X connect 4 0 24 1;
#X connect 5 0 24 0;
#X connect 6 0 5 0;
#X connect 7 0 24 0;
#X connect 10 0 24 0;
#X connect 11 0 24 0;
#X connect 13 0 24 0;
#X connect 14 0 24 0;
#X connect 15 0 14 1;
#X connect 16 0 15 0;
#X connect 17 0 14 2;
#X connect 18 0 17 0;
#X connect 21 0 24 2;
#X connect 24 0 26 0;
#X connect 24 2 8 0;
#X restore 201 122 pd gran.player~;
#N canvas 724 215 450 208 rec.file~ 0;
#X obj 31 119 bng 15 250 50 0 empty empty empty 17 7 0 10 -228856 -1
-1;
#X obj 31 61 tgl 15 0 empty empty empty 17 7 0 10 -228856 -1 -1 0 1
;
#X obj 291 64 else/play.file~ 2;
#X msg 291 41 open test.wav;
#X obj 279 91 else/out~;
#X obj 104 61 noise~;
#X obj 178 61 else/brown~;
#X obj 31 91 else/rec.file~ test.wav 2;
#X connect 1 0 7 0;
#X connect 2 0 4 0;
#X connect 2 1 4 1;
#X connect 3 0 2 0;
#X connect 5 0 7 1;
#X connect 6 0 7 2;
#X connect 7 0 0 0;
#X restore 201 144 pd rec.file~;
#X restore 629 117 pd else opções;
#N canvas 976 -1032 612 314 drumpad_debug 1;
#X floatatom 17 25 5 0 0 0 - - -;
#X obj 224 23 receiveOSC;
#X obj 224 162 print;
#X obj 224 54 route drumpad;
#X obj 224 77 route 1;
#X obj 17 243 sendOSC drumpad 1 in pad;
#X obj 224 98 route out;
#X text 293 115 roteamento de mensagens de saída do drumpad 1, f
23;
#X obj 269 122 tgl 15 0 empty empty empty 17 7 0 10 -262144 -1 -1 0
1;
#X obj 224 139 spigot 0;
#X msg 55 42 all color fg yellow;
#X msg 65 62 all color fg blue;
#X msg 75 82 all color fg green;
#X msg 85 102 all color fg red;
#X msg 118 161 0 state 1;
#X msg 128 179 0 state 0;
#X msg 95 121 all color bg grey;
#X msg 148 217 0 blink 0;
#X msg 138 197 0 blink 1 600;
#X obj 436 27 receiveOSC;
#X obj 436 78 print debug_messages;
#X obj 517 17 tgl 30 0 empty empty debugGeral 17 7 0 10 -262130 -1
-1 1 1;
#X obj 436 54 spigot 0, f 14;
#X obj 409 171 bng 30 250 50 0 empty empty Separador_p/Debug 35 7 0
10 -262130 -1 -1;
#X obj 410 230 print debug_messages;
#X msg 409 206 ---+_+_++___________++_+_+-----;
#X connect 0 0 5 0;
#X connect 1 0 3 0;
#X connect 3 0 4 0;
#X connect 4 0 6 0;
#X connect 6 0 9 0;
#X connect 8 0 9 1;
#X connect 9 0 2 0;
#X connect 10 0 5 0;
#X connect 11 0 5 0;
#X connect 12 0 5 0;
#X connect 13 0 5 0;
#X connect 14 0 5 0;
#X connect 15 0 5 0;
#X connect 16 0 5 0;
#X connect 17 0 5 0;
#X connect 18 0 5 0;
#X connect 19 0 22 0;
#X connect 21 0 22 1;
#X connect 22 0 20 0;
#X connect 23 0 25 0;
#X connect 25 0 24 0;
#X restore 39 11 pd drumpad_debug;
#X text 309 70 arma gravação e começa a gravar no pad pressionado
, f 25;
#X text 299 106 reproduz sample pressionando botão com luz amarela
, f 28;
#X obj 232 44 tgl 25 0 empty \$0-arm_record_toggle empty 17 7 0 10
-262144 -1 -1 0 1;
#X obj 232 44 bng 25 250 50 0 \$0-armRecordBang_send \$0-armRecordBang_receive
Armar_Gravação 30 12 0 14 -261234 -258113 -1;
#N canvas 955 30 311 303 recorder 1;
#X obj 35 22 inlet;
#X text 28 194 4 minutos em 16 bancos = 339 Mb;
#X text 112 212 1 minuto = 5 \, 292 Mb;
#X obj 41 235 bng 15 250 50 0 empty empty empty 17 7 0 10 -262144 -1
-1;
#N canvas 684 430 450 174 calculadora_internet 0;
#X obj 37 37 inlet;
#X msg 37 58 browse https://www.colincrawley.com/audio-file-size-calculator/
;
#X obj 37 90 pdcontrol;
#X connect 0 0 1 0;
#X connect 1 0 2 0;
#X restore 41 265 pd calculadora_internet;
#N canvas 471 161 522 598 buffers 0;
#X obj 21 116 else/sample~ \$0-pad_0 -ms 2000;
#X text 128 97 Buffer pad 0;
#X text 379 97 Buffer pad 1;
#X obj 270 116 else/sample~ \$0-pad_1 -ms 2000;
#X text 128 157 Buffer pad 2;
#X obj 21 176 else/sample~ \$0-pad_2 -ms 2000;
#X text 379 156 Buffer pad 3;
#X obj 270 175 else/sample~ \$0-pad_3 -ms 2000;
#X text 128 217 Buffer pad 4;
#X text 379 217 Buffer pad 5;
#X obj 21 236 else/sample~ \$0-pad_4 -ms 2000;
#X obj 270 236 else/sample~ \$0-pad_5 -ms 2000;
#X text 128 277 Buffer pad 6;
#X obj 21 296 else/sample~ \$0-pad_6 -ms 2000;
#X text 379 276 Buffer pad 7;
#X obj 270 295 else/sample~ \$0-pad_7 -ms 2000;
#X obj 21 11 inlet;
#X text 128 327 Buffer pad 8;
#X obj 21 346 else/sample~ \$0-pad_8 -ms 2000;
#X text 379 327 Buffer pad 9;
#X obj 270 346 else/sample~ \$0-pad_9 -ms 2000;
#X text 128 387 Buffer pad 10;
#X obj 21 406 else/sample~ \$0-pad_10 -ms 2000;
#X text 379 386 Buffer pad 11;
#X obj 270 405 else/sample~ \$0-pad_11 -ms 2000;
#X text 128 447 Buffer pad 12;
#X obj 21 466 else/sample~ \$0-pad_12 -ms 2000;
#X text 379 447 Buffer pad 13;
#X obj 270 466 else/sample~ \$0-pad_13 -ms 2000;
#X text 128 507 Buffer pad 14;
#X obj 21 526 else/sample~ \$0-pad_14 -ms 2000;
#X text 379 506 Buffer pad 15;
#X obj 270 525 else/sample~ \$0-pad_15 -ms 2000;
#X floatatom 74 10 5 0 0 0 - - -;
#X floatatom 144 10 5 0 0 0 - - -;
#X obj 21 67 t a a, f 42;
#X obj 21 91 route 0 all;
#X obj 270 91 route 1 all;
#X obj 21 147 route 2 all;
#X obj 270 147 route 3 all;
#X obj 21 207 route 4 all;
#X obj 270 207 route 5 all;
#X obj 21 270 route 6 all;
#X obj 270 270 route 7 all;
#X obj 21 323 route 8 all;
#X obj 270 323 route 9 all;
#X obj 21 383 route 10 all;
#X obj 271 383 route 11 all;
#X obj 21 446 route 12 all;
#X obj 271 446 route 13 all;
#X obj 21 501 route 14 all;
#X obj 271 501 route 15 all;
#X msg 74 26 all ms \$1;
#X msg 144 26 all size \$1;
#X connect 16 0 35 0;
#X connect 33 0 52 0;
#X connect 34 0 53 0;
#X connect 35 0 36 0;
#X connect 35 0 50 0;
#X connect 35 0 48 0;
#X connect 35 0 46 0;
#X connect 35 0 44 0;
#X connect 35 0 42 0;
#X connect 35 0 40 0;
#X connect 35 0 38 0;
#X connect 35 1 37 0;
#X connect 35 1 51 0;
#X connect 35 1 49 0;
#X connect 35 1 47 0;
#X connect 35 1 45 0;
#X connect 35 1 43 0;
#X connect 35 1 41 0;
#X connect 35 1 39 0;
#X connect 36 0 0 0;
#X connect 36 1 0 0;
#X connect 37 0 3 0;
#X connect 37 1 3 0;
#X connect 38 0 5 0;
#X connect 38 1 5 0;
#X connect 39 0 7 0;
#X connect 39 1 7 0;
#X connect 40 0 10 0;
#X connect 40 1 10 0;
#X connect 41 0 11 0;
#X connect 41 1 11 0;
#X connect 42 0 13 0;
#X connect 42 1 13 0;
#X connect 43 0 15 0;
#X connect 43 1 15 0;
#X connect 44 0 18 0;
#X connect 44 1 18 0;
#X connect 45 0 20 0;
#X connect 45 1 20 0;
#X connect 46 0 22 0;
#X connect 46 1 22 0;
#X connect 47 0 24 0;
#X connect 47 1 24 0;
#X connect 48 0 26 0;
#X connect 48 1 26 0;
#X connect 49 0 28 0;
#X connect 49 1 28 0;
#X connect 50 0 30 0;
#X connect 50 1 30 0;
#X connect 51 0 32 0;
#X connect 51 1 32 0;
#X connect 52 0 35 0;
#X connect 53 0 35 0;
#X restore 240 6 pd buffers;
#X text 55 248 usando 2 minutos = 170Mb;
#N canvas 232 35 986 662 recorders 0;
#X obj 29 18 inlet;
#X obj 170 449 adc~;
#X obj 29 468 else/tabwriter~ \$0-pad_0;
#X obj 29 435 route 0 all;
#X obj 410 449 adc~;
#X obj 652 449 adc~;
#X obj 893 449 adc~;
#X obj 170 359 adc~;
#X obj 411 359 adc~;
#X obj 652 359 adc~;
#X obj 892 359 adc~;
#X obj 170 269 adc~;
#X obj 411 269 adc~;
#X obj 657 269 adc~;
#X obj 898 269 adc~;
#X obj 175 189 adc~;
#X obj 416 189 adc~;
#X obj 657 189 adc~;
#X obj 898 189 adc~;
#X obj 269 435 route 1 all;
#X obj 269 468 else/tabwriter~ \$0-pad_1;
#X obj 511 435 route 2 all;
#X obj 511 468 else/tabwriter~ \$0-pad_2;
#X obj 751 435 route 3 all;
#X obj 751 468 else/tabwriter~ \$0-pad_3;
#X obj 29 345 route 4 all;
#X obj 29 378 else/tabwriter~ \$0-pad_4;
#X obj 270 345 route 5 all;
#X obj 270 378 else/tabwriter~ \$0-pad_5;
#X obj 511 345 route 6 all;
#X obj 511 378 else/tabwriter~ \$0-pad_6;
#X obj 751 345 route 7 all;
#X obj 751 378 else/tabwriter~ \$0-pad_7;
#X obj 29 255 route 8 all;
#X obj 29 288 else/tabwriter~ \$0-pad_8;
#X obj 270 255 route 9 all;
#X obj 270 288 else/tabwriter~ \$0-pad_9;
#X obj 511 255 route 10 all;
#X obj 511 288 else/tabwriter~ \$0-pad_10;
#X obj 752 255 route 11 all;
#X obj 752 288 else/tabwriter~ \$0-pad_11;
#X obj 29 175 route 12 all;
#X obj 29 208 else/tabwriter~ \$0-pad_12;
#X obj 270 175 route 13 all;
#X obj 270 208 else/tabwriter~ \$0-pad_13;
#X obj 511 175 route 14 all;
#X obj 511 208 else/tabwriter~ \$0-pad_14;
#X obj 752 175 route 15 all;
#X obj 752 208 else/tabwriter~ \$0-pad_15;
#X obj 29 137 t a a a a, f 121;
#X obj 29 39 route pad;
#N canvas 332 194 679 390 message_processor 0;
#X obj 42 19 inlet;
#X obj 71 328 outlet;
#X obj 42 67 list split 1, f 22;
#X obj 106 86 list trim;
#X floatatom 42 125 5 0 0 0 pad - -;
#X obj 71 203 list trim;
#X msg 501 20 n.pad control_message;
#N canvas 432 196 529 262 Control_Messages 0;
#X text 13 58 n.pad - integer 0-15;
#X text 80 171 reset;
#X text 38 201 loop <float>;
#X text 120 141 - start point in ms (default 0), f 58;
#X text 120 201 -;
#X text 120 186 -;
#X text 120 171 -;
#X text 32 141 start <float>;
#X text 44 156 end <float>;
#X text 92 110 rec;
#X text 120 110 - (re)starts recording, f 58;
#X text 86 125 stop;
#X text 120 125 - stops recording, f 58;
#X text 14 186 continue <float>;
#X text 120 94 - gate: non-zero starts recording \, 0 stops it, f
58;
#X text 120 156 - end point in ms (default array's initial size),
f 58;
#X text 132 171 resets start/end from 0 to (current) array's size,
f 56;
#X text 132 186 non-zero: continue recording from where it last stopped
, f 56;
#X text 132 201 non-zero enables loop recording \, 0 disables it,
f 56;
#X text 12 77 control_message;
#X text 56 94 float 0-1;
#X msg 12 23 n.pad control_message;
#X restore 501 39 pd Control_Messages;
#X obj 106 104 route rec stop start end reset continue loop, f 87
;
#N canvas 553 158 207 259 rec 0;
#X obj 63 21 inlet;
#X obj 63 189 outlet;
#X floatatom 120 119 5 0 0 1 rec - -;
#X obj 63 57 route bang;
#X msg 63 119 rec;
#X connect 0 0 3 0;
#X connect 2 0 1 0;
#X connect 3 0 4 0;
#X connect 3 1 2 0;
#X connect 4 0 1 0;
#X restore 106 125 pd rec;
#N canvas 548 335 199 292 stop 0;
#X obj 46 37 inlet;
#X obj 86 204 outlet;
#X msg 86 89 stop;
#X connect 0 0 2 0;
#X connect 2 0 1 0;
#X restore 180 125 pd stop;
#N canvas 557 312 242 275 start 0;
#X obj 33 31 inlet;
#X obj 90 198 outlet;
#X floatatom 90 99 5 0 0 1 start - -;
#X obj 33 77 route bang;
#X msg 90 119 start \$1;
#X connect 0 0 3 0;
#X connect 2 0 4 0;
#X connect 3 1 2 0;
#X connect 4 0 1 0;
#X restore 254 125 pd start;
#N canvas 633 254 212 269 reset 0;
#X obj 43 26 inlet;
#X obj 73 223 outlet;
#X msg 73 77 reset;
#X connect 0 0 2 0;
#X connect 2 0 1 0;
#X restore 402 125 pd reset;
#N canvas 570 316 242 275 end 0;
#X obj 33 31 inlet;
#X obj 90 198 outlet;
#X floatatom 90 99 5 0 0 1 end - -;
#X obj 33 77 route bang;
#X msg 90 119 end \$1;
#X connect 0 0 3 0;
#X connect 2 0 4 0;
#X connect 3 1 2 0;
#X connect 4 0 1 0;
#X restore 328 125 pd end;
#N canvas 514 262 242 275 continue 0;
#X obj 33 31 inlet;
#X obj 90 198 outlet;
#X floatatom 90 99 5 0 0 1 continue - -;
#X obj 33 77 route bang;
#X msg 90 119 continue \$1;
#X connect 0 0 3 0;
#X connect 2 0 4 0;
#X connect 3 1 2 0;
#X connect 4 0 1 0;
#X restore 476 125 pd continue;
#N canvas 666 330 242 275 loop 0;
#X obj 33 31 inlet;
#X obj 90 198 outlet;
#X floatatom 90 99 5 0 0 1 loop - -;
#X obj 33 77 route bang;
#X msg 90 119 loop \$1;
#X connect 0 0 3 0;
#X connect 2 0 4 0;
#X connect 3 1 2 0;
#X connect 4 0 1 0;
#X restore 550 125 pd loop;
#X obj 71 182 list append;
#X connect 0 0 2 0;
#X connect 2 0 4 0;
#X connect 2 1 3 0;
#X connect 3 0 8 0;
#X connect 4 0 16 0;
#X connect 5 0 1 0;
#X connect 8 0 9 0;
#X connect 8 1 10 0;
#X connect 8 2 11 0;
#X connect 8 3 13 0;
#X connect 8 4 12 0;
#X connect 8 5 14 0;
#X connect 8 6 15 0;
#X connect 9 0 16 1;
#X connect 10 0 16 1;
#X connect 11 0 16 1;
#X connect 12 0 16 1;
#X connect 13 0 16 1;
#X connect 14 0 16 1;
#X connect 15 0 16 1;
#X connect 16 0 5 0;
#X restore 29 59 pd message_processor;
#X obj 29 518 t a;
#X obj 269 518 t a;
#X obj 511 518 t a;
#X obj 751 518 t a;
#X obj 29 564 t a;
#X obj 29 615 sendOSC out recorder;
#X obj 29 229 list prepend pad 12 rec finished;
#X obj 270 229 list prepend pad 13 rec finished;
#X obj 511 229 list prepend pad 12 rec finished;
#X obj 752 229 list prepend pad 13 rec finished;
#X obj 752 309 list prepend pad 11 rec finished;
#X obj 511 309 list prepend pad 10 rec finished;
#X obj 270 309 list prepend pad 9 rec finished;
#X obj 29 309 list prepend pad 8 rec finished;
#X obj 29 399 list prepend pad 4 rec finished;
#X obj 29 490 list prepend pad 0 rec finished;
#X obj 270 399 list prepend pad 5 rec finished;
#X obj 511 399 list prepend pad 6 rec finished;
#X obj 751 399 list prepend pad 7 rec finished;
#X obj 751 490 list prepend pad 3 rec finished;
#X obj 511 490 list prepend pad 2 rec finished;
#X obj 269 490 list prepend pad 1 rec finished;
#X text 350 101 p/ debug;
#X obj 29 80 t a a;
#X obj 56 98 sendOSC recorder recorders message_processor out;
#X connect 0 0 50 0;
#X connect 1 0 2 1;
#X connect 2 0 67 0;
#X connect 3 0 2 0;
#X connect 3 1 2 0;
#X connect 4 0 20 1;
#X connect 5 0 22 1;
#X connect 6 0 24 1;
#X connect 7 0 26 1;
#X connect 8 0 28 1;
#X connect 9 0 30 1;
#X connect 10 0 32 1;
#X connect 11 0 34 1;
#X connect 12 0 36 1;
#X connect 13 0 38 1;
#X connect 14 0 40 1;
#X connect 15 0 42 1;
#X connect 16 0 44 1;
#X connect 17 0 46 1;
#X connect 18 0 48 1;
#X connect 19 0 20 0;
#X connect 19 1 20 0;
#X connect 20 0 73 0;
#X connect 21 0 22 0;
#X connect 21 1 22 0;
#X connect 22 0 72 0;
#X connect 23 0 24 0;
#X connect 23 1 24 0;
#X connect 24 0 71 0;
#X connect 25 0 26 0;
#X connect 25 1 26 0;
#X connect 26 0 66 0;
#X connect 27 0 28 0;
#X connect 27 1 28 0;
#X connect 28 0 68 0;
#X connect 29 0 30 0;
#X connect 29 1 30 0;
#X connect 30 0 69 0;
#X connect 31 0 32 0;
#X connect 31 1 32 0;
#X connect 32 0 70 0;
#X connect 33 0 34 0;
#X connect 33 1 34 0;
#X connect 34 0 65 0;
#X connect 35 0 36 0;
#X connect 35 1 36 0;
#X connect 36 0 64 0;
#X connect 37 0 38 0;
#X connect 37 1 38 0;
#X connect 38 0 63 0;
#X connect 39 0 40 0;
#X connect 39 1 40 0;
#X connect 40 0 62 0;
#X connect 41 0 42 0;
#X connect 41 1 42 0;
#X connect 42 0 58 0;
#X connect 43 0 44 0;
#X connect 43 1 44 0;
#X connect 44 0 59 0;
#X connect 45 0 46 0;
#X connect 45 1 46 0;
#X connect 46 0 60 0;
#X connect 47 0 48 0;
#X connect 47 1 48 0;
#X connect 48 0 61 0;
#X connect 49 0 41 0;
#X connect 49 1 43 0;
#X connect 49 2 45 0;
#X connect 49 3 47 0;
#X connect 50 0 51 0;
#X connect 51 0 75 0;
#X connect 52 0 56 0;
#X connect 53 0 56 0;
#X connect 54 0 56 0;
#X connect 55 0 56 0;
#X connect 56 0 57 0;
#X connect 58 0 52 0;
#X connect 59 0 53 0;
#X connect 60 0 54 0;
#X connect 61 0 55 0;
#X connect 62 0 55 0;
#X connect 63 0 54 0;
#X connect 64 0 53 0;
#X connect 65 0 52 0;
#X connect 66 0 52 0;
#X connect 67 0 52 0;
#X connect 68 0 53 0;
#X connect 69 0 54 0;
#X connect 70 0 55 0;
#X connect 71 0 55 0;
#X connect 72 0 54 0;
#X connect 73 0 53 0;
#X connect 75 0 49 0;
#X connect 75 1 76 0;
#X restore 121 154 pd recorders;
#N canvas 500 315 232 192 to_GUI-control 0;
#X obj 41 39 inlet;
#X obj 41 119 sendOSC guiControl;
#X msg 41 60 armRecord \$1;
#X connect 0 0 2 0;
#X connect 2 0 1 0;
#X restore 35 45 pd to_GUI-control;
#X obj 121 71 receiveOSC;
#X obj 121 112 route recorder;
#X obj 121 92 route guiControl;
#X connect 0 0 8 0;
#X connect 3 0 4 0;
#X connect 9 0 11 0;
#X connect 10 0 7 0;
#X connect 11 0 10 0;
#X restore 232 76 pd recorder;
#N canvas 0 22 450 300 player 0;
#X obj 76 59 else/gran.player~;
#X restore 232 109 pd player;
#N canvas 0 159 651 300 GUI-Control 1;
#X obj 28 16 receiveOSC;
#X obj 511 99 route armRecord;
#X obj 28 78 t a a a a, f 81;
#X obj 28 57 route guiControl, f 17;
#X obj 350 101 route record;
#N canvas 547 66 639 300 arm-record_actions 1;
#X obj 37 37 inlet;
#N canvas 706 225 515 204 blink_drumpad_to_record 0;
#X obj 24 15 inlet;
#X obj 24 36 sel 1, f 44;
#X obj 24 57 t b b, f 19;
#X obj 285 55 t b b, f 14;
#X obj 24 139 sendOSC drumpad 1 in pad;
#X msg 24 77 all blink 1 750;
#X msg 135 77 all color fg lightRed;
#X msg 285 76 all blink 0;
#X msg 366 76 all color fg green;
#X connect 0 0 1 0;
#X connect 1 0 2 0;
#X connect 1 1 3 0;
#X connect 2 0 5 0;
#X connect 2 1 6 0;
#X connect 3 0 7 0;
#X connect 3 1 8 0;
#X connect 5 0 4 0;
#X connect 6 0 4 0;
#X connect 7 0 4 0;
#X connect 8 0 4 0;
#X restore 224 107 pd blink_drumpad_to_record;
#N canvas 512 267 415 216 blink_arm_button 1;
#X obj 36 27 inlet;
#X obj 36 143 s \$0-armRecordBang_receive;
#X obj 36 53 tgl 15 0 empty empty empty 17 7 0 10 -262144 -1 -1 1 1
;
#X obj 36 97 metro 600;
#X obj 36 73 t f f, f 36;
#X obj 249 96 sel 0;
#X obj 249 143 s \$0-arm_record_toggle;
#X msg 249 117 set 0;
#X connect 0 0 2 0;
#X connect 2 0 4 0;
#X connect 3 0 1 0;
#X connect 4 0 3 0;
#X connect 4 1 5 0;
#X connect 5 0 7 0;
#X connect 7 0 6 0;
#X restore 412 106 pd blink_arm_button;
#X obj 37 78 t f f f, f 63;
#N canvas 719 85 443 557 send_padPressed_to_recorder 1;
#X obj 280 13 inlet;
#X obj 163 67 spigot 0, f 20;
#X obj 53 13 receiveOSC;
#X obj 163 88 route drumpad;
#X obj 163 109 route 1;
#X obj 163 150 route pad;
#X obj 163 130 route out;
#X obj 308 226 route state;
#X obj 274 189 list split 1;
#X obj 308 208 list trim;
#X floatatom 274 248 5 0 0 0 pad - -;
#X floatatom 308 248 5 0 0 1 state - -;
#N canvas 135 285 222 250 messages 0;
#X obj 37 37 inlet;
#X obj 57 191 outlet;
#X obj 57 81 list prepend rec;
#X connect 0 0 2 0;
#X connect 2 0 1 0;
#X restore 308 275 pd messages;
#X obj 245 308 list append;
#X obj 245 336 list trim;
#X msg 186 275 recorder pad \$1;
#X obj 272 520 sendOSC guiControl;
#X obj 245 357 t b a;
#N canvas 805 364 450 300 control_drumpadBlink 0;
#X obj 32 30 inlet;
#X obj 221 238 outlet;
#X obj 297 31 inlet;
#X text 335 39 bang to go;
#X obj 32 81 unpack f f, f 18;
#X text 76 32 pad number and button state;
#X msg 221 165 pad 0 started 0;
#X msg 32 111 set pad \$1 started \$2;
#X connect 0 0 4 0;
#X connect 2 0 6 0;
#X connect 4 0 7 0;
#X connect 6 0 1 0;
#X connect 7 0 6 0;
#X restore 58 408 pd control_drumpadBlink;
#X obj 163 169 t a a, f 19;
#X obj 92 240 route state;
#X obj 58 203 list split 1;
#X obj 92 222 list trim;
#X obj 58 272 pack f f;
#X obj 58 429 list prepend record;
#X obj 58 450 list trim;
#X connect 0 0 1 1;
#X connect 1 0 3 0;
#X connect 2 0 1 0;
#X connect 3 0 4 0;
#X connect 4 0 6 0;
#X connect 5 0 19 0;
#X connect 6 0 5 0;
#X connect 7 0 11 0;
#X connect 8 0 10 0;
#X connect 8 1 9 0;
#X connect 9 0 7 0;
#X connect 10 0 15 0;
#X connect 11 0 12 0;
#X connect 12 0 13 1;
#X connect 13 0 14 0;
#X connect 14 0 17 0;
#X connect 15 0 13 0;
#X connect 17 0 18 1;
#X connect 17 1 16 0;
#X connect 18 0 24 0;
#X connect 19 0 21 0;
#X connect 19 1 8 0;
#X connect 20 0 23 1;
#X connect 21 0 23 0;
#X connect 21 1 22 0;
#X connect 22 0 20 0;
#X connect 23 0 18 0;
#X connect 24 0 25 0;
#X connect 25 0 16 0;
#X restore 37 107 pd send_padPressed_to_recorder;
#X connect 0 0 3 0;
#X connect 3 0 4 0;
#X connect 3 1 1 0;
#X connect 3 2 2 0;
#X restore 511 122 pd arm-record_actions;
#N canvas 87 171 581 318 record_actions 0;
#X obj 37 17 inlet;
#X floatatom 252 150 5 0 0 1 started - -;
#X obj 252 171 sel 0, f 8;
#X obj 297 191 sel 1;
#N canvas 92 460 450 300 blink_recording_pad 0;
#X obj 42 18 inlet;
#X text 67 35 pad;
#X obj 237 18 inlet;
#X text 255 38 bang to go;
#X obj 270 151 sendOSC guiControl armRecord;
#X msg 270 126 0;
#X obj 198 245 sendOSC drumpad pad;
#X obj 42 61 t f f;
#X msg 42 112 set \$1 blink 1 600;
#X msg 69 87 set\$1 color fg red;
#X msg 198 181 0 blink 1 600;
#X obj 237 69 t b b, f 6;
#X connect 0 0 7 0;
#X connect 2 0 11 0;
#X connect 5 0 4 0;
#X connect 7 0 8 0;
#X connect 7 1 9 0;
#X connect 8 0 10 0;
#X connect 9 0 10 0;
#X connect 10 0 6 0;
#X connect 11 0 10 0;
#X connect 11 1 5 0;
#X restore 71 272 pd blink_recording_pad;
#N canvas 179 410 293 264 unblink_record_armed 0;
#X obj 38 24 inlet;
#X obj 68 183 sendOSC guiControl armRecord;
#X msg 68 85 0;
#X connect 0 0 2 0;
#X connect 2 0 1 0;
#X restore 330 252 pd unblink_record_armed;
#X obj 297 217 t b b, f 6;
#N canvas 163 249 450 300 light_up_pad_recorded 0;
#X obj 28 17 inlet;
#X obj 324 18 inlet;
#X text 351 38 bang to go;
#X text 47 36 pad number;
#X obj 183 156 sendOSC drumpad 1 in pad;
#X msg 183 135 0 color bg lightBlue;
#X msg 28 65 set \$1 color bg lightBlue;
#X connect 0 0 6 0;
#X connect 1 0 5 0;
#X connect 5 0 4 0;
#X connect 6 0 5 0;
#X restore 156 237 pd light_up_pad_recorded;
#X obj 252 192 t b b;
#X obj 37 48 list split 1;
#X obj 71 68 list split 1;
#X obj 105 88 list split 1;
#X obj 139 108 list split 1;
#X text 121 48 pad;
#X text 151 70 pad number or all;
#X text 188 89 started;
#X text 218 110 started state (0-1);
#X obj 71 166 list trim;
#X obj 71 187 t a a, f 13;
#X connect 0 0 9 0;
#X connect 1 0 2 0;
#X connect 2 0 8 0;
#X connect 2 1 3 0;
#X connect 3 0 6 0;
#X connect 6 0 7 1;
#X connect 6 1 5 0;
#X connect 8 0 4 1;
#X connect 8 1 5 0;
#X connect 9 1 10 0;
#X connect 10 0 17 0;
#X connect 10 1 11 0;
#X connect 11 1 12 0;
#X connect 12 0 1 0;
#X connect 17 0 18 0;
#X connect 18 0 4 0;
#X connect 18 1 7 0;
#X restore 350 122 pd record_actions;
#X connect 0 0 3 0;
#X connect 1 0 5 0;
#X connect 2 2 4 0;
#X connect 2 3 1 0;
#X connect 3 0 2 0;
#X connect 4 0 6 0;
#X restore 233 145 pd GUI-Control;
#X connect 8 0 10 0;
