#N canvas 0 50 782 456 10;
#N canvas 248 301 474 218 send_MessageFormat 0;
#X obj 37 37 inlet;
#X obj 37 158 outlet;
#X obj 37 129 list trim;
#X text 282 160 For detail see pad help;
#X obj 37 88 list prepend pad \$1 state;
#X text 194 87 pad <pad number> state <0-1>;
#X connect 0 0 4 0;
#X connect 2 0 1 0;
#X connect 4 0 2 0;
#X restore 170 290 pd send_MessageFormat;
#N canvas 637 287 307 189 receive_MessageFormat 0;
#X obj 49 38 inlet;
#X obj 49 149 outlet;
#X text 134 91 For detail see pad help;
#X obj 49 69 route pad;
#X obj 49 100 route \$1;
#X obj 94 119 route all;
#X connect 0 0 3 0;
#X connect 3 0 4 0;
#X connect 4 0 1 0;
#X connect 4 1 5 0;
#X connect 5 0 1 0;
#X restore 170 51 pd receive_MessageFormat;
#X text 303 292 formata mensagem para envio;
#X text 254 327 saída das mensagens da abstração [pad];
#X text 258 17 mensagens recebidas pelas abstrações [pad];
#X text 330 51 filtra mensagens destinadas a esta instância da abstração
[pad], f 34;
#X obj 170 326 s pad_send;
#X obj 170 18 r pad_receive;
#X obj 274 137 s \$0-button_in;
#N canvas 529 86 507 644 button_colors 0;
#X obj 40 14 inlet;
#X obj 40 65 route color;
#X obj 126 608 outlet;
#X obj 56 353 list trim;
#X obj 241 353 list trim;
#N canvas 328 158 779 540 colors 0;
#X obj 511 67 bng 15 250 50 0 empty empty empty 17 7 0 10 -262144 -1
-1;
#X obj 509 112 bng 15 250 50 0 empty empty empty 17 7 0 10 -262144
-1 -1;
#X obj 509 152 bng 15 250 50 0 empty empty empty 17 7 0 10 -262144
-1 -1;
#X obj 509 192 bng 15 250 50 0 empty empty empty 17 7 0 10 -262144
-1 -1;
#X obj 509 232 bng 15 250 50 0 empty empty empty 17 7 0 10 -262144
-1 -1;
#X text 653 89 cinza;
#X text 654 129 amarelo;
#X text 664 169 vermelho;
#X text 654 209 verde;
#X text 655 249 azul;
#X obj 33 9 inlet;
#X obj 49 514 outlet;
#X obj 509 130 else/pack2 #FFFF00 22 0;
#X obj 509 210 else/pack2 #00FF00 22 0;
#X obj 509 250 else/pack2 #0000FF 22 0;
#X obj 509 170 else/pack2 #FF0000 22 0;
#X obj 511 87 else/pack2 #606060 22 0;
#X obj 573 15 bng 15 250 50 0 empty empty empty 17 7 0 10 -262144 -1
-1;
#N canvas 562 360 450 141 colors_table-internet 0;
#X obj 37 37 inlet;
#X msg 37 58 browse https://www.rapidtables.com/web/color/RGB_Color.html
;
#X obj 37 79 pdcontrol;
#X connect 0 0 1 0;
#X connect 1 0 2 0;
#X restore 573 35 pd colors_table-internet;
#X obj 33 41 route grey yellow red green blue lightYellow lightRed
lightGreen lightBlue, f 76;
#X obj 509 282 bng 15 250 50 0 empty empty empty 17 7 0 10 -262144
-1 -1;
#X obj 509 322 bng 15 250 50 0 empty empty empty 17 7 0 10 -262144
-1 -1;
#X obj 509 362 bng 15 250 50 0 empty empty empty 17 7 0 10 -262144
-1 -1;
#X obj 509 402 bng 15 250 50 0 empty empty empty 17 7 0 10 -262144
-1 -1;
#X text 654 299 amarelo claro;
#X text 664 339 vermelho claro;
#X text 654 379 verde claro;
#X text 655 419 azul claro;
#X obj 509 300 else/pack2 #FFFFCC 22 0;
#X obj 509 340 else/pack2 #FFCCCC 22 0;
#X obj 509 380 else/pack2 #E5FFCC 22 0;
#X obj 509 420 else/pack2 #CCE5FF 22 0;
#X connect 0 0 16 0;
#X connect 1 0 12 0;
#X connect 2 0 15 0;
#X connect 3 0 13 0;
#X connect 4 0 14 0;
#X connect 10 0 19 0;
#X connect 12 0 11 0;
#X connect 13 0 11 0;
#X connect 14 0 11 0;
#X connect 15 0 11 0;
#X connect 16 0 11 0;
#X connect 17 0 18 0;
#X connect 19 0 0 0;
#X connect 19 1 1 0;
#X connect 19 2 2 0;
#X connect 19 3 3 0;
#X connect 19 4 4 0;
#X connect 19 5 20 0;
#X connect 19 6 21 0;
#X connect 19 7 22 0;
#X connect 19 8 23 0;
#X connect 20 0 28 0;
#X connect 21 0 29 0;
#X connect 22 0 30 0;
#X connect 23 0 31 0;
#X connect 28 0 11 0;
#X connect 29 0 11 0;
#X connect 30 0 11 0;
#X connect 31 0 11 0;
#X restore 155 215 pd colors;
#X obj 40 106 route background bg foreground fg, f 45;
#X obj 56 297 spigot 0, f 15;
#X obj 241 297 spigot 0;
#N canvas 129 384 312 212 init 0;
#X obj 45 159 outlet;
#X obj 45 19 loadbang;
#X obj 45 60 t b b, f 22;
#X msg 174 80 color fg green;
#X msg 45 81 color bg grey;
#X connect 1 0 2 0;
#X connect 2 0 4 0;
#X connect 2 1 3 0;
#X connect 3 0 0 0;
#X connect 4 0 0 0;
#X restore 68 38 pd init;
#X msg 181 160 0, f 1;
#X msg 143 160 1, f 1;
#X msg 333 160 0, f 1;
#X msg 286 160 1, f 1;
#X obj 106 142 t a b b, f 13;
#X obj 240 142 t a b b, f 16;
#X obj 56 387 t a a;
#X obj 334 15 text d \$0-buttonBackground;
#X obj 334 36 text d \$0-buttonForeground;
#X obj 23 450 text fromlist \$0-buttonBackground;
#X obj 288 422 text fromlist \$0-buttonForeground;
#X obj 23 431 list;
#X obj 288 402 list;
#X obj 56 332 list prepend color;
#X obj 241 332 list prepend color;
#X obj 241 388 t b a a;
#N canvas 187 356 341 300 trigger_bg 0;
#X obj 37 37 inlet;
#X obj 67 222 outlet;
#X obj 67 82 text tolist \$0-buttonBackground;
#X obj 67 103 list trim;
#X obj 112 35 bng 15 250 50 0 empty empty empty 17 7 0 10 -262144 -1
-1;
#X obj 67 124 route bang;
#X connect 0 0 2 0;
#X connect 2 0 3 0;
#X connect 3 0 5 0;
#X connect 4 0 2 0;
#X connect 5 1 1 0;
#X restore 241 450 pd trigger_bg;
#X connect 0 0 1 0;
#X connect 1 0 6 0;
#X connect 3 0 16 0;
#X connect 4 0 25 0;
#X connect 5 0 7 0;
#X connect 5 0 8 0;
#X connect 6 0 14 0;
#X connect 6 1 14 0;
#X connect 6 2 15 0;
#X connect 6 3 15 0;
#X connect 7 0 23 0;
#X connect 8 0 24 0;
#X connect 9 0 1 0;
#X connect 10 0 8 1;
#X connect 11 0 7 1;
#X connect 12 0 7 1;
#X connect 13 0 8 1;
#X connect 14 0 5 0;
#X connect 14 1 11 0;
#X connect 14 2 10 0;
#X connect 15 0 5 0;
#X connect 15 1 13 0;
#X connect 15 2 12 0;
#X connect 16 0 2 0;
#X connect 16 1 21 0;
#X connect 21 0 19 0;
#X connect 22 0 20 0;
#X connect 23 0 3 0;
#X connect 24 0 4 0;
#X connect 25 0 26 0;
#X connect 25 1 2 0;
#X connect 25 2 22 0;
#X connect 26 0 2 0;
#X restore 274 116 pd button_colors;
#N canvas 301 408 783 239 button_actions 0;
#X obj 46 19 inlet;
#X obj 184 186 outlet;
#N canvas 702 223 416 300 hold 0;
#X obj 50 29 inlet;
#X obj 197 268 outlet;
#X obj 50 70 t b b, f 25;
#X obj 197 106 text tolist \$0-buttonForeground;
#X obj 197 127 list trim;
#X msg 50 116 1;
#X obj 50 144 s \$0-button_out;
#X obj 50 91 t b b, f 18;
#X obj 155 172 s \$0-button_in;
#X msg 155 111 set 1;
#X connect 0 0 2 0;
#X connect 2 0 7 0;
#X connect 2 1 3 0;
#X connect 3 0 4 0;
#X connect 4 0 1 0;
#X connect 5 0 6 0;
#X connect 7 0 5 0;
#X connect 7 1 9 0;
#X connect 9 0 8 0;
#X restore 46 107 pd hold;
#N canvas 702 223 416 300 release 0;
#X obj 50 29 inlet;
#X obj 197 237 outlet;
#X obj 50 70 t b b, f 25;
#X obj 197 127 list trim;
#X msg 50 117 0;
#X obj 197 106 text tolist \$0-buttonBackground;
#X obj 50 144 s \$0-button_out;
#X obj 50 91 t b b, f 18;
#X obj 155 172 s \$0-button_in;
#X msg 155 111 set 0;
#X connect 0 0 2 0;
#X connect 2 0 7 0;
#X connect 2 1 5 0;
#X connect 3 0 1 0;
#X connect 4 0 6 0;
#X connect 5 0 3 0;
#X connect 7 0 4 0;
#X connect 7 1 9 0;
#X connect 9 0 8 0;
#X restore 115 107 pd release;
#N canvas 604 166 450 386 blink 0;
#X obj 93 15 inlet;
#X obj 148 359 outlet;
#X obj 222 278 text tolist \$0-buttonBackground;
#X obj 22 278 text tolist \$0-buttonForeground;
#X obj 222 299 list trim;
#X obj 93 131 metro 500;
#X obj 19 25 loadbang;
#X msg 19 46 0;
#X obj 174 95 t f f;
#X obj 93 152 t b b, f 12;
#X obj 162 170 del 250;
#X obj 174 66 route 0;
#X obj 114 186 bng 15 250 50 0 empty empty empty 17 7 0 10 -262144
-1 -1;
#X obj 114 203 tgl 15 0 empty empty empty 17 7 0 10 -262144 -1 -1 0
1;
#X obj 114 223 sel 1;
#X obj 141 241 bng 15 250 50 0 empty empty empty 17 7 0 10 -262144
-1 -1;
#X obj 22 299 list trim;
#X obj 93 44 unpack f f, f 14;
#X obj 144 111 * 2;
#X connect 0 0 17 0;
#X connect 2 0 4 0;
#X connect 3 0 16 0;
#X connect 4 0 1 0;
#X connect 5 0 9 0;
#X connect 6 0 7 0;
#X connect 7 0 5 0;
#X connect 8 0 18 0;
#X connect 8 1 10 1;
#X connect 9 0 12 0;
#X connect 9 1 10 0;
#X connect 10 0 12 0;
#X connect 11 1 8 0;
#X connect 12 0 13 0;
#X connect 13 0 14 0;
#X connect 14 0 3 0;
#X connect 14 1 15 0;
#X connect 15 0 2 0;
#X connect 16 0 1 0;
#X connect 17 0 5 0;
#X connect 17 1 11 0;
#X connect 18 0 5 1;
#X restore 184 77 pd blink;
#X text 460 30 Mensagens de entrada;
#X text 471 50 1 - acende e retorna 1 na saída do pad;
#X text 471 68 0 - apaga e retorna 0 na saída do pad;
#X text 471 88 blink (0-1) float;
#X text 487 122 float (0-1) - 1 inicia e 0 termina;
#X text 487 106 blink - pisca o pad;
#X text 487 140 float - tempo de intermitência (ms);
#X text 461 42 status - estado do botão;
#X obj 46 71 route 1 0, f 13;
#X obj 46 50 route state blink, f 35;
#X floatatom 274 71 5 0 0 0 - - -;
#X obj 274 50 r \$0-button_tgl_out;
#N canvas 702 223 416 300 hold 0;
#X obj 50 29 inlet;
#X obj 87 268 outlet;
#X obj 87 106 text tolist \$0-buttonForeground;
#X obj 87 127 list trim;
#X connect 0 0 2 0;
#X connect 2 0 3 0;
#X connect 3 0 1 0;
#X restore 276 127 pd hold;
#N canvas 702 223 349 300 release 0;
#X obj 50 29 inlet;
#X obj 87 237 outlet;
#X obj 87 127 list trim;
#X obj 87 106 text tolist \$0-buttonBackground;
#X connect 0 0 3 0;
#X connect 2 0 1 0;
#X connect 3 0 2 0;
#X restore 345 127 pd release;
#X obj 276 91 route 1 0, f 13;
#X connect 0 0 14 0;
#X connect 2 0 1 0;
#X connect 3 0 1 0;
#X connect 4 0 1 0;
#X connect 13 0 2 0;
#X connect 13 1 3 0;
#X connect 14 0 13 0;
#X connect 14 1 4 0;
#X connect 15 0 13 0;
#X connect 16 0 15 0;
#X connect 17 0 1 0;
#X connect 18 0 1 0;
#X connect 19 0 17 0;
#X connect 19 1 18 0;
#X restore 396 116 pd button_actions;
#X obj 396 137 s \$0-button_in;
#X obj 170 241 r \$0-button_out;
#X text 270 242 Mensagens vindas do botão;
#X obj 14 169 tgl 25 0 empty empty empty 17 7 0 10 -228856 -1 -1 0
1;
#N canvas 475 232 250 201 debug_messages 0;
#X obj 37 37 inlet;
#X obj 30 97 spigot 0;
#X obj 30 75 r pad_send;
#X obj 30 118 print pad_messages_out;
#X connect 0 0 1 1;
#X connect 1 0 3 0;
#X connect 2 0 1 0;
#X restore 14 202 pd debug_messages;
#X obj 507 117 route bang;
#X obj 100 30 else/button 30 30 255 255 255 128 128 159;
#X obj 10 30 tgl 30 0 empty empty empty 17 7 0 10 -99865 -1 -262144
0 1;
#X obj 9 6 r \$0-button_in;
#X obj 10 87 s \$0-button_tgl_out;
#X obj 68 30 cnv 18 30 30 empty \$0-button_color_in empty 20 12 0 14
-99865 -262144 0;
#X obj 170 92 t b a a a, f 59;
#X msg 170 167 \; pd-button_colors dirty 0;
#X text 327 170 hack para resolver problema de pedir pra salvar a cada
mudança remota de background e foreground color do objeto [else/button]
, f 42;
#X connect 0 0 6 0;
#X connect 1 0 22 0;
#X connect 7 0 1 0;
#X connect 9 0 8 0;
#X connect 10 0 11 0;
#X connect 12 0 0 0;
#X connect 14 0 15 0;
#X connect 18 0 20 0;
#X connect 19 0 18 0;
#X connect 22 0 23 0;
#X connect 22 1 9 0;
#X connect 22 2 10 0;
#X connect 22 3 16 0;
#X coords 0 -1 1 1 30 30 2 10 30;
